<svg width="115" height="55" viewBox="0 0 115 55" fill="none" xmlns="http://www.w3.org/2000/svg">
<path d="M11.3262 2C11.3262 11.3941 11.8351 20.6977 12.0387 30.0675C12.0899 32.4215 11.9348 35.7263 12.5732 38.0245C13.2911 40.6089 12.3104 43.4106 13.1076 46.0014C13.5538 47.4514 13.8202 48.9377 13.8202 50.455" stroke="white" stroke-width="4" stroke-linecap="round"/>
<path d="M2 42.9157C5.83367 43.0861 8.83625 45.8328 11.4416 48.4382C12.5082 49.5048 13.3233 53.7879 13.7377 52.3375C14.7601 48.7589 15.7135 46.0273 18.5475 43.272C20.341 41.5283 22.9075 41.3287 24.8023 40.0654" stroke="white" stroke-width="4" stroke-linecap="round"/>
<path d="M54.3262 2C54.3262 11.3941 54.8351 20.6977 55.0387 30.0675C55.0899 32.4215 54.9348 35.7263 55.5732 38.0245C56.2911 40.6089 55.3104 43.4106 56.1076 46.0014C56.5538 47.4514 56.8202 48.9377 56.8202 50.455" stroke="white" stroke-width="4" stroke-linecap="round"/>
<path d="M45 42.9157C48.8337 43.0861 51.8362 45.8328 54.4416 48.4382C55.5082 49.5048 56.3233 53.7879 56.7377 52.3375C57.7601 48.7589 58.7135 46.0273 61.5475 43.272C63.341 41.5283 65.9075 41.3287 67.8023 40.0654" stroke="white" stroke-width="4" stroke-linecap="round"/>
<path d="M99.3262 2C99.3262 11.3941 99.8351 20.6977 100.039 30.0675C100.09 32.4215 99.9348 35.7263 100.573 38.0245C101.291 40.6089 100.31 43.4106 101.108 46.0014C101.554 47.4514 101.82 48.9377 101.82 50.455" stroke="white" stroke-width="4" stroke-linecap="round"/>
<path d="M90 42.9157C93.8337 43.0861 96.8362 45.8328 99.4416 48.4382C100.508 49.5048 101.323 53.7879 101.738 52.3375C102.76 48.7589 103.714 46.0273 106.548 43.272C108.341 41.5283 110.907 41.3287 112.802 40.0654" stroke="white" stroke-width="4" stroke-linecap="round"/>
</svg>
