<svg width="172" height="41" viewBox="0 0 172 41" fill="none" xmlns="http://www.w3.org/2000/svg">
<path d="M21.8903 9.79239V14.9359H14.5258V37.0684H9.14851V14.9359H1.82296V9.79239H21.8903ZM30.2694 31.9249H41.7643V37.0684H24.8922V9.79239H41.5695V14.9359H30.2694V20.7417H40.5953V25.8073H30.2694V31.9249ZM54.8674 37.6139C52.1658 37.6139 49.8928 37.0164 48.0484 35.8215C46.204 34.6005 44.9052 32.951 44.1519 30.8728L48.7498 28.1842C49.8149 30.9637 51.906 32.3535 55.0233 32.3535C56.53 32.3535 57.634 32.0808 58.3354 31.5352C59.0367 30.9897 59.3874 30.3013 59.3874 29.4701C59.3874 28.5089 58.9588 27.7686 58.1016 27.249C57.2443 26.7035 55.7117 26.119 53.5036 25.4956C52.2827 25.1319 51.2436 24.7682 50.3864 24.4045C49.5551 24.0408 48.7108 23.5603 47.8536 22.9628C47.0223 22.3393 46.3859 21.56 45.9443 20.6248C45.5027 19.6897 45.2819 18.5986 45.2819 17.3517C45.2819 14.8839 46.1521 12.9226 47.8926 11.4679C49.659 9.98722 51.7761 9.24687 54.244 9.24687C56.452 9.24687 58.3873 9.79239 60.0498 10.8834C61.7384 11.9485 63.0502 13.4422 63.9854 15.3645L59.4654 17.9752C58.3743 15.6372 56.6339 14.4683 54.244 14.4683C53.1269 14.4683 52.2437 14.728 51.5943 15.2476C50.9708 15.7411 50.6591 16.3906 50.6591 17.1959C50.6591 18.0531 51.0098 18.7545 51.7112 19.3C52.4386 19.8196 53.8153 20.3911 55.8416 21.0145C56.6728 21.2743 57.2963 21.4821 57.7119 21.638C58.1535 21.7678 58.738 21.9886 59.4654 22.3004C60.2187 22.5861 60.7902 22.8589 61.1799 23.1186C61.5955 23.3784 62.0631 23.7291 62.5826 24.1707C63.1022 24.6123 63.4918 25.0669 63.7516 25.5345C64.0373 26.0021 64.2711 26.5736 64.453 27.249C64.6608 27.8984 64.7647 28.6128 64.7647 29.3921C64.7647 31.9119 63.8425 33.9121 61.9981 35.3928C60.1797 36.8735 57.8028 37.6139 54.8674 37.6139ZM85.3237 9.79239V14.9359H77.9591V37.0684H72.5819V14.9359H65.2563V9.79239H85.3237ZM115.017 9.79239V37.0684H109.679V19.3779L102.002 32.0418H101.379L93.7028 19.4169V37.0684H88.3255V9.79239H93.8587L101.691 22.69L109.484 9.79239H115.017ZM125.477 31.9249H136.971V37.0684H120.099V9.79239H136.777V14.9359H125.477V20.7417H135.802V25.8073H125.477V31.9249Z" fill="white"/>
<path d="M21.8903 9.79239H22.7724V8.91031H21.8903V9.79239ZM21.8903 14.9359V15.8179H22.7724V14.9359H21.8903ZM14.5258 14.9359V14.0538H13.6437V14.9359H14.5258ZM14.5258 37.0684V37.9504H15.4078V37.0684H14.5258ZM9.14851 37.0684H8.26643V37.9504H9.14851V37.0684ZM9.14851 14.9359H10.0306V14.0538H9.14851V14.9359ZM1.82296 14.9359H0.94088V15.8179H1.82296V14.9359ZM1.82296 9.79239V8.91031H0.94088V9.79239H1.82296ZM21.0082 9.79239V14.9359H22.7724V9.79239H21.0082ZM21.8903 14.0538H14.5258V15.8179H21.8903V14.0538ZM13.6437 14.9359V37.0684H15.4078V14.9359H13.6437ZM14.5258 36.1863H9.14851V37.9504H14.5258V36.1863ZM10.0306 37.0684V14.9359H8.26643V37.0684H10.0306ZM9.14851 14.0538H1.82296V15.8179H9.14851V14.0538ZM2.70504 14.9359V9.79239H0.94088V14.9359H2.70504ZM1.82296 10.6745H21.8903V8.91031H1.82296V10.6745ZM30.2694 31.9249H29.3873V32.807H30.2694V31.9249ZM41.7643 31.9249H42.6464V31.0428H41.7643V31.9249ZM41.7643 37.0684V37.9504H42.6464V37.0684H41.7643ZM24.8922 37.0684H24.0101V37.9504H24.8922V37.0684ZM24.8922 9.79239V8.91031H24.0101V9.79239H24.8922ZM41.5695 9.79239H42.4515V8.91031H41.5695V9.79239ZM41.5695 14.9359V15.8179H42.4515V14.9359H41.5695ZM30.2694 14.9359V14.0538H29.3873V14.9359H30.2694ZM30.2694 20.7417H29.3873V21.6238H30.2694V20.7417ZM40.5953 20.7417H41.4774V19.8597H40.5953V20.7417ZM40.5953 25.8073V26.6894H41.4774V25.8073H40.5953ZM30.2694 25.8073V24.9252H29.3873V25.8073H30.2694ZM30.2694 32.807H41.7643V31.0428H30.2694V32.807ZM40.8822 31.9249V37.0684H42.6464V31.9249H40.8822ZM41.7643 36.1863H24.8922V37.9504H41.7643V36.1863ZM25.7742 37.0684V9.79239H24.0101V37.0684H25.7742ZM24.8922 10.6745H41.5695V8.91031H24.8922V10.6745ZM40.6874 9.79239V14.9359H42.4515V9.79239H40.6874ZM41.5695 14.0538H30.2694V15.8179H41.5695V14.0538ZM29.3873 14.9359V20.7417H31.1515V14.9359H29.3873ZM30.2694 21.6238H40.5953V19.8597H30.2694V21.6238ZM39.7132 20.7417V25.8073H41.4774V20.7417H39.7132ZM40.5953 24.9252H30.2694V26.6894H40.5953V24.9252ZM29.3873 25.8073V31.9249H31.1515V25.8073H29.3873ZM48.0484 35.8215L47.5615 36.557L47.5688 36.5617L48.0484 35.8215ZM44.1519 30.8728L43.7066 30.1114L43.0721 30.4824L43.3226 31.1734L44.1519 30.8728ZM48.7498 28.1842L49.5735 27.8686L49.2016 26.8982L48.3045 27.4227L48.7498 28.1842ZM58.3354 31.5352L57.7938 30.839L58.3354 31.5352ZM58.1016 27.249L57.628 27.9932L57.6361 27.9984L57.6444 28.0034L58.1016 27.249ZM53.5036 25.4956L53.2518 26.341L53.2639 26.3444L53.5036 25.4956ZM50.3864 24.4045L50.0328 25.2127L50.0419 25.2165L50.3864 24.4045ZM47.8536 22.9628L47.3243 23.6684L47.3366 23.6777L47.3492 23.6864L47.8536 22.9628ZM45.9443 20.6248L45.1467 21.0015L45.9443 20.6248ZM47.8926 11.4679L48.4582 12.1447L48.4592 12.1439L47.8926 11.4679ZM60.0499 10.8834L59.5659 11.6209L59.5725 11.6252L59.5793 11.6295L60.0499 10.8834ZM63.9854 15.3645L64.4266 16.1283L65.138 15.7174L64.7786 14.9786L63.9854 15.3645ZM59.4654 17.9752L58.666 18.3482L59.0731 19.2204L59.9065 18.739L59.4654 17.9752ZM51.5943 15.2476L52.1418 15.9392L52.1453 15.9364L51.5943 15.2476ZM51.7112 19.3L51.1697 19.9963L51.1839 20.0073L51.1985 20.0178L51.7112 19.3ZM55.8416 21.0145L56.1047 20.1726L56.101 20.1714L55.8416 21.0145ZM57.7119 21.638L57.4022 22.4639L57.4322 22.4751L57.463 22.4842L57.7119 21.638ZM59.4654 22.3004L59.1179 23.1111L59.1351 23.1185L59.1525 23.1251L59.4654 22.3004ZM61.1799 23.1186L60.6906 23.8526L60.7014 23.8598L60.7124 23.8667L61.1799 23.1186ZM62.5826 24.1707L63.1539 23.4986V23.4986L62.5826 24.1707ZM63.7516 25.5345L62.9805 25.9629L62.9894 25.9789L62.9989 25.9945L63.7516 25.5345ZM64.453 27.249L63.6012 27.4783L63.6066 27.4982L63.6129 27.5178L64.453 27.249ZM61.9981 35.3928L61.4459 34.705L61.4412 34.7088L61.9981 35.3928ZM54.8674 36.7318C52.2968 36.7318 50.1999 36.1643 48.528 35.0812L47.5688 36.5617C49.5857 37.8685 52.0348 38.496 54.8674 38.496V36.7318ZM48.5353 35.0859C46.8487 33.9694 45.6699 32.4723 44.9811 30.5722L43.3226 31.1734C44.1405 33.4297 45.5594 35.2316 47.5615 36.557L48.5353 35.0859ZM44.5971 31.6343L49.1951 28.9456L48.3045 27.4227L43.7066 30.1114L44.5971 31.6343ZM47.9261 28.4998C48.5117 30.0281 49.4038 31.2318 50.6287 32.0458C51.8505 32.8578 53.333 33.2356 55.0233 33.2356V31.4714C53.5963 31.4714 52.4746 31.1544 51.6052 30.5765C50.7389 30.0008 50.0529 29.1198 49.5735 27.8686L47.9261 28.4998ZM55.0233 33.2356C56.6023 33.2356 57.9453 32.9561 58.8769 32.2315L57.7938 30.839C57.3227 31.2054 56.4576 31.4714 55.0233 31.4714V33.2356ZM58.8769 32.2315C59.776 31.5322 60.2695 30.5945 60.2695 29.4701H58.5054C58.5054 30.0081 58.2974 30.4472 57.7938 30.839L58.8769 32.2315ZM60.2695 29.4701C60.2695 28.1847 59.666 27.1657 58.5588 26.4947L57.6444 28.0034C58.2516 28.3714 58.5054 28.8331 58.5054 29.4701H60.2695ZM58.5751 26.5048C57.5996 25.8841 55.9568 25.2716 53.7433 24.6467L53.2639 26.3444C55.4666 26.9664 56.889 27.5229 57.628 27.9932L58.5751 26.5048ZM53.7554 24.6502C52.5554 24.2927 51.5492 23.9396 50.7309 23.5925L50.0419 25.2165C50.9381 25.5967 52.01 25.971 53.2518 26.3409L53.7554 24.6502ZM50.7399 23.5964C49.9688 23.259 49.1748 22.8084 48.358 22.2391L47.3492 23.6864C48.2469 24.3121 49.1414 24.8226 50.0328 25.2126L50.7399 23.5964ZM48.3828 22.2571C47.6659 21.7194 47.1219 21.0528 46.7419 20.2482L45.1467 21.0015C45.6499 22.0672 46.3787 22.9592 47.3243 23.6684L48.3828 22.2571ZM46.7419 20.2482C46.3662 19.4525 46.1639 18.4948 46.1639 17.3517H44.3998C44.3998 18.7025 44.6392 19.9268 45.1467 21.0015L46.7419 20.2482ZM46.1639 17.3517C46.1639 15.1191 46.9375 13.4158 48.4582 12.1447L47.3269 10.7911C45.3667 12.4295 44.3998 14.6487 44.3998 17.3517H46.1639ZM48.4592 12.1439C50.0551 10.8061 51.9676 10.1289 54.244 10.1289V8.36479C51.5847 8.36479 49.2629 9.16829 47.3259 10.7919L48.4592 12.1439ZM54.244 10.1289C56.2997 10.1289 58.0627 10.6344 59.5659 11.6209L60.5338 10.146C58.7119 8.95033 56.6043 8.36479 54.244 8.36479V10.1289ZM59.5793 11.6295C61.1189 12.6006 62.3236 13.9649 63.1922 15.7504L64.7786 14.9786C63.7768 12.9194 62.3578 11.2963 60.5204 10.1374L59.5793 11.6295ZM63.5442 14.6007L59.0242 17.2114L59.9065 18.739L64.4266 16.1283L63.5442 14.6007ZM60.2647 17.6022C59.6669 16.3211 58.8647 15.3053 57.8335 14.6127C56.7982 13.9174 55.5888 13.5862 54.244 13.5862V15.3503C55.289 15.3503 56.1448 15.6036 56.8499 16.0772C57.5592 16.5537 58.1728 17.2913 58.666 18.3482L60.2647 17.6022ZM54.244 13.5862C52.9953 13.5862 51.8954 13.8771 51.0433 14.5588L52.1453 15.9364C52.5921 15.579 53.2586 15.3503 54.244 15.3503V13.5862ZM51.0468 14.556C50.2089 15.2193 49.777 16.125 49.777 17.1959H51.5412C51.5412 16.6561 51.7328 16.263 52.1418 15.9392L51.0468 14.556ZM49.777 17.1959C49.777 18.3367 50.2626 19.2908 51.1697 19.9963L52.2527 18.6037C51.7571 18.2182 51.5412 17.7695 51.5412 17.1959H49.777ZM51.1985 20.0178C52.0539 20.6288 53.5556 21.234 55.5821 21.8576L56.101 20.1714C54.0751 19.5481 52.8232 19.0103 52.2239 18.5822L51.1985 20.0178ZM55.5785 21.8564C56.4059 22.115 57.0103 22.3169 57.4022 22.4639L58.0216 20.812C57.5822 20.6473 56.9398 20.4335 56.1047 20.1726L55.5785 21.8564ZM57.463 22.4842C57.8557 22.5997 58.4034 22.8049 59.1179 23.1111L59.8128 21.4896C59.0726 21.1724 58.4514 20.936 57.9608 20.7917L57.463 22.4842ZM59.1525 23.1251C59.8814 23.4016 60.3817 23.6467 60.6906 23.8526L61.6691 22.3847C61.1987 22.0711 60.556 21.7707 59.7782 21.4756L59.1525 23.1251ZM60.7124 23.8667C61.0806 24.0968 61.5129 24.4191 62.0113 24.8428L63.1539 23.4986C62.6133 23.0391 62.1104 22.66 61.6474 22.3706L60.7124 23.8667ZM62.0113 24.8428C62.4714 25.2338 62.7841 25.6094 62.9805 25.9629L64.5227 25.1061C64.1995 24.5245 63.733 23.9908 63.1539 23.4986L62.0113 24.8428ZM62.9989 25.9945C63.2307 26.3737 63.4355 26.8629 63.6012 27.4783L65.3047 27.0197C65.1067 26.2843 64.844 25.6305 64.5042 25.0746L62.9989 25.9945ZM63.6129 27.5178C63.7892 28.069 63.8826 28.6912 63.8826 29.3921H65.6468C65.6468 28.5344 65.5324 27.7279 65.2931 26.9802L63.6129 27.5178ZM63.8826 29.3921C63.8826 31.6646 63.0666 33.4039 61.4459 34.705L62.5503 36.0807C64.6185 34.4204 65.6468 32.1592 65.6468 29.3921H63.8826ZM61.4412 34.7088C59.8164 36.0318 57.6523 36.7318 54.8674 36.7318V38.496C57.9534 38.496 60.543 37.7152 62.5551 36.0768L61.4412 34.7088ZM85.3237 9.79239H86.2057V8.91031H85.3237V9.79239ZM85.3237 14.9359V15.8179H86.2057V14.9359H85.3237ZM77.9591 14.9359V14.0538H77.0771V14.9359H77.9591ZM77.9591 37.0684V37.9504H78.8412V37.0684H77.9591ZM72.5819 37.0684H71.6998V37.9504H72.5819V37.0684ZM72.5819 14.9359H73.464V14.0538H72.5819V14.9359ZM65.2563 14.9359H64.3743V15.8179H65.2563V14.9359ZM65.2563 9.79239V8.91031H64.3743V9.79239H65.2563ZM84.4416 9.79239V14.9359H86.2057V9.79239H84.4416ZM85.3237 14.0538H77.9591V15.8179H85.3237V14.0538ZM77.0771 14.9359V37.0684H78.8412V14.9359H77.0771ZM77.9591 36.1863H72.5819V37.9504H77.9591V36.1863ZM73.464 37.0684V14.9359H71.6998V37.0684H73.464ZM72.5819 14.0538H65.2563V15.8179H72.5819V14.0538ZM66.1384 14.9359V9.79239H64.3743V14.9359H66.1384ZM65.2563 10.6745H85.3237V8.91031H65.2563V10.6745ZM115.017 9.79239H115.899V8.91031H115.017V9.79239ZM115.017 37.0684V37.9504H115.899V37.0684H115.017ZM109.679 37.0684H108.797V37.9504H109.679V37.0684ZM109.679 19.3779H110.561V16.2211L108.924 18.9207L109.679 19.3779ZM102.002 32.0418V32.9239H102.499L102.757 32.499L102.002 32.0418ZM101.379 32.0418L100.625 32.5001L100.883 32.9239H101.379V32.0418ZM93.7028 19.4169L94.4565 18.9586L92.8207 16.2683V19.4169H93.7028ZM93.7028 37.0684V37.9504H94.5849V37.0684H93.7028ZM88.3255 37.0684H87.4435V37.9504H88.3255V37.0684ZM88.3255 9.79239V8.91031H87.4435V9.79239H88.3255ZM93.8587 9.79239L94.6126 9.33455L94.355 8.91031H93.8587V9.79239ZM101.691 22.69L100.937 23.1479L101.693 24.3926L102.446 23.1462L101.691 22.69ZM109.484 9.79239V8.91031H108.986L108.729 9.33622L109.484 9.79239ZM114.135 9.79239V37.0684H115.899V9.79239H114.135ZM115.017 36.1863H109.679V37.9504H115.017V36.1863ZM110.561 37.0684V19.3779H108.797V37.0684H110.561ZM108.924 18.9207L101.248 31.5846L102.757 32.499L110.433 19.8352L108.924 18.9207ZM102.002 31.1597H101.379V32.9239H102.002V31.1597ZM102.133 31.5835L94.4565 18.9586L92.9491 19.8752L100.625 32.5001L102.133 31.5835ZM92.8207 19.4169V37.0684H94.5849V19.4169H92.8207ZM93.7028 36.1863H88.3255V37.9504H93.7028V36.1863ZM89.2076 37.0684V9.79239H87.4435V37.0684H89.2076ZM88.3255 10.6745H93.8587V8.91031H88.3255V10.6745ZM93.1047 10.2502L100.937 23.1479L102.445 22.2322L94.6126 9.33455L93.1047 10.2502ZM102.446 23.1462L110.239 10.2486L108.729 9.33622L100.936 22.2339L102.446 23.1462ZM109.484 10.6745H115.017V8.91031H109.484V10.6745ZM125.477 31.9249H124.594V32.807H125.477V31.9249ZM136.971 31.9249H137.854V31.0428H136.971V31.9249ZM136.971 37.0684V37.9504H137.854V37.0684H136.971ZM120.099 37.0684H119.217V37.9504H120.099V37.0684ZM120.099 9.79239V8.91031H119.217V9.79239H120.099ZM136.777 9.79239H137.659V8.91031H136.777V9.79239ZM136.777 14.9359V15.8179H137.659V14.9359H136.777ZM125.477 14.9359V14.0538H124.594V14.9359H125.477ZM125.477 20.7417H124.594V21.6238H125.477V20.7417ZM135.802 20.7417H136.685V19.8597H135.802V20.7417ZM135.802 25.8073V26.6894H136.685V25.8073H135.802ZM125.477 25.8073V24.9252H124.594V25.8073H125.477ZM125.477 32.807H136.971V31.0428H125.477V32.807ZM136.089 31.9249V37.0684H137.854V31.9249H136.089ZM136.971 36.1863H120.099V37.9504H136.971V36.1863ZM120.981 37.0684V9.79239H119.217V37.0684H120.981ZM120.099 10.6745H136.777V8.91031H120.099V10.6745ZM135.895 9.79239V14.9359H137.659V9.79239H135.895ZM136.777 14.0538H125.477V15.8179H136.777V14.0538ZM124.594 14.9359V20.7417H126.359V14.9359H124.594ZM125.477 21.6238H135.802V19.8597H125.477V21.6238ZM134.92 20.7417V25.8073H136.685V20.7417H134.92ZM135.802 24.9252H125.477V26.6894H135.802V24.9252ZM124.594 25.8073V31.9249H126.359V25.8073H124.594Z" fill="white"/>
</svg>
