<svg width="28" height="26" viewBox="0 0 28 26" fill="none" xmlns="http://www.w3.org/2000/svg">
<rect x="0.2472" y="1.20716" width="26.9723" height="24.2256" rx="7.9928" stroke="#E58171" stroke-width="0.4944"/>
<path d="M21.0901 13.3659C21.0901 9.24361 17.7946 5.90393 13.733 5.90393C9.66864 5.90393 6.37585 9.24361 6.37585 13.3659C6.37585 17.0894 9.06535 20.1768 12.5834 20.7359V15.5233H10.7152V13.3663H12.5834V11.7214C12.5834 9.85176 13.6801 8.81922 15.3612 8.81922C16.1664 8.81922 17.0092 8.96472 17.0092 8.96472V10.8008H16.0799C15.1676 10.8008 14.8826 11.3768 14.8826 11.9668V13.3659H16.9228L16.5949 15.5228H14.8826V20.7355C18.3979 20.1763 21.0901 17.0889 21.0901 13.3654V13.3659Z" fill="#E58171"/>
</svg>
