<svg width="28" height="26" viewBox="0 0 28 26" fill="none" xmlns="http://www.w3.org/2000/svg">
<rect x="0.780403" y="1.20722" width="26.9723" height="24.2256" rx="7.9928" stroke="#E58171" stroke-width="0.494399"/>
<path d="M14.2641 10.8472C12.9131 10.8472 11.8107 11.9585 11.8107 13.3203C11.8107 14.682 12.9131 15.7933 14.2641 15.7933C15.615 15.7933 16.7174 14.682 16.7174 13.3203C16.7174 11.9585 15.615 10.8472 14.2641 10.8472ZM21.6223 13.3203C21.6223 12.2962 21.6315 11.2814 21.5745 10.2591C21.5174 9.07176 21.2487 8.01798 20.3874 7.14972C19.5242 6.27961 18.4806 6.0106 17.3027 5.95309C16.2868 5.89557 15.28 5.90485 14.2659 5.90485C13.25 5.90485 12.2432 5.89557 11.2291 5.95309C10.0512 6.0106 9.0058 6.28146 8.14445 7.14972C7.28126 8.01983 7.01439 9.07176 6.95734 10.2591C6.90028 11.2832 6.90948 12.298 6.90948 13.3203C6.90948 14.3425 6.90028 15.3592 6.95734 16.3814C7.01439 17.5688 7.2831 18.6226 8.14445 19.4908C9.00764 20.361 10.0512 20.63 11.2291 20.6875C12.2451 20.745 13.2518 20.7357 14.2659 20.7357C15.2819 20.7357 16.2886 20.745 17.3027 20.6875C18.4806 20.63 19.526 20.3591 20.3874 19.4908C21.2506 18.6207 21.5174 17.5688 21.5745 16.3814C21.6334 15.3592 21.6223 14.3444 21.6223 13.3203ZM14.2641 17.1254C12.1751 17.1254 10.4892 15.426 10.4892 13.3203C10.4892 11.2146 12.1751 9.51517 14.2641 9.51517C16.353 9.51517 18.0389 11.2146 18.0389 13.3203C18.0389 15.426 16.353 17.1254 14.2641 17.1254ZM18.1935 10.248C17.7058 10.248 17.3119 9.85097 17.3119 9.35932C17.3119 8.86768 17.7058 8.47066 18.1935 8.47066C18.6812 8.47066 19.0751 8.86768 19.0751 9.35932C19.0752 9.47607 19.0525 9.59169 19.0083 9.69957C18.964 9.80746 18.8991 9.90548 18.8172 9.98803C18.7353 10.0706 18.6381 10.136 18.531 10.1806C18.424 10.2252 18.3093 10.2481 18.1935 10.248Z" fill="#E58171"/>
</svg>
