<svg width="86" height="28" viewBox="0 0 86 28" fill="none" xmlns="http://www.w3.org/2000/svg">
<path d="M49.1582 4.2679C49.1582 4.53587 49.2764 4.74868 49.5128 4.90631C49.7493 5.06394 50.037 5.18611 50.3759 5.27281C50.7148 5.3595 51.0537 5.45802 51.3926 5.56837C51.7315 5.67083 52.0192 5.84816 52.2556 6.10038C52.4921 6.34471 52.6103 6.66785 52.6103 7.06981C52.6103 7.57424 52.4093 7.98408 52.0074 8.29935C51.6133 8.61461 51.101 8.77225 50.4705 8.77225C49.903 8.77225 49.4183 8.64614 49.0163 8.39393C48.6222 8.14172 48.3464 7.81463 48.1887 7.41267L48.8508 7.02253C48.9611 7.32991 49.1582 7.57424 49.4419 7.75552C49.7335 7.92891 50.0764 8.01561 50.4705 8.01561C50.8567 8.01561 51.1798 7.94073 51.4399 7.79098C51.7 7.63335 51.83 7.39296 51.83 7.06981C51.83 6.80184 51.7118 6.58904 51.4754 6.4314C51.2389 6.27377 50.9512 6.15161 50.6123 6.06491C50.2734 5.97821 49.9345 5.88363 49.5956 5.78117C49.2567 5.67083 48.969 5.49349 48.7326 5.24916C48.4961 4.99695 48.3779 4.66986 48.3779 4.2679C48.3779 3.78712 48.567 3.38516 48.9454 3.06201C49.3316 2.73886 49.8163 2.57729 50.3995 2.57729C50.8803 2.57729 51.302 2.68763 51.6645 2.90832C52.0271 3.12112 52.295 3.41274 52.4684 3.78318L51.8182 4.1615C51.5896 3.60978 51.1167 3.33393 50.3995 3.33393C50.0606 3.33393 49.769 3.41668 49.5247 3.5822C49.2803 3.73983 49.1582 3.9684 49.1582 4.2679Z" fill="#E58171"/>
<path d="M54.6464 1.30047C54.536 1.41081 54.402 1.46598 54.2444 1.46598C54.0868 1.46598 53.9528 1.41081 53.8424 1.30047C53.7321 1.19012 53.6769 1.05614 53.6769 0.898505C53.6769 0.740872 53.7321 0.606885 53.8424 0.496542C53.9528 0.386199 54.0868 0.331028 54.2444 0.331028C54.402 0.331028 54.536 0.386199 54.6464 0.496542C54.7567 0.606885 54.8119 0.740872 54.8119 0.898505C54.8119 1.05614 54.7567 1.19012 54.6464 1.30047ZM53.8543 8.63038V2.71916H54.6345V8.63038H53.8543Z" fill="#E58171"/>
<path d="M62.5917 2.57729C63.2537 2.57729 63.7857 2.79009 64.1877 3.2157C64.5976 3.64131 64.8025 4.21667 64.8025 4.94178V8.63038H64.0222V4.94178C64.0222 4.42947 63.8882 4.03539 63.6202 3.75953C63.3601 3.4758 63.0133 3.33393 62.5799 3.33393C62.0912 3.33393 61.6932 3.49944 61.3858 3.83047C61.0863 4.15361 60.9365 4.66198 60.9365 5.35556V8.63038H60.1563V4.94178C60.1563 4.42159 60.0302 4.02357 59.7779 3.74771C59.5336 3.47185 59.1986 3.33393 58.773 3.33393C58.3001 3.33393 57.8982 3.49944 57.5671 3.83047C57.2361 4.1615 57.0706 4.66986 57.0706 5.35556V8.63038H56.2903V2.71916H57.0706V3.5822C57.4962 2.91226 58.0992 2.57729 58.8794 2.57729C59.7306 2.57729 60.3297 2.9359 60.6764 3.65313C61.1021 2.9359 61.7405 2.57729 62.5917 2.57729Z" fill="#E58171"/>
<path d="M69.4801 2.57729C70.3234 2.57729 71.0407 2.87679 71.6318 3.4758C72.2308 4.0748 72.5303 4.80779 72.5303 5.67477C72.5303 6.54175 72.2308 7.27474 71.6318 7.87374C71.0407 8.47274 70.3234 8.77225 69.4801 8.77225C68.4318 8.77225 67.6358 8.33876 67.092 7.47178V10.9949H66.3117V2.71916H67.092V3.87776C67.6358 3.01078 68.4318 2.57729 69.4801 2.57729ZM67.7658 7.34173C68.2151 7.79098 68.7668 8.01561 69.421 8.01561C70.0752 8.01561 70.6269 7.79098 71.0761 7.34173C71.5254 6.8846 71.75 6.32894 71.75 5.67477C71.75 5.02059 71.5254 4.46888 71.0761 4.01963C70.6269 3.56249 70.0752 3.33393 69.421 3.33393C68.7668 3.33393 68.2151 3.56249 67.7658 4.01963C67.3166 4.46888 67.092 5.02059 67.092 5.67477C67.092 6.32894 67.3166 6.8846 67.7658 7.34173Z" fill="#E58171"/>
<path d="M73.8277 8.63038V0H74.608V8.63038H73.8277Z" fill="#E58171"/>
<path d="M78.9948 2.57729C79.8696 2.57729 80.575 2.88861 81.111 3.51126C81.6548 4.12603 81.9267 4.85508 81.9267 5.69841C81.9267 5.78511 81.9188 5.90728 81.9031 6.06491H76.713C76.7918 6.66391 77.0441 7.14075 77.4697 7.49542C77.9031 7.84221 78.4352 8.01561 79.0657 8.01561C79.5149 8.01561 79.9011 7.92497 80.2243 7.74369C80.5553 7.55453 80.8036 7.3102 80.9691 7.0107L81.6548 7.41267C81.3947 7.83039 81.04 8.16142 80.5908 8.40575C80.1415 8.65008 79.6292 8.77225 79.0539 8.77225C78.1238 8.77225 77.3672 8.48063 76.784 7.89739C76.2007 7.31415 75.9091 6.57327 75.9091 5.67477C75.9091 4.79203 76.1968 4.05509 76.7721 3.46397C77.3475 2.87285 78.0884 2.57729 78.9948 2.57729ZM78.9948 3.33393C78.38 3.33393 77.8637 3.51914 77.446 3.88958C77.0362 4.25214 76.7918 4.72503 76.713 5.30827H81.1228C81.044 4.68562 80.8036 4.2009 80.4016 3.85411C79.9997 3.50732 79.5307 3.33393 78.9948 3.33393Z" fill="#E58171"/>
<path d="M53.3197 22.3696H52.2793L49.3237 19.5204V22.3696H48.5434V14.0939H49.3237V19.0712L52.1374 16.4584H53.2014L50.1512 19.2958L53.3197 22.3696Z" fill="#E58171"/>
<path d="M55.1774 15.0397C55.0671 15.1501 54.9331 15.2052 54.7755 15.2052C54.6178 15.2052 54.4839 15.1501 54.3735 15.0397C54.2632 14.9294 54.208 14.7954 54.208 14.6378C54.208 14.4801 54.2632 14.3461 54.3735 14.2358C54.4839 14.1255 54.6178 14.0703 54.7755 14.0703C54.9331 14.0703 55.0671 14.1255 55.1774 14.2358C55.2878 14.3461 55.343 14.4801 55.343 14.6378C55.343 14.7954 55.2878 14.9294 55.1774 15.0397ZM54.3853 22.3696V16.4584H55.1656V22.3696H54.3853Z" fill="#E58171"/>
<path d="M59.9544 17.2151H58.2519V20.7973C58.2519 21.1204 58.315 21.3529 58.4411 21.4948C58.5672 21.6288 58.7563 21.6997 59.0086 21.7076C59.2608 21.7076 59.576 21.6997 59.9544 21.6839V22.3696C59.1268 22.4957 58.5041 22.4366 58.0864 22.1923C57.6766 21.948 57.4716 21.483 57.4716 20.7973V17.2151H56.2303V16.4584H57.4716V15.0397L58.2519 14.8033V16.4584H59.9544V17.2151Z" fill="#E58171"/>
<path d="M63.6515 22.5115C62.7609 22.5115 62.02 22.2159 61.4289 21.6248C60.8378 21.0258 60.5422 20.2889 60.5422 19.414C60.5422 18.5392 60.8378 17.8062 61.4289 17.2151C62.02 16.6161 62.7609 16.3166 63.6515 16.3166C64.2348 16.3166 64.7589 16.4584 65.2239 16.7422C65.6889 17.018 66.0279 17.3924 66.2407 17.8653L65.6022 18.2318C65.4446 17.8771 65.1885 17.5973 64.8338 17.3924C64.487 17.1796 64.0929 17.0732 63.6515 17.0732C62.9974 17.0732 62.4457 17.3018 61.9964 17.7589C61.5471 18.2081 61.3225 18.7599 61.3225 19.414C61.3225 20.0682 61.5471 20.6239 61.9964 21.081C62.4457 21.5302 62.9974 21.7549 63.6515 21.7549C64.0929 21.7549 64.487 21.6524 64.8338 21.4475C65.1806 21.2347 65.4525 20.9509 65.6495 20.5963L66.2998 20.9746C66.0554 21.4475 65.6968 21.8219 65.2239 22.0977C64.751 22.3736 64.2269 22.5115 63.6515 22.5115Z" fill="#E58171"/>
<path d="M70.1865 16.3166C70.9037 16.3166 71.4672 16.5372 71.8771 16.9786C72.2948 17.4121 72.5037 17.9993 72.5037 18.7401V22.3696H71.7234V18.7401C71.7234 18.2121 71.5815 17.8022 71.2978 17.5106C71.0219 17.219 70.6279 17.0732 70.1155 17.0732C69.5481 17.0732 69.087 17.2545 68.7323 17.617C68.3777 17.9717 68.2003 18.5234 68.2003 19.2722V22.3696H67.42V14.0939H68.2003V17.3806C68.6417 16.6712 69.3037 16.3166 70.1865 16.3166Z" fill="#E58171"/>
<path d="M76.7434 16.3166C77.6183 16.3166 78.3237 16.6279 78.8596 17.2505C79.4035 17.8653 79.6754 18.5943 79.6754 19.4377C79.6754 19.5244 79.6675 19.6465 79.6517 19.8042H74.4617C74.5405 20.4032 74.7927 20.88 75.2183 21.2347C75.6518 21.5815 76.1838 21.7549 76.8143 21.7549C77.2636 21.7549 77.6498 21.6642 77.9729 21.483C78.304 21.2938 78.5522 21.0495 78.7178 20.75L79.4035 21.1519C79.1434 21.5697 78.7887 21.9007 78.3394 22.145C77.8902 22.3893 77.3779 22.5115 76.8025 22.5115C75.8725 22.5115 75.1159 22.2199 74.5326 21.6366C73.9494 21.0534 73.6578 20.3125 73.6578 19.414C73.6578 18.5313 73.9454 17.7944 74.5208 17.2032C75.0961 16.6121 75.837 16.3166 76.7434 16.3166ZM76.7434 17.0732C76.1286 17.0732 75.6124 17.2584 75.1947 17.6288C74.7848 17.9914 74.5405 18.4643 74.4617 19.0475H78.8714C78.7926 18.4249 78.5522 17.9402 78.1503 17.5934C77.7483 17.2466 77.2794 17.0732 76.7434 17.0732Z" fill="#E58171"/>
<path d="M83.683 16.3166C84.4002 16.3166 84.9638 16.5372 85.3736 16.9786C85.7913 17.4121 86.0002 17.9993 86.0002 18.7401V22.3696H85.2199V18.7401C85.2199 18.2121 85.078 17.8022 84.7943 17.5106C84.5184 17.219 84.1244 17.0732 83.6121 17.0732C83.0446 17.0732 82.5835 17.2545 82.2288 17.617C81.8742 17.9717 81.6968 18.5234 81.6968 19.2722V22.3696H80.9165V16.4584H81.6968V17.3806C82.1382 16.6712 82.8003 16.3166 83.683 16.3166Z" fill="#E58171"/>
<path fill-rule="evenodd" clip-rule="evenodd" d="M3.47824 9.37115C3.47824 18.5852 10.9477 26.0546 20.1617 26.0546C29.3758 26.0546 36.8452 18.5852 36.8452 9.37115H37.8304C37.8304 19.1293 29.9199 27.0398 20.1617 27.0398C10.4036 27.0398 2.49304 19.1293 2.49304 9.37115H3.47824Z" fill="#E58171"/>
<path d="M40.2209 5.7733C40.2209 8.45415 38.8835 10.6274 37.2337 10.6274C35.584 10.6274 34.2466 8.45415 34.2466 5.7733C34.2466 3.09245 35.7402 0.919189 37.2337 0.919189C38.7273 0.919189 40.2209 3.09245 40.2209 5.7733Z" fill="#E58171"/>
<path fill-rule="evenodd" clip-rule="evenodd" d="M3.57297 1.37717L3.54622 6.09056C3.54536 6.24162 3.65962 6.3685 3.80993 6.38343C3.97076 6.3994 4.11409 6.28198 4.13006 6.12115L4.5305 2.08951C5.36251 2.94056 5.97429 4.29546 5.97429 6.01122C5.97429 8.69207 4.6369 10.8653 2.98714 10.8653C1.33739 10.8653 0 8.69207 0 6.01122C0 4.34402 0.577636 3.01754 1.37368 2.16298L1.76682 6.12115C1.78279 6.28198 1.92612 6.3994 2.08695 6.38343C2.23727 6.3685 2.35152 6.24162 2.35066 6.09056L2.32414 1.41738C2.54184 1.30013 2.76449 1.21277 2.98714 1.1571C3.18355 1.20621 3.37996 1.27998 3.57297 1.37717Z" fill="#E58171"/>
<path fill-rule="evenodd" clip-rule="evenodd" d="M36.8172 16.1328C36.626 15.9919 36.445 15.8585 36.2824 15.7284L36.8978 14.9591C37.0148 15.0527 37.1613 15.1602 37.3273 15.2821C37.9514 15.7402 38.8524 16.4016 39.5074 17.2923C40.3777 18.4759 40.8473 20.081 40.0385 22.2378C39.5864 23.4433 38.807 24.2015 37.8544 24.6215C36.9197 25.0337 35.8514 25.1064 34.8196 25.0188C32.8964 24.8556 30.9448 24.118 29.8996 23.723C29.8273 23.6957 29.7594 23.67 29.696 23.6463L30.042 22.7238C30.1033 22.7468 30.168 22.7712 30.236 22.7969C31.2911 23.1949 33.1233 23.8862 34.9029 24.0372C35.8464 24.1172 36.7304 24.0404 37.4569 23.7201C38.1656 23.4076 38.7565 22.8504 39.116 21.8919C39.8008 20.0659 39.3991 18.8082 38.7136 17.8759C38.1588 17.1214 37.4348 16.5879 36.8172 16.1328Z" fill="#E58171"/>
<path fill-rule="evenodd" clip-rule="evenodd" d="M35.8599 20.1971C35.2776 19.7992 34.6443 19.4067 34.2883 19.2006L34.5351 18.7743C34.9017 18.9865 35.5454 19.3856 36.1378 19.7903C36.434 19.9927 36.7203 20.1985 36.9539 20.3845C37.1792 20.5639 37.381 20.7444 37.4832 20.8952L37.0754 21.1715C37.0207 21.0908 36.876 20.9521 36.6471 20.7699C36.4266 20.5943 36.1511 20.396 35.8599 20.1971Z" fill="#E58171"/>
</svg>
