<svg width="29" height="26" viewBox="0 0 29 26" fill="none" xmlns="http://www.w3.org/2000/svg">
<rect x="1.01405" y="1.20722" width="26.9723" height="24.2256" rx="7.9928" stroke="#E58171" stroke-width="0.4944"/>
<path d="M14.5 5.90399C10.4369 5.90399 7.14282 9.22424 7.14282 13.32C7.14282 17.4157 10.4369 20.736 14.5 20.736C18.5631 20.736 21.8571 17.4157 21.8571 13.32C21.8571 9.22424 18.5631 5.90399 14.5 5.90399ZM18.2319 14.1221C18.5748 14.4597 18.9376 14.7774 19.2454 15.1499C19.3818 15.3147 19.5103 15.4851 19.6082 15.6767C19.7479 15.95 19.6217 16.2497 19.3791 16.2659L17.8718 16.2656C17.4826 16.2981 17.1728 16.1398 16.9116 15.8716C16.7031 15.6578 16.5097 15.4294 16.3089 15.2083C16.2268 15.1176 16.1404 15.0322 16.0375 14.9649C15.832 14.8302 15.6535 14.8715 15.5358 15.0878C15.4158 15.308 15.3884 15.552 15.377 15.797C15.3605 16.1553 15.2534 16.2489 14.8968 16.2658C14.1348 16.3017 13.4118 16.1852 12.7398 15.798C12.147 15.4564 11.6882 14.9743 11.2884 14.4286C10.5099 13.3646 9.91362 12.1969 9.37789 10.9956C9.25731 10.725 9.34552 10.5803 9.64162 10.5747C10.1335 10.5651 10.6255 10.5663 11.1174 10.5742C11.3176 10.5774 11.4501 10.6929 11.527 10.8833C11.7928 11.5426 12.1187 12.1698 12.5271 12.7516C12.636 12.9065 12.747 13.061 12.9053 13.1704C13.0799 13.2912 13.2129 13.2513 13.2953 13.0548C13.348 12.9299 13.3707 12.7964 13.3821 12.6625C13.4213 12.2041 13.4259 11.7459 13.3582 11.2893C13.316 11.0036 13.1566 10.8191 12.8741 10.7651C12.7302 10.7376 12.7513 10.6839 12.8213 10.6011C12.9427 10.4578 13.0565 10.3692 13.284 10.3692L14.9869 10.3689C15.2553 10.422 15.3155 10.5434 15.352 10.8159L15.3535 12.7235C15.3503 12.829 15.406 13.1416 15.5939 13.2106C15.7444 13.2607 15.8437 13.139 15.9338 13.0429C16.3421 12.6061 16.6331 12.0905 16.8937 11.5568C17.0087 11.3215 17.1079 11.078 17.2042 10.834C17.2759 10.6536 17.3873 10.5648 17.5893 10.5678L19.2292 10.5698C19.2775 10.5698 19.3266 10.5703 19.3744 10.5786C19.6508 10.6263 19.7265 10.7461 19.641 11.0179C19.5064 11.4449 19.245 11.8005 18.9894 12.1571C18.7154 12.5389 18.4232 12.9073 18.152 13.2907C17.9027 13.6412 17.9224 13.8177 18.2319 14.1221Z" fill="#E58171"/>
</svg>
