<svg width="350" height="120" viewBox="0 0 350 120" fill="none" xmlns="http://www.w3.org/2000/svg">
<rect x="339" y="102" width="11" height="7" fill="white"/>
<rect y="1" width="322" height="108" fill="white"/>
<mask id="mask0" mask-type="alpha" maskUnits="userSpaceOnUse" x="11" y="1" width="339" height="109">
<rect x="11" y="1" width="339" height="109" fill="#C4C4C4"/>
</mask>
<g mask="url(#mask0)">
<g filter="url(#filter0_d)">
<path fill-rule="evenodd" clip-rule="evenodd" d="M62 11C49.8497 11 40 20.8497 40 33V85.5C40 98.4787 29.4787 109 16.5 109V109C3.52131 109 -7 119.521 -7 132.5V1210C-7 1230.43 9.56546 1247 30 1247H349C369.435 1247 386 1230.43 386 1210V146C386 125.565 369.435 109 349 109H347C326.565 109 310 92.4345 310 72V33C310 20.8497 300.15 11 288 11H62Z" fill="white"/>
</g>
</g>
<rect x="11" y="110" width="334" height="10" fill="white"/>
<defs>
<filter id="filter0_d" x="-17" y="3" width="413" height="1256" filterUnits="userSpaceOnUse" color-interpolation-filters="sRGB">
<feFlood flood-opacity="0" result="BackgroundImageFix"/>
<feColorMatrix in="SourceAlpha" type="matrix" values="0 0 0 0 0 0 0 0 0 0 0 0 0 0 0 0 0 0 127 0"/>
<feOffset dy="2"/>
<feGaussianBlur stdDeviation="5"/>
<feColorMatrix type="matrix" values="0 0 0 0 0 0 0 0 0 0 0 0 0 0 0 0 0 0 0.25 0"/>
<feBlend mode="normal" in2="BackgroundImageFix" result="effect1_dropShadow"/>
<feBlend mode="normal" in="SourceGraphic" in2="effect1_dropShadow" result="shape"/>
</filter>
</defs>
</svg>
