<svg width="350" height="120" viewBox="0 0 350 120" fill="none" xmlns="http://www.w3.org/2000/svg">
<rect width="11" height="7" transform="matrix(-1 0 0 1 11 102)" fill="white"/>
<rect width="322" height="108" transform="matrix(-1 0 0 1 350 1)" fill="white"/>
<mask id="mask0" mask-type="alpha" maskUnits="userSpaceOnUse" x="0" y="1" width="339" height="109">
<rect width="339" height="109" transform="matrix(-1 0 0 1 339 1)" fill="#C4C4C4"/>
</mask>
<g mask="url(#mask0)">
<g filter="url(#filter0_d)">
<path fill-rule="evenodd" clip-rule="evenodd" d="M288 11C300.15 11 310 20.8497 310 33V85.5C310 98.4787 320.521 109 333.5 109V109C346.479 109 357 119.521 357 132.5V1210C357 1230.43 340.435 1247 320 1247H1C-19.4345 1247 -36 1230.43 -36 1210V146C-36 125.565 -19.4345 109 0.999999 109H3C23.4345 109 40 92.4345 40 72V33C40 20.8497 49.8497 11 62 11H288Z" fill="white"/>
</g>
</g>
<rect width="334" height="10" transform="matrix(-1 0 0 1 339 110)" fill="white"/>
<defs>
<filter id="filter0_d" x="-46" y="3" width="413" height="1256" filterUnits="userSpaceOnUse" color-interpolation-filters="sRGB">
<feFlood flood-opacity="0" result="BackgroundImageFix"/>
<feColorMatrix in="SourceAlpha" type="matrix" values="0 0 0 0 0 0 0 0 0 0 0 0 0 0 0 0 0 0 127 0"/>
<feOffset dy="2"/>
<feGaussianBlur stdDeviation="5"/>
<feColorMatrix type="matrix" values="0 0 0 0 0 0 0 0 0 0 0 0 0 0 0 0 0 0 0.25 0"/>
<feBlend mode="normal" in2="BackgroundImageFix" result="effect1_dropShadow"/>
<feBlend mode="normal" in="SourceGraphic" in2="effect1_dropShadow" result="shape"/>
</filter>
</defs>
</svg>
