<svg width="903" height="350" viewBox="0 0 903 350" fill="none" xmlns="http://www.w3.org/2000/svg">
<g filter="url(#filter0_d)">
<path d="M181.545 220.589L187.552 258.516L165.329 262.036L170.914 297.297L129.727 303.82L124.143 268.56L26.0652 284.093L20.0581 246.166L67.8381 101.005L111.691 94.0589L64.2078 239.174L118.136 230.632L110.345 181.445L151.532 174.922L159.322 224.109L181.545 220.589Z" fill="url(#paint0_linear)"/>
<path d="M872.507 244.878L866.5 282.806L844.277 279.286L838.692 314.546L797.505 308.023L803.09 272.763L705.013 257.229L711.02 219.301L801.319 96.0093L845.172 102.955L755.169 226.294L809.097 234.835L816.888 185.648L858.074 192.172L850.284 241.359L872.507 244.878Z" fill="url(#paint1_linear)"/>
<path d="M448.5 234.2C422.3 234.2 401.7 224.3 386.7 204.5C371.9 184.5 364.5 158 364.5 125C364.5 92 371.9 65.6001 386.7 45.8001C401.7 25.8001 422.3 15.8 448.5 15.8C474.9 15.8 495.5 25.8001 510.3 45.8001C525.1 65.6001 532.5 92 532.5 125C532.5 158 525.1 184.5 510.3 204.5C495.5 224.3 474.9 234.2 448.5 234.2ZM416.7 176.3C423.9 187.9 434.5 193.7 448.5 193.7C462.5 193.7 473.1 187.8 480.3 176C487.7 164.2 491.4 147.2 491.4 125C491.4 102.6 487.7 85.5001 480.3 73.7001C473.1 61.9001 462.5 56 448.5 56C434.5 56 423.9 61.9001 416.7 73.7001C409.5 85.5001 405.9 102.6 405.9 125C405.9 147.4 409.5 164.5 416.7 176.3Z" fill="url(#paint2_linear)"/>
</g>
<defs>
<filter id="filter0_d" x="0.0581055" y="0.800049" width="902.449" height="348.746" filterUnits="userSpaceOnUse" color-interpolation-filters="sRGB">
<feFlood flood-opacity="0" result="BackgroundImageFix"/>
<feColorMatrix in="SourceAlpha" type="matrix" values="0 0 0 0 0 0 0 0 0 0 0 0 0 0 0 0 0 0 127 0"/>
<feOffset dx="5" dy="10"/>
<feGaussianBlur stdDeviation="12.5"/>
<feColorMatrix type="matrix" values="0 0 0 0 0 0 0 0 0 0 0 0 0 0 0 0 0 0 0.25 0"/>
<feBlend mode="normal" in2="BackgroundImageFix" result="effect1_dropShadow"/>
<feBlend mode="normal" in="SourceGraphic" in2="effect1_dropShadow" result="shape"/>
</filter>
<linearGradient id="paint0_linear" x1="20.0581" y1="15.8" x2="141.88" y2="498.818" gradientUnits="userSpaceOnUse">
<stop stop-color="#FFA091"/>
<stop offset="1" stop-color="#F47965"/>
</linearGradient>
<linearGradient id="paint1_linear" x1="20.0581" y1="15.8" x2="141.88" y2="498.818" gradientUnits="userSpaceOnUse">
<stop stop-color="#FFA091"/>
<stop offset="1" stop-color="#F47965"/>
</linearGradient>
<linearGradient id="paint2_linear" x1="20.0581" y1="15.8" x2="141.88" y2="498.818" gradientUnits="userSpaceOnUse">
<stop stop-color="#FFA091"/>
<stop offset="1" stop-color="#F47965"/>
</linearGradient>
</defs>
</svg>
