<svg width="72" height="29" viewBox="0 0 72 29" fill="none" xmlns="http://www.w3.org/2000/svg">
<path d="M13.5012 3.7398C12.6746 4.71934 11.3521 5.49194 10.0295 5.38157C9.86417 4.05711 10.5117 2.64988 11.2694 1.78071C12.096 0.773574 13.5426 0.0561621 14.7136 0.000976562C14.8514 1.38061 14.3141 2.73266 13.5012 3.7398ZM14.6998 5.6437C12.7848 5.53333 11.1454 6.73361 10.2361 6.73361C9.3131 6.73361 7.92164 5.69888 6.4062 5.72648C4.43612 5.75407 2.60381 6.87158 1.59811 8.65131C-0.468411 12.2108 1.06081 17.481 3.05844 20.3782C4.03659 21.8131 5.20762 23.3858 6.75062 23.3307C8.21096 23.2755 8.78958 22.3787 10.553 22.3787C12.3302 22.3787 12.84 23.3307 14.383 23.3031C15.9811 23.2755 16.9868 21.8682 17.9649 20.4334C19.0808 18.8055 19.5355 17.2189 19.563 17.1361C19.5355 17.1085 16.477 15.9358 16.4495 12.4039C16.4219 9.4515 18.8604 8.04427 18.9706 7.96149C17.5929 5.91963 15.4438 5.69888 14.6998 5.6437ZM25.7626 1.64275V23.1513H29.0965V15.7978H33.7118C37.9275 15.7978 40.8895 12.9006 40.8895 8.7065C40.8895 4.51239 37.9826 1.64275 33.822 1.64275H25.7626ZM29.0965 4.45721H32.9403C35.8334 4.45721 37.4866 6.0024 37.4866 8.72029C37.4866 11.4382 35.8334 12.9972 32.9265 12.9972H29.0965V4.45721ZM46.9788 23.3169C49.0729 23.3169 51.0154 22.2545 51.8971 20.5714H51.966V23.1513H55.052V12.4453C55.052 9.34113 52.5722 7.34065 48.756 7.34065C45.2154 7.34065 42.5978 9.36872 42.5014 12.1556H45.5047C45.7527 10.8311 46.9788 9.96197 48.6596 9.96197C50.6985 9.96197 51.842 10.9139 51.842 12.6661V13.8525L47.6814 14.1009C43.8101 14.3354 41.7161 15.922 41.7161 18.6813C41.7161 21.4682 43.879 23.3169 46.9788 23.3169ZM47.8743 20.7645C46.0971 20.7645 44.9674 19.9092 44.9674 18.5985C44.9674 17.2465 46.0558 16.4601 48.1361 16.3359L51.842 16.1014V17.3154C51.842 19.3297 50.1337 20.7645 47.8743 20.7645ZM59.1712 29.001C62.4226 29.001 63.9518 27.7593 65.2881 23.9929L71.1433 7.5476H67.7542L63.8278 20.2541H63.7589L59.8325 7.5476H56.347L61.9955 23.2065L61.6924 24.1584C61.1827 25.7726 60.356 26.3935 58.8819 26.3935C58.6202 26.3935 58.1104 26.3659 57.9038 26.3383V28.9182C58.0967 28.9734 58.9233 29.001 59.1712 29.001Z" fill="#101828"/>
</svg>
