<svg width="9" height="6" viewBox="0 0 9 6" fill="none" xmlns="http://www.w3.org/2000/svg">
<path d="M0.00111853 0.751339C0.000852239 0.576095 0.0483222 0.406264 0.135289 0.271326C0.18426 0.19538 0.244405 0.132602 0.312276 0.0865872C0.380147 0.040572 0.45441 0.012224 0.530816 0.00316689C0.607221 -0.00589024 0.684265 0.00452156 0.757536 0.0338057C0.830806 0.0630899 0.898864 0.11067 0.95781 0.173824L4.08456 3.53391L7.21714 0.293828C7.27681 0.231527 7.34547 0.185002 7.41917 0.156927C7.49287 0.128853 7.57016 0.119782 7.6466 0.130237C7.72303 0.140692 7.79711 0.170465 7.86456 0.217847C7.93202 0.265228 7.99153 0.329284 8.03967 0.406331C8.09277 0.483932 8.13283 0.574809 8.15732 0.673259C8.18182 0.771708 8.19022 0.875605 8.182 0.978427C8.17379 1.08125 8.14913 1.18078 8.10958 1.27077C8.07003 1.36076 8.01643 1.43926 7.95216 1.50136L4.45207 5.12396C4.34769 5.23427 4.21676 5.29458 4.08164 5.29458C3.94653 5.29458 3.8156 5.23427 3.71122 5.12396L0.211124 1.37386C0.140529 1.29862 0.0847236 1.20304 0.0482359 1.09488C0.0117481 0.986718 -0.00439447 0.869022 0.00111853 0.751339Z" fill="black"/>
</svg>
