<svg xmlns="http://www.w3.org/2000/svg" width="13" height="8" viewBox="0 0 13 8"><g><g transform="rotate(90 1612.62 4746.91)"><path d="M3.52 10.79c-.245.001-.482-.067-.67-.192a.909.909 0 0 1-.259-.255.682.682 0 0 1-.074-.64.806.806 0 0 1 .196-.29l4.696-4.5L2.881.403a.8.8 0 0 1-.192-.29.68.68 0 0 1-.037-.328.726.726 0 0 1 .122-.314.918.918 0 0 1 .264-.252c.108-.076.235-.134.373-.17a1.296 1.296 0 0 1 .835.07c.126.057.236.134.322.226l5.063 5.039c.155.15.239.338.239.533a.745.745 0 0 1-.239.533l-5.24 5.038a1.06 1.06 0 0 1-.39.235 1.28 1.28 0 0 1-.48.068z"/></g></g></svg>