<svg xmlns="http://www.w3.org/2000/svg" width="65" height="65" viewBox="0 0 65 65"><defs><clipPath id="vthia"><path fill="#fff" d="M45.361 61.461c-.929.987-1.763 1.974-2.73 2.827-.417.38-1.08.665-1.649.665-3.411.056-6.823.075-10.235-.02-4.758-.132-9.212-1.499-13.439-3.662-4.075-2.087-7.506-4.99-10.33-8.558-3.052-3.89-5.156-8.235-6.198-13.112-1.062-4.896-1.043-9.773.076-14.65C2.334 18.425 5.65 12.94 10.56 8.425c3.223-2.98 6.938-5.238 11.108-6.66C23.696 1.06 25.762.377 27.96.301c2.217-.057 4.454-.38 6.672-.285 2.047.095 4.113.494 6.103.987 4.246 1.082 8.094 2.998 11.6 5.674 4.89 3.72 8.378 8.482 10.52 14.194 1.194 3.15 1.971 6.433 2.01 9.848.037 3.378.15 6.756.132 10.133 0 .55-.322 1.196-.701 1.632-.664.835-1.517 1.518-2.218 2.334-.19.228-.266.911-.133 1.006 1.725 1.157.777 2.524.266 3.72-1.706 3.946-4.303 7.229-7.734 9.81-1.971 1.48-4.113 2.656-6.463 3.434-.683.228-1.176.21-1.63-.398-.209-.285-.57-.513-1.024-.93z"/></clipPath></defs><g><g><path fill="#295d8d" fill-opacity=".2" d="M45.361 61.461c-.929.987-1.763 1.974-2.73 2.827-.417.38-1.08.665-1.649.665-3.411.056-6.823.075-10.235-.02-4.758-.132-9.212-1.499-13.439-3.662-4.075-2.087-7.506-4.99-10.33-8.558-3.052-3.89-5.156-8.235-6.198-13.112-1.062-4.896-1.043-9.773.076-14.65C2.334 18.425 5.65 12.94 10.56 8.425c3.223-2.98 6.938-5.238 11.108-6.66C23.696 1.06 25.762.377 27.96.301c2.217-.057 4.454-.38 6.672-.285 2.047.095 4.113.494 6.103.987 4.246 1.082 8.094 2.998 11.6 5.674 4.89 3.72 8.378 8.482 10.52 14.194 1.194 3.15 1.971 6.433 2.01 9.848.037 3.378.15 6.756.132 10.133 0 .55-.322 1.196-.701 1.632-.664.835-1.517 1.518-2.218 2.334-.19.228-.266.911-.133 1.006 1.725 1.157.777 2.524.266 3.72-1.706 3.946-4.303 7.229-7.734 9.81-1.971 1.48-4.113 2.656-6.463 3.434-.683.228-1.176.21-1.63-.398-.209-.285-.57-.513-1.024-.93z"/><path fill="none" stroke="#18a4e1" stroke-miterlimit="20" stroke-width="4" d="M45.361 61.461c-.929.987-1.763 1.974-2.73 2.827-.417.38-1.08.665-1.649.665-3.411.056-6.823.075-10.235-.02-4.758-.132-9.212-1.499-13.439-3.662-4.075-2.087-7.506-4.99-10.33-8.558-3.052-3.89-5.156-8.235-6.198-13.112-1.062-4.896-1.043-9.773.076-14.65C2.334 18.425 5.65 12.94 10.56 8.425c3.223-2.98 6.938-5.238 11.108-6.66C23.696 1.06 25.762.377 27.96.301c2.217-.057 4.454-.38 6.672-.285 2.047.095 4.113.494 6.103.987 4.246 1.082 8.094 2.998 11.6 5.674 4.89 3.72 8.378 8.482 10.52 14.194 1.194 3.15 1.971 6.433 2.01 9.848.037 3.378.15 6.756.132 10.133 0 .55-.322 1.196-.701 1.632-.664.835-1.517 1.518-2.218 2.334-.19.228-.266.911-.133 1.006 1.725 1.157.777 2.524.266 3.72-1.706 3.946-4.303 7.229-7.734 9.81-1.971 1.48-4.113 2.656-6.463 3.434-.683.228-1.176.21-1.63-.398-.209-.285-.57-.513-1.024-.93z" clip-path="url(&quot;#vthia&quot;)"/></g></g></svg>