<svg width="47" height="56" viewBox="0 0 47 56" fill="none" xmlns="http://www.w3.org/2000/svg">
<path d="M24.561 51.5841C24.561 52.085 24.9671 52.4911 25.468 52.4911H41.7944C44.2979 52.4881 46.3265 50.4594 46.3295 47.956V5.32589C46.3265 2.82245 44.2979 0.79377 41.7944 0.790771H13.6767C11.1733 0.79377 9.1446 2.82245 9.1416 5.32589V25.2804C9.1416 25.7813 9.54769 26.1874 10.0486 26.1874C10.5496 26.1874 10.9556 25.7813 10.9556 25.2804V5.32589C10.9556 3.82308 12.1739 2.60482 13.6767 2.60482H41.7944C43.2972 2.60482 44.5155 3.82308 44.5155 5.32589V47.956C44.5155 49.4588 43.2972 50.677 41.7944 50.677H25.468C24.9671 50.677 24.561 51.0831 24.561 51.5841Z" fill="url(#paint0_linear)"/>
<path d="M41.7915 7.13949C41.7915 6.13762 40.9794 5.32544 39.9775 5.32544H15.4879C14.486 5.32544 13.6738 6.13762 13.6738 7.13949V15.3027C13.6738 16.3046 14.486 17.1167 15.4879 17.1167H39.9775C40.9794 17.1167 41.7915 16.3046 41.7915 15.3027V7.13949ZM18.8293 15.3027L23.2828 7.13949H26.6588L22.2053 15.3027H18.8293ZM15.4879 7.13949H21.2166L16.7631 15.3027H15.4879V7.13949ZM39.9775 15.3027H24.2715L28.725 7.13949H39.9775V15.3027Z" fill="url(#paint1_linear)"/>
<path d="M11.2255 55.2122C12.0683 55.2116 12.9011 55.0294 13.6672 54.678C13.9839 54.8241 14.3133 54.941 14.6513 55.0272C19.015 56.1528 23.9937 51.975 25.7352 45.7084C26.7782 41.9615 26.4816 38.1302 24.9406 35.459C24.1058 33.8936 22.6656 32.7389 20.9561 32.2645C19.0627 31.8315 17.0746 32.2247 15.4885 33.3457C15.2389 33.5042 14.9688 33.6281 14.6858 33.7139C15.2627 29.8954 17.8967 28.9067 18.0318 28.8595C18.4898 28.6878 18.7292 28.1838 18.5728 27.7203C18.4164 27.2568 17.9207 27.0008 17.4522 27.1416C16.2008 27.6453 15.1261 28.5074 14.3629 29.6196C14.259 29.4953 14.1482 29.3769 14.0309 29.265C13.1352 28.4594 12.0488 27.8956 10.8745 27.6269C9.21102 27.216 6.46546 27.6106 4.45549 28.0169C3.8867 28.1319 3.43357 28.5617 3.28875 29.1236C3.14392 29.6855 3.33285 30.2808 3.77523 30.6564C4.42919 31.2124 5.19744 31.8246 5.98927 32.3842C4.4475 32.9246 3.16303 34.0211 2.38748 35.459C0.845544 38.1275 0.549855 41.9588 1.59384 45.7084C3.15301 51.2839 7.2582 55.2122 11.2255 55.2122ZM10.4437 29.3902C11.3106 29.5858 12.115 29.9949 12.7838 30.5802C13.1947 30.972 13.3978 31.382 13.328 31.674C13.2582 31.9661 12.8863 32.2328 12.3393 32.3879C11.4743 32.5931 10.5717 32.5791 9.71351 32.3471C8.13516 31.7314 6.68568 30.8264 5.43961 29.6786C7.07543 29.2843 8.76859 29.1857 10.4391 29.3874L10.4437 29.3902ZM3.95935 36.3661C4.55319 35.2265 5.58755 34.3796 6.82192 34.0223C7.15877 33.9355 7.50533 33.8919 7.8532 33.8926C8.92654 33.9234 9.96827 34.2628 10.8536 34.8704C11.4334 35.2395 12.0809 35.4892 12.7584 35.6051V37.0618C12.7584 37.5627 13.1645 37.9688 13.6654 37.9688C14.1663 37.9688 14.5724 37.5627 14.5724 37.0618V35.6051C15.2501 35.4901 15.8978 35.2403 16.4772 34.8704C17.6403 34.0287 19.1061 33.7204 20.5098 34.0223C21.7439 34.3797 22.7779 35.2266 23.3715 36.3661C24.6739 38.6218 24.9052 41.9307 23.9891 45.2177C22.508 50.5392 18.5234 54.1573 15.1003 53.2666C14.7544 53.1784 14.4219 53.0442 14.1117 52.8675C13.8352 52.7117 13.4974 52.7117 13.221 52.8675C12.9095 53.0447 12.5758 53.1795 12.2287 53.2684C8.81283 54.1519 4.82737 50.5401 3.3453 45.2177C2.42739 41.9307 2.65687 38.6218 3.95935 36.3661Z" fill="url(#paint2_linear)"/>
<path d="M6.83672 44.2444C6.16052 42.2618 6.25474 40.0973 7.10067 38.181C7.22563 37.8991 7.44639 37.6706 7.72379 37.5361C8.2092 37.4108 8.50118 36.9158 8.37594 36.4304C8.25071 35.945 7.75569 35.653 7.27028 35.7783C6.50926 36.0174 5.87951 36.5579 5.52789 37.2739C4.70613 38.6953 4.15919 41.4009 5.08708 44.7315C5.22158 45.2141 5.72188 45.4964 6.20453 45.3619C6.68718 45.2274 6.96941 44.7271 6.83491 44.2444H6.83672Z" fill="url(#paint3_linear)"/>
<path d="M39.0701 39.7922H36.349C34.8462 39.7922 33.6279 41.0105 33.6279 42.5133V45.2344C33.6279 46.7372 34.8462 47.9554 36.349 47.9554H39.0701C40.5729 47.9554 41.7911 46.7372 41.7911 45.2344V42.5133C41.7911 41.0105 40.5729 39.7922 39.0701 39.7922ZM39.9771 45.2344C39.9771 45.7353 39.571 46.1414 39.0701 46.1414H36.349C35.8481 46.1414 35.442 45.7353 35.442 45.2344V42.5133C35.442 42.0124 35.8481 41.6063 36.349 41.6063H39.0701C39.571 41.6063 39.9771 42.0124 39.9771 42.5133V45.2344Z" fill="url(#paint4_linear)"/>
<path d="M41.7911 32.537C41.7911 31.0342 40.5729 29.8159 39.0701 29.8159H36.349C34.8462 29.8159 33.6279 31.0342 33.6279 32.537V35.2581C33.6279 36.7609 34.8462 37.9791 36.349 37.9791H39.0701C40.5729 37.9791 41.7911 36.7609 41.7911 35.2581V32.537ZM39.9771 35.2581C39.9771 35.759 39.571 36.1651 39.0701 36.1651H36.349C35.8481 36.1651 35.442 35.759 35.442 35.2581V32.537C35.442 32.0361 35.8481 31.63 36.349 31.63H39.0701C39.571 31.63 39.9771 32.0361 39.9771 32.537V35.2581Z" fill="url(#paint5_linear)"/>
<path d="M41.7911 22.5592C41.7911 21.0564 40.5729 19.8381 39.0701 19.8381H36.349C34.8462 19.8381 33.6279 21.0564 33.6279 22.5592V25.2803C33.6279 26.7831 34.8462 28.0013 36.349 28.0013H39.0701C40.5729 28.0013 41.7911 26.7831 41.7911 25.2803V22.5592ZM39.9771 25.2803C39.9771 25.7812 39.571 26.1873 39.0701 26.1873H36.349C35.8481 26.1873 35.442 25.7812 35.442 25.2803V22.5592C35.442 22.0583 35.8481 21.6522 36.349 21.6522H39.0701C39.571 21.6522 39.9771 22.0583 39.9771 22.5592V25.2803Z" fill="url(#paint6_linear)"/>
<path d="M29.0963 46.1414H28.1712C27.6702 46.1414 27.2642 46.5475 27.2642 47.0484C27.2642 47.5494 27.6702 47.9554 28.1712 47.9554H29.0963C30.5992 47.9554 31.8174 46.7372 31.8174 45.2344V42.5133C31.8174 41.0105 30.5992 39.7922 29.0963 39.7922H29.0601C28.8214 39.7929 28.5929 39.8893 28.4259 40.0598C28.2588 40.2303 28.1671 40.4606 28.1712 40.6993C28.1796 41.2037 28.5918 41.6078 29.0963 41.6063C29.5973 41.6063 30.0034 42.0124 30.0034 42.5133V45.2344C30.0034 45.4749 29.9078 45.7056 29.7377 45.8757C29.5676 46.0458 29.3369 46.1414 29.0963 46.1414Z" fill="url(#paint7_linear)"/>
<path d="M25.7016 31.9402C25.8696 31.7431 26.1156 31.6297 26.3746 31.63H29.0957C29.5966 31.63 30.0027 32.0361 30.0027 32.537V35.2581C30.0027 35.759 29.5966 36.1651 29.0957 36.1651H28.5242C28.0233 36.1651 27.6172 36.5712 27.6172 37.0721C27.6172 37.5731 28.0233 37.9791 28.5242 37.9791H29.0957C30.5985 37.9791 31.8167 36.7609 31.8167 35.2581V32.537C31.8167 31.0342 30.5985 29.8159 29.0957 29.8159H26.3746C25.5776 29.8132 24.8208 30.1652 24.3093 30.7765C23.988 31.1609 24.0391 31.7331 24.4236 32.0545C24.8081 32.3758 25.3802 32.3246 25.7016 31.9402Z" fill="url(#paint8_linear)"/>
<path d="M27.7326 26.1873H20.9299C20.429 26.1873 20.0229 26.5934 20.0229 27.0943C20.0229 27.5953 20.429 28.0014 20.9299 28.0014H27.7326C29.9837 27.9939 31.8067 26.1709 31.8142 23.9197C31.8117 21.6666 29.9858 19.8406 27.7326 19.8381H17.7554C16.3262 19.8347 14.9999 20.5807 14.2607 21.8039C13.5215 23.027 13.4778 24.5482 14.1454 25.8118C14.3836 26.2526 14.934 26.4169 15.3749 26.1787C15.8157 25.9405 15.98 25.39 15.7418 24.9492C15.5732 24.6324 15.4859 24.2786 15.4878 23.9197C15.4957 22.6707 16.5063 21.6601 17.7554 21.6522H27.7326C28.9849 21.6522 30.0002 22.6674 30.0002 23.9197C29.9922 25.1688 28.9816 26.1794 27.7326 26.1873Z" fill="url(#paint9_linear)"/>
<defs>
<linearGradient id="paint0_linear" x1="9.1416" y1="0.790771" x2="53.5951" y2="45.2218" gradientUnits="userSpaceOnUse">
<stop stop-color="#FFA091"/>
<stop offset="1" stop-color="#F47965"/>
</linearGradient>
<linearGradient id="paint1_linear" x1="13.6738" y1="5.32544" x2="19.2825" y2="23.9098" gradientUnits="userSpaceOnUse">
<stop stop-color="#FFA091"/>
<stop offset="1" stop-color="#F47965"/>
</linearGradient>
<linearGradient id="paint2_linear" x1="0.978027" y1="27.103" x2="24.5401" y2="56.6553" gradientUnits="userSpaceOnUse">
<stop stop-color="#FFA091"/>
<stop offset="1" stop-color="#F47965"/>
</linearGradient>
<linearGradient id="paint3_linear" x1="4.60205" y1="35.7493" x2="11.5916" y2="39.5783" gradientUnits="userSpaceOnUse">
<stop stop-color="#FFA091"/>
<stop offset="1" stop-color="#F47965"/>
</linearGradient>
<linearGradient id="paint4_linear" x1="33.6279" y1="39.7922" x2="40.2835" y2="49.0404" gradientUnits="userSpaceOnUse">
<stop stop-color="#FFA091"/>
<stop offset="1" stop-color="#F47965"/>
</linearGradient>
<linearGradient id="paint5_linear" x1="33.6279" y1="29.8159" x2="40.2835" y2="39.0641" gradientUnits="userSpaceOnUse">
<stop stop-color="#FFA091"/>
<stop offset="1" stop-color="#F47965"/>
</linearGradient>
<linearGradient id="paint6_linear" x1="33.6279" y1="19.8381" x2="40.2835" y2="29.0863" gradientUnits="userSpaceOnUse">
<stop stop-color="#FFA091"/>
<stop offset="1" stop-color="#F47965"/>
</linearGradient>
<linearGradient id="paint7_linear" x1="27.2642" y1="39.7922" x2="34.0613" y2="45.0604" gradientUnits="userSpaceOnUse">
<stop stop-color="#FFA091"/>
<stop offset="1" stop-color="#F47965"/>
</linearGradient>
<linearGradient id="paint8_linear" x1="24.0981" y1="29.8159" x2="30.8635" y2="38.7047" gradientUnits="userSpaceOnUse">
<stop stop-color="#FFA091"/>
<stop offset="1" stop-color="#F47965"/>
</linearGradient>
<linearGradient id="paint9_linear" x1="13.6738" y1="19.8381" x2="17.7885" y2="32.5436" gradientUnits="userSpaceOnUse">
<stop stop-color="#FFA091"/>
<stop offset="1" stop-color="#F47965"/>
</linearGradient>
</defs>
</svg>
