<svg xmlns="http://www.w3.org/2000/svg" width="57" height="41" viewBox="0 0 57 41"><g><g><g><path fill="#f9db2b" d="M51.729.22a5.29 5.29 0 0 1 5.279 5.279v29.564a5.29 5.29 0 0 1-5.28 5.279H5.279A5.29 5.29 0 0 1 0 35.062V5.5A5.29 5.29 0 0 1 5.279.22zm3.17 19.177H2.108v15.666a3.167 3.167 0 0 0 3.17 3.169h46.45a3.167 3.167 0 0 0 3.17-3.17zm0-13.898a3.167 3.167 0 0 0-3.17-3.17H5.279a3.167 3.167 0 0 0-3.17 3.17v6.394H54.9z"/></g><g><path fill="#f9db2b" d="M49.977 22.87H40.28c-.462 0-.84.514-.84 1.144 0 .63.378 1.144.84 1.144h9.697c.462 0 .84-.514.84-1.144 0-.64-.379-1.144-.84-1.144z"/></g></g></g></svg>