<svg width="27" height="26" viewBox="0 0 27 26" fill="none" xmlns="http://www.w3.org/2000/svg">
<path d="M18.6813 22.5833C18.6813 21.0702 19.9135 19.838 21.4265 19.838C22.9396 19.838 24.1718 21.0702 24.1718 22.5833C24.1718 24.0964 22.9396 25.3286 21.4265 25.3286C19.9135 25.3286 18.6813 24.0963 18.6813 22.5833ZM19.5394 22.5833C19.5394 23.6239 20.3859 24.4704 21.4265 24.4704C22.4671 24.4704 23.3137 23.6239 23.3137 22.5833C23.3137 21.5426 22.4672 20.6961 21.4265 20.6961C20.3859 20.6961 19.5394 21.5426 19.5394 22.5833Z" fill="white" stroke="white" stroke-width="0.3"/>
<path d="M7.09922 22.5833C7.09922 21.0702 8.33147 19.838 9.8445 19.838C11.3576 19.838 12.5898 21.0703 12.5898 22.5833C12.5898 24.0964 11.3575 25.3286 9.8445 25.3286C8.33148 25.3286 7.09922 24.0963 7.09922 22.5833ZM7.95732 22.5833C7.95732 23.6239 8.80387 24.4704 9.8445 24.4704C10.8851 24.4704 11.7317 23.6239 11.7317 22.5833C11.7317 21.5426 10.8851 20.6961 9.8445 20.6961C8.80387 20.6961 7.95732 21.5426 7.95732 22.5833Z" fill="white" stroke="white" stroke-width="0.3"/>
<path d="M3.72568 1.12874L3.70156 1.00816H3.57859H0.579078C0.34228 1.00816 0.15 0.815876 0.15 0.579078C0.15 0.34228 0.34228 0.15 0.579078 0.15H4.05344C4.25741 0.15 4.4334 0.293973 4.47383 0.495066C4.47383 0.495081 4.47383 0.495097 4.47384 0.495112L7.38994 15.0734C7.67382 16.4927 8.92935 17.5218 10.3756 17.5218H23.7414C23.9782 17.5218 24.1705 17.7141 24.1705 17.9509C24.1705 18.1877 23.9782 18.38 23.7414 18.38H10.3756C8.52224 18.38 6.91153 17.0603 6.548 15.2427L3.72568 1.12874Z" fill="white" stroke="white" stroke-width="0.3"/>
<path d="M26.3802 3.76966L26.3802 3.76968C26.4612 3.86087 26.4991 3.98434 26.4836 4.10635L26.4836 4.10661L25.5791 11.3426L25.728 11.3612L25.5791 11.3426C25.4079 12.7139 24.236 13.7474 22.8547 13.7474H6.94907C6.71227 13.7474 6.51999 13.5552 6.51999 13.3184C6.51999 13.0816 6.71227 12.8893 6.94907 12.8893H22.8547C23.8047 12.8893 24.6097 12.1786 24.7279 11.2362L24.7279 11.2361L25.5514 4.65108L25.5725 4.48247H25.4025H5.21189C4.97507 4.48247 4.78281 4.29022 4.78281 4.05344C4.78281 3.81664 4.97509 3.62437 5.21189 3.62437H26.058C26.1815 3.62437 26.2983 3.67743 26.3802 3.76966Z" fill="white" stroke="white" stroke-width="0.3"/>
</svg>
