<svg width="12" height="9" viewBox="0 0 12 9" fill="none" xmlns="http://www.w3.org/2000/svg">
<path d="M1.3416 3.04105L1.79247 2.59021C1.85255 2.53001 1.92176 2.5 2 2.5C2.07805 2.5 2.14723 2.53001 2.2073 2.59021L5.10001 5.51003L9.63445 0.449129C9.69456 0.388925 9.76374 0.358917 9.84188 0.358917C9.92006 0.358917 9.98923 0.388925 10.0493 0.449129L10.5001 0.899999C10.5603 0.960078 10.5903 1.02925 10.5903 1.10743C10.5903 1.18554 10.5602 1.25472 10.5001 1.3148L5.30744 7.03416C5.24737 7.09427 5.17816 7.12431 5.10001 7.12431C5.02187 7.12431 4.95279 7.09427 4.89274 7.03416L1.3416 3.45598C1.28153 3.39587 1.25168 3.32669 1.25168 3.24861C1.25168 3.17043 1.28153 3.10125 1.3416 3.04105Z" fill="#C4C4C4"/>
</svg>
