<svg width="56" height="56" viewBox="0 0 56 56" fill="none" xmlns="http://www.w3.org/2000/svg">
<path d="M40.8216 4.2406C40.9314 4.01959 40.9493 3.7641 40.8706 3.5299C40.7922 3.29612 40.624 3.1028 40.403 2.99294C32.5862 -0.873948 23.4127 -0.873948 15.5959 2.99294C15.2097 3.18584 15.0066 3.61847 15.1054 4.03876C15.2041 4.45904 15.5793 4.75584 16.0107 4.75584C16.1542 4.75669 16.2955 4.72518 16.4246 4.66301C23.7193 1.0546 32.2796 1.0546 39.5744 4.66301C39.7958 4.77245 40.0517 4.78948 40.2855 4.71028C40.5197 4.63107 40.7126 4.46202 40.8216 4.2406Z" fill="url(#paint0_linear)"/>
<path d="M51.7589 15.1781C51.5379 15.288 51.3697 15.4809 51.2914 15.7151C51.2126 15.9488 51.2305 16.2043 51.3403 16.4253C53.1313 20.0205 54.0575 23.9845 54.0443 28.0009C54.0443 42.386 42.3832 54.0471 27.9981 54.0471C13.6134 54.0471 1.95227 42.386 1.95227 28.0009C1.93992 23.9841 2.86694 20.0201 4.65922 16.4253C4.80996 16.1272 4.78952 15.7713 4.60557 15.4928C4.42118 15.2139 4.10224 15.0555 3.76883 15.0772C3.43541 15.0985 3.13946 15.2973 2.99298 15.5975C1.07252 19.4495 0.0786556 23.6971 0.0914302 28.0009C0.0914302 43.4135 12.5859 55.9075 27.9981 55.9075C43.4107 55.9075 55.9047 43.4135 55.9047 28.0009C55.9188 23.6971 54.9262 19.4495 53.0062 15.5975C52.8967 15.3765 52.7034 15.2079 52.4696 15.1291C52.2354 15.0503 51.9799 15.0682 51.7589 15.1781Z" fill="url(#paint1_linear)"/>
<path d="M48.0984 18.2939C47.9536 17.9946 47.6598 17.7957 47.3285 17.7715C46.9972 17.7476 46.6779 17.9022 46.4914 18.1773C46.3049 18.4523 46.2789 18.8058 46.4241 19.1051C47.1092 20.5171 47.6287 22.0045 47.972 23.5366L46.158 23.8564C45.6827 23.9399 45.3497 24.3725 45.3919 24.8537C45.4336 25.3345 45.8365 25.7032 46.3189 25.7028C46.3734 25.7028 46.4279 25.6981 46.4816 25.6892L48.2892 25.3698C48.5217 27.1178 48.5217 28.8888 48.2892 30.6368L46.4824 30.3179C45.9766 30.2284 45.4937 30.5661 45.4042 31.0724C45.3152 31.5783 45.6529 32.0607 46.1588 32.1502L47.9673 32.4695C47.5823 34.1894 46.9755 35.8518 46.1618 37.4155L44.5803 36.4999C44.2924 36.3313 43.936 36.3296 43.6465 36.4961C43.3569 36.6622 43.1789 36.9709 43.1798 37.3047C43.1802 37.6386 43.3599 37.946 43.6499 38.1112L45.2314 39.0255C44.2801 40.5086 43.1431 41.8636 41.8474 43.0572L40.6725 41.6571C40.4613 41.3935 40.1245 41.2649 39.7915 41.3211C39.4585 41.3773 39.1821 41.6094 39.0693 41.9279C38.9565 42.246 39.025 42.6003 39.2481 42.8536L40.4221 44.2486C39.0229 45.3221 37.4908 46.2099 35.8641 46.8908L35.236 45.1641C35.127 44.8456 34.8545 44.611 34.5236 44.5501C34.1924 44.4896 33.8543 44.6127 33.6396 44.872C33.425 45.1313 33.3671 45.4865 33.4885 45.8003L34.117 47.5364C32.4341 48.0636 30.69 48.3701 28.9284 48.4476V46.606C28.9284 46.0924 28.5119 45.676 27.9979 45.676C27.4844 45.676 27.0679 46.0924 27.0679 46.606V48.4434C25.3063 48.3667 23.5621 48.0618 21.8793 47.5364L22.5091 45.8071C22.63 45.4929 22.5721 45.1377 22.3575 44.8784C22.1429 44.6191 21.8048 44.4964 21.4739 44.5569C21.1426 44.6174 20.8701 44.852 20.7611 45.1705L20.133 46.8972C18.5064 46.2163 16.9743 45.3285 15.575 44.2554L16.749 42.86C16.9721 42.6066 17.0407 42.2524 16.9278 41.9343C16.815 41.6162 16.5386 41.3841 16.2057 41.3279C15.8731 41.2717 15.5358 41.4003 15.3246 41.6639L14.1498 43.0636C12.8544 41.87 11.7171 40.515 10.7658 39.0323L12.3473 38.1176C12.6373 37.9528 12.817 37.645 12.8178 37.3111C12.8182 36.9773 12.6402 36.6686 12.3507 36.5025C12.0611 36.336 11.7047 36.3377 11.4169 36.5068L9.83536 37.4218C9.02119 35.8557 8.41397 34.1899 8.02988 32.4666L9.83834 32.1476C10.1658 32.0897 10.4375 31.8615 10.5507 31.5493C10.6644 31.2368 10.6027 30.8876 10.3889 30.633C10.1752 30.3783 9.84217 30.2574 9.51472 30.3149L7.70795 30.6342C7.47631 28.8862 7.47631 27.1153 7.70795 25.3673L9.51642 25.6862C9.57007 25.6956 9.62458 25.7002 9.67908 25.7002C10.162 25.7002 10.5644 25.3315 10.6065 24.8507C10.6483 24.37 10.3157 23.9369 9.84004 23.8539L8.02349 23.5366C8.365 22.0054 8.88407 20.5193 9.5705 19.1085C9.7157 18.8096 9.69058 18.4557 9.5045 18.1802C9.31799 17.9047 8.99862 17.7493 8.66691 17.7732C8.33519 17.7966 8.04137 17.9954 7.89617 18.2948C6.42325 21.3181 5.66273 24.6387 5.67295 28.0014C5.67466 29.2946 5.78835 30.5849 6.01318 31.8581V31.8789C6.01318 31.8862 6.02 31.8925 6.0217 31.9011C6.47137 34.4385 7.36091 36.8776 8.64945 39.1094C8.65796 39.1268 8.65796 39.1464 8.66818 39.1643C8.68394 39.1873 8.70097 39.2094 8.71928 39.2303C10.0065 41.4314 11.6592 43.3978 13.6056 45.0449C13.6243 45.0636 13.6328 45.0871 13.6524 45.1037C13.6716 45.1203 13.695 45.125 13.7146 45.1399C21.9849 52.0556 34.0208 52.0556 42.2911 45.1399C42.3106 45.125 42.3336 45.1194 42.3532 45.1037C42.3728 45.0879 42.3813 45.0636 42.3996 45.0449C44.3465 43.3978 45.9987 41.4314 47.2864 39.2303C47.303 39.209 47.3187 39.1873 47.3328 39.1643C47.343 39.1464 47.343 39.1268 47.3515 39.1094C48.6388 36.8776 49.5271 34.4381 49.9754 31.9011C49.9754 31.8925 49.9823 31.887 49.984 31.8789C49.9857 31.8704 49.984 31.8649 49.984 31.8581C50.2084 30.5849 50.3221 29.2946 50.3233 28.0014C50.331 24.6383 49.5701 21.3177 48.0984 18.2939Z" fill="url(#paint2_linear)"/>
<path d="M4.31762 4.32138C2.0284 6.61144 3.76874 11.6702 6.05881 13.9556C7.13997 15.0521 8.59841 15.6951 10.1369 15.7538H10.3387C10.7782 15.7492 11.2151 15.6929 11.6413 15.5865L23.4106 27.363C23.3744 27.5738 23.3531 27.7871 23.3463 28.0009C23.3531 28.2151 23.3744 28.4284 23.4106 28.6392L22.0748 29.9759C20.9843 31.066 20.9843 32.8335 22.0748 33.9236C23.1649 35.0137 24.9325 35.0137 26.0226 33.9236L27.3584 32.5878C27.5696 32.624 27.783 32.6453 27.9971 32.6521C28.2118 32.6453 28.4251 32.624 28.6363 32.5878L29.9768 33.9283C31.0754 35.0023 32.8315 34.9984 33.9246 33.919C34.9964 32.8225 34.9942 31.0702 33.9199 29.9759L32.5841 28.6392C32.6203 28.4284 32.6416 28.2151 32.6484 28.0009C32.6416 27.7871 32.6203 27.5738 32.5841 27.363L44.5637 15.3825C45.624 15.8986 46.8955 15.6827 47.7263 14.846L54.304 8.26832C54.5612 8.0388 54.6706 7.68579 54.5884 7.3511C54.5058 7.0164 54.2448 6.75495 53.9101 6.67149C53.5758 6.58803 53.2224 6.69618 52.9925 6.95295L46.4156 13.5298C46.0528 13.8904 45.4669 13.8904 45.1041 13.5298L44.4454 12.871L51.6801 5.63674C51.9215 5.40296 52.0186 5.0572 51.9334 4.73187C51.8483 4.40697 51.5945 4.15275 51.2691 4.06759C50.9438 3.98242 50.5981 4.07951 50.3647 4.32138L43.13 11.5557L42.4717 10.8969C42.111 10.5341 42.111 9.94818 42.4717 9.58538L49.0481 3.00772C49.4006 2.64279 49.396 2.06282 49.037 1.70385C48.678 1.34488 48.0981 1.3402 47.7331 1.69235L41.1563 8.27002C40.3187 9.10037 40.102 10.3719 40.6168 11.433L28.6363 23.4139C28.4251 23.3782 28.2118 23.3569 27.9971 23.3501C27.783 23.3569 27.5696 23.3782 27.3584 23.4139L15.5947 11.6506C15.7143 11.1571 15.7667 10.6495 15.7501 10.1419C15.6909 8.60259 15.0475 7.14415 13.951 6.06256C11.6609 3.77249 6.60215 2.03003 4.31762 4.32138ZM10.2012 13.8951C9.13366 13.8513 8.12319 13.4024 7.37417 12.6402C5.56869 10.8339 4.36318 6.90739 5.63298 5.63674C6.09159 5.2535 6.68178 5.06486 7.27751 5.11128C9.27291 5.22241 11.1674 6.02381 12.6365 7.37792C13.3987 8.12694 13.8471 9.13742 13.8914 10.205C13.9442 11.1988 13.5724 12.1684 12.8685 12.8723C12.1651 13.5762 11.1951 13.9479 10.2012 13.8951ZM24.7072 32.6083C24.5327 32.7833 24.2955 32.8817 24.0485 32.8817C23.8015 32.8817 23.5643 32.7833 23.3897 32.6083C23.2152 32.4341 23.1168 32.1969 23.1168 31.95C23.1168 31.7026 23.2152 31.4658 23.3897 31.2912L24.12 30.5609C24.4667 31.0834 24.9146 31.531 25.4375 31.8771L24.7072 32.6083ZM32.6003 31.2874C32.8362 31.522 32.929 31.8644 32.8438 32.1863C32.7587 32.5078 32.5087 32.7594 32.1877 32.8467C31.8666 32.9336 31.5234 32.8429 31.2875 32.6083L30.5572 31.8784C31.0801 31.5314 31.5276 31.0834 31.8747 30.5609L32.6003 31.2874ZM41.8091 12.8693L43.1266 14.1864L31.8708 25.4421C31.5242 24.9192 31.0763 24.4708 30.5538 24.1238L41.8091 12.8693ZM30.788 28.0009C30.788 29.5424 29.5386 30.7917 27.9971 30.7917C26.4561 30.7917 25.2067 29.5424 25.2067 28.0009C25.2067 26.4598 26.4561 25.2105 27.9971 25.2105C29.5386 25.2105 30.788 26.4598 30.788 28.0009ZM25.4375 24.1246C24.9146 24.4713 24.4667 24.9192 24.12 25.4421L13.46 14.7808C13.9808 14.4321 14.4292 13.9863 14.7809 13.4672L25.4375 24.1246Z" fill="url(#paint3_linear)"/>
<path d="M34.0449 11.3927C34.277 11.4766 34.5329 11.4651 34.7565 11.3603C34.98 11.2556 35.1525 11.0665 35.2364 10.8344L35.8653 9.10688C36.2115 9.25209 36.5556 9.40666 36.8949 9.57231C37.3574 9.79671 37.9144 9.60382 38.1388 9.14138C38.3632 8.67893 38.1703 8.12238 37.7083 7.89755C37.0338 7.57137 36.3473 7.28564 35.6524 7.03058C35.646 7.03058 35.6413 7.02249 35.6345 7.01951C35.6281 7.01695 35.6234 7.01951 35.6179 7.01951C30.695 5.22722 25.2981 5.22722 20.3752 7.01951H20.3641L20.3531 7.02717C19.6513 7.28224 18.9632 7.57307 18.2908 7.89755C17.8284 8.12238 17.6359 8.67936 17.8603 9.1418C18.0851 9.60424 18.6421 9.79671 19.1045 9.57231C19.4443 9.40666 19.7876 9.25166 20.1333 9.10688L20.7623 10.8353C20.8713 11.1538 21.1438 11.3884 21.4751 11.4493C21.806 11.5098 22.1441 11.3867 22.3587 11.1274C22.5737 10.8681 22.6316 10.5129 22.5103 10.1991L21.8822 8.47369C23.5637 7.94396 25.3071 7.6378 27.0683 7.562V9.39644C27.0683 9.90998 27.4847 10.3264 27.9983 10.3264C28.5122 10.3264 28.9287 9.90998 28.9287 9.39644V7.562C30.6903 7.63822 32.434 7.94567 34.1156 8.47624L33.4867 10.2C33.4024 10.432 33.4139 10.6884 33.5186 10.9119C33.6234 11.1359 33.8124 11.3088 34.0449 11.3927Z" fill="url(#paint4_linear)"/>
<defs>
<linearGradient id="paint0_linear" x1="15.0806" y1="0.0927734" x2="16.1063" y2="7.98453" gradientUnits="userSpaceOnUse">
<stop stop-color="#FFA091"/>
<stop offset="1" stop-color="#F47965"/>
</linearGradient>
<linearGradient id="paint1_linear" x1="0.0913086" y1="15.0752" x2="29.0369" y2="70.0533" gradientUnits="userSpaceOnUse">
<stop stop-color="#FFA091"/>
<stop offset="1" stop-color="#F47965"/>
</linearGradient>
<linearGradient id="paint2_linear" x1="5.67285" y1="17.769" x2="28.7093" y2="61.6687" gradientUnits="userSpaceOnUse">
<stop stop-color="#FFA091"/>
<stop offset="1" stop-color="#F47965"/>
</linearGradient>
<linearGradient id="paint3_linear" x1="3.24268" y1="1.4314" x2="25.1925" y2="48.4707" gradientUnits="userSpaceOnUse">
<stop stop-color="#FFA091"/>
<stop offset="1" stop-color="#F47965"/>
</linearGradient>
<linearGradient id="paint4_linear" x1="17.7666" y1="5.67529" x2="19.7126" y2="15.2346" gradientUnits="userSpaceOnUse">
<stop stop-color="#FFA091"/>
<stop offset="1" stop-color="#F47965"/>
</linearGradient>
</defs>
</svg>
