<svg width="23" height="22" viewBox="0 0 23 22" fill="none" xmlns="http://www.w3.org/2000/svg">
<path d="M9.9754 11.1763L10.1522 10.9996L9.9754 10.8228L0.783443 1.63082C0.490466 1.33784 0.490466 0.862832 0.783444 0.569854C1.07642 0.276876 1.55143 0.276876 1.84441 0.569853L11.0364 9.76181L11.2131 9.93858L11.3899 9.76181L20.5819 0.569831C20.8749 0.276853 21.3499 0.276854 21.6429 0.569831C21.9358 0.862809 21.9358 1.33782 21.6429 1.6308L12.4509 10.8228L12.2741 10.9995L12.4509 11.1763L21.6431 20.3685C21.9361 20.6615 21.9361 21.1365 21.6431 21.4295C21.3501 21.7225 20.8751 21.7225 20.5821 21.4295L11.3899 12.2373L11.2131 12.0605L11.0364 12.2373L1.84417 21.4295C1.5512 21.7225 1.07619 21.7225 0.783209 21.4295C0.490232 21.1365 0.490232 20.6615 0.78321 20.3685L9.9754 11.1763Z" fill="url(#paint0_linear)" stroke="#E58171" stroke-width="0.5"/>
<defs>
<linearGradient id="paint0_linear" x1="0.313477" y1="0.100098" x2="18.0866" y2="24.7968" gradientUnits="userSpaceOnUse">
<stop stop-color="#FFA091"/>
<stop offset="1" stop-color="#F47965"/>
</linearGradient>
</defs>
</svg>
