<svg width="16" height="28" viewBox="0 0 16 28" fill="none" xmlns="http://www.w3.org/2000/svg">
<path d="M2.53118 9.78099V25.4088C2.53118 25.8162 2.67983 26.1687 2.97773 26.4663C3.2704 26.759 3.61673 26.9063 4.01577 26.9109C4.41456 26.9063 4.76114 26.7589 5.05411 26.4663C5.35171 26.1687 5.50031 25.8162 5.50031 25.4088V9.78099C5.94687 9.62463 7.62078 8.13268 7.62078 7.65432V1.36881C7.62078 1.16559 7.54615 0.989175 7.3975 0.840222C7.24855 0.691571 7.07213 0.616943 6.86891 0.616943C6.66508 0.616943 6.48897 0.691571 6.34032 0.840222C6.19136 0.989477 6.11704 1.16559 6.11704 1.36881V6.25615C6.11704 6.45998 6.04241 6.63609 5.89376 6.78474C5.74481 6.9337 5.56869 7.00772 5.36517 7.00772C5.16134 7.00772 4.98523 6.9337 4.83657 6.78474C4.68792 6.63609 4.6133 6.45968 4.6133 6.25615V1.36881C4.6133 1.16559 4.53867 0.989175 4.39002 0.840222C4.24137 0.691571 4.065 0.616943 3.86148 0.616943C3.65765 0.616943 3.48153 0.691571 3.33288 0.840222C3.18393 0.989477 3.10961 1.16559 3.10961 1.36881V6.25615C3.10961 6.45998 3.03498 6.63609 2.88633 6.78474C2.73737 6.9337 2.56126 7.00772 2.35773 7.00772C2.15391 7.00772 1.97779 6.9337 1.82914 6.78474C1.68019 6.63609 1.60586 6.45968 1.60586 6.25615V1.36881C1.60586 1.16559 1.53154 0.989175 1.38259 0.840222C1.23393 0.691571 1.05757 0.616943 0.853993 0.616943C0.650165 0.616943 0.474052 0.691571 0.325451 0.840222C0.176801 0.989477 0.102173 1.16559 0.102173 1.36881V7.65407C0.102324 8.13232 2.08462 9.62432 2.53118 9.78099Z" fill="#101828"/>
<path d="M10.4262 13.5342H12.1329V25.717C12.1329 26.1244 12.2815 26.4769 12.5791 26.7744C12.872 27.0671 13.2183 27.2145 13.6174 27.2192C14.0161 27.2145 14.3627 27.0671 14.6557 26.7744C14.9533 26.4769 15.1022 26.1244 15.1022 25.717V0.751871C15.1022 0.548647 15.0276 0.372232 14.8789 0.223279C14.73 0.0746278 14.554 0 14.3504 0H13.8101C12.7761 0 11.8911 0.368251 11.1549 1.10435C10.4189 1.84075 10.0507 2.72585 10.0507 3.75956V13.1583C10.0507 13.2601 10.0879 13.3483 10.1623 13.4226C10.2362 13.4969 10.3244 13.5342 10.4262 13.5342Z" fill="#101828"/>
</svg>
