<svg width="56" height="44" viewBox="0 0 56 44" fill="none" xmlns="http://www.w3.org/2000/svg">
<path d="M0.0917969 34.1657C0.0917969 35.969 1.55877 37.436 3.36215 37.436H6.63249C6.63249 41.0428 9.56644 43.9767 13.1732 43.9767C16.7799 43.9767 19.7139 41.0428 19.7139 37.436H38.1369C38.1369 41.0428 41.0708 43.9767 44.6776 43.9767C48.2843 43.9767 51.2183 41.0428 51.2183 37.436H52.6354C54.4388 37.436 55.9058 35.969 55.9058 34.1657V3.64242C55.9058 1.83904 54.4388 0.37207 52.6354 0.37207H25.8185C24.0152 0.37207 22.5482 1.83904 22.5482 3.64242V6.91277H13.6552C12.2445 6.91277 10.9972 7.81169 10.5518 9.14921C9.9846 10.8512 7.86569 17.2076 6.92504 20.0299C6.84881 20.259 6.69552 20.46 6.49538 20.5924L2.51943 23.2432C0.999234 24.2554 0.0917969 25.9511 0.0917969 27.7787V34.1657ZM13.1732 41.7965C10.769 41.7965 8.81273 39.8402 8.81273 37.436C8.81273 34.999 10.8043 33.0756 13.1732 33.0756C15.5476 33.0756 17.5337 35.0041 17.5337 37.436C17.5337 39.8402 15.5774 41.7965 13.1732 41.7965ZM44.6776 41.7965C42.2733 41.7965 40.3171 39.8402 40.3171 37.436C40.3171 34.999 42.3087 33.0756 44.6776 33.0756C47.052 33.0756 49.038 35.0041 49.038 37.436C49.038 39.8402 47.0818 41.7965 44.6776 41.7965ZM24.7284 3.64242C24.7284 3.04115 25.2173 2.5523 25.8185 2.5523H52.6354C53.2367 2.5523 53.7255 3.04115 53.7255 3.64242V34.1657C53.7255 34.7669 53.2367 35.2558 52.6354 35.2558H50.8439C49.9335 32.6834 47.4693 30.8953 44.6776 30.8953C41.8846 30.8953 39.4194 32.6846 38.5107 35.2558H24.7284V3.64242ZM11.0517 14.5436H18.1877V19.9942H9.23515L11.0517 14.5436ZM3.72793 25.0577L7.70217 22.4082C7.80991 22.3371 7.91168 22.2579 8.00962 22.1744H19.2778C19.88 22.1744 20.368 21.6864 20.368 21.0843V13.4535C20.368 12.8513 19.88 12.3633 19.2778 12.3633H11.7786L12.6205 9.83862C12.7687 9.39236 13.1847 9.093 13.6552 9.093H22.5482V35.2558H19.3396C18.4292 32.6834 15.9649 30.8953 13.1732 30.8953C10.3802 30.8953 7.91508 32.6846 7.00637 35.2558H3.36215C2.76088 35.2558 2.27203 34.7669 2.27203 34.1657V33.0756H5.54238C6.1445 33.0756 6.63249 32.5876 6.63249 31.9854C6.63249 31.3833 6.1445 30.8953 5.54238 30.8953H2.27203V27.7787C2.27203 26.6822 2.81624 25.6649 3.72793 25.0577Z" fill="url(#paint0_linear)"/>
<defs>
<linearGradient id="paint0_linear" x1="0.0917969" y1="0.37207" x2="32.1252" y2="57.347" gradientUnits="userSpaceOnUse">
<stop stop-color="#FFA091"/>
<stop offset="1" stop-color="#F47965"/>
</linearGradient>
</defs>
</svg>
