<svg width="57" height="56" viewBox="0 0 57 56" fill="none" xmlns="http://www.w3.org/2000/svg">
<path d="M52.7919 13.2091V10.3254C52.7919 8.27034 51.126 6.60451 49.071 6.60451H48.141V4.69638C49.3094 4.45664 50.1074 3.37164 49.9874 2.18443C49.8673 0.997654 48.8687 0.0940509 47.676 0.0927734H41.1642C39.9711 0.0940509 38.9725 0.997654 38.8524 2.18443C38.7328 3.37164 39.5303 4.45664 40.6992 4.69638V6.60451H39.7688C37.7138 6.60451 36.0479 8.27034 36.0479 10.3254V13.2091C33.8839 13.6541 32.3296 15.5579 32.3271 17.7671V27.0693C32.3279 28.274 32.7985 29.4305 33.6386 30.2937C32.864 30.7787 32.3769 31.6133 32.3364 32.5263C32.181 32.5075 32.0303 32.473 31.871 32.4696C31.5108 30.4125 29.9957 28.7479 27.9811 28.1965C25.9665 27.645 23.8148 28.3059 22.4573 29.893C22.0267 29.9236 21.6022 30.0075 21.1921 30.1421C20.9711 27.886 19.8137 25.8263 18.0014 24.4649C17.5905 24.1566 17.0071 24.2397 16.6992 24.651C16.3909 25.062 16.474 25.6449 16.8849 25.9532C18.2326 26.9684 19.1132 28.4852 19.3262 30.1587C18.6908 29.93 18.0163 29.8282 17.3418 29.8602C16.3441 29.9313 15.426 30.4312 14.8247 31.2305C13.9399 30.389 12.8813 29.752 11.723 29.3645C12.1667 28.4264 12.7488 27.5611 13.4506 26.7968C13.8138 26.4335 13.8138 25.8442 13.4502 25.481C13.0865 25.1177 12.4976 25.1182 12.1344 25.4814C11.7435 25.891 11.3866 26.3318 11.0664 26.7989C10.7607 26.3062 10.314 25.917 9.78381 25.6824C7.94381 24.8827 5.81894 26.2981 5.58261 26.4621C5.22449 26.7103 5.08652 27.1745 5.25174 27.5782C5.50724 28.225 5.8232 28.8458 6.19495 29.4331C3.70386 30.3448 1.7919 32.3828 1.04117 34.9271C0.290863 37.4714 0.790783 40.2209 2.38848 42.3382C2.0738 42.514 1.79616 42.7491 1.57047 43.0306C1.04585 43.6936 0.85849 44.5622 1.06289 45.3828C2.26457 50.095 5.67288 53.9343 10.2096 55.6853C10.5597 55.8313 10.9357 55.9067 11.3147 55.9067H31.0155C31.3932 55.9067 31.768 55.8317 32.1167 55.6861C32.7452 55.4174 33.3584 55.1138 33.9529 54.7765C34.7934 55.5034 35.867 55.9046 36.9779 55.9067H51.8618C54.4292 55.9037 56.5097 53.8231 56.5131 51.2554V41.9532C56.5119 40.7498 56.0422 39.5937 55.2033 38.731C55.3775 38.6228 55.5384 38.4951 55.6832 38.3494C56.2172 37.8304 56.5166 37.1162 56.5131 36.3719C56.5106 35.6829 56.2517 35.0199 55.7875 34.5115C56.3437 33.9038 56.5996 33.0803 56.4863 32.2648C56.3731 31.4489 55.9021 30.7263 55.2012 30.2937C56.0413 29.4305 56.5119 28.274 56.5131 27.0693V17.7671C56.5102 15.5579 54.9563 13.6541 52.7919 13.2091ZM41.1642 1.95321H47.676C47.9327 1.95321 48.141 2.16144 48.141 2.41821C48.141 2.67541 47.9327 2.88364 47.676 2.88364H41.1642C40.9075 2.88364 40.6992 2.67541 40.6992 2.41821C40.6992 2.16144 40.9075 1.95321 41.1642 1.95321ZM42.5597 4.74407H46.2805V6.60451H42.5597V4.74407ZM37.9084 10.3254C37.9084 9.29786 38.7413 8.46495 39.7688 8.46495H49.071C50.0985 8.46495 50.9314 9.29786 50.9314 10.3254V13.1158H37.9084V10.3254ZM34.1875 17.7671C34.1875 16.2261 35.4369 14.9767 36.9779 14.9767H51.8618C53.4029 14.9767 54.6527 16.2261 54.6527 17.7671V27.0693C54.6527 28.6108 53.4029 29.8602 51.8618 29.8602H36.9779C35.4369 29.8602 34.1875 28.6108 34.1875 27.0693V17.7671ZM53.7223 31.7206C54.2358 31.7206 54.6527 32.1371 54.6527 32.651C54.6527 33.1646 54.2358 33.581 53.7223 33.581H35.1175C34.604 33.581 34.1875 33.1646 34.1875 32.651C34.1875 32.1371 34.604 31.7206 35.1175 31.7206H53.7223ZM54.6527 36.3719C54.6531 36.6223 54.5501 36.8625 54.3678 37.0341C54.1984 37.2078 53.965 37.3045 53.7223 37.3019H36.4069C36.4069 37.2397 36.4201 37.1776 36.4201 37.1158C36.4175 36.5427 36.3081 35.9746 36.0973 35.4415H53.7223C54.2358 35.4415 54.6527 35.8579 54.6527 36.3719ZM30.0945 33.4695C30.0945 33.7471 30.2184 34.0098 30.4321 34.1866C30.6463 34.3633 30.9278 34.4352 31.2003 34.3829C31.3877 34.3458 31.578 34.3267 31.7688 34.3254C33.3099 34.3254 34.5597 35.5748 34.5597 37.1158C34.5575 37.393 34.5179 37.6681 34.4421 37.9347C34.3289 38.3563 34.5243 38.8004 34.9123 39.0014C35.6042 39.3527 36.0428 40.0608 36.0479 40.8371C36.0479 41.2344 35.9296 41.6232 35.7073 41.9532H29.2803C29.4476 41.2838 29.5332 40.5965 29.5362 39.9067C29.517 37.4177 28.4469 35.0527 26.5903 33.395C26.526 33.0849 26.4413 32.7796 26.3361 32.4807C26.0461 31.6244 25.4789 30.8894 24.7244 30.3912C25.2749 30.048 25.9103 29.864 26.5597 29.8602C27.5084 29.8657 28.4154 30.2498 29.0797 30.9277C29.7436 31.6056 30.1089 32.5207 30.0945 33.4695ZM12.7101 41.9532C12.0352 39.8322 12.4486 37.5148 13.8151 35.7579C13.8909 36.2033 14.0297 36.6355 14.2282 37.0417C14.4926 37.5681 14.8746 38.0262 15.3447 38.381C15.9012 38.7876 16.5455 39.058 17.2256 39.17C17.3077 39.1713 17.3895 39.1606 17.4683 39.1385C17.7549 39.0512 17.9857 38.8374 18.0942 38.5589V38.5487C18.1057 38.5168 18.9314 36.3719 20.234 36.3719C21.5362 36.3719 22.3593 38.5168 22.3734 38.5487V38.5589C22.4824 38.8374 22.7132 39.0512 22.9993 39.1385C23.0785 39.1606 23.1603 39.1713 23.2425 39.17C23.9229 39.0576 24.5681 38.7872 25.1251 38.3801C25.5947 38.0258 25.9767 37.5681 26.2411 37.0426C26.3757 36.7662 26.4826 36.4775 26.5605 36.1803C27.6847 37.8853 27.9777 40.0076 27.3568 41.9532H12.7101ZM16.3513 37.9057C16.3701 37.8551 16.3935 37.8065 16.4207 37.7597C16.4003 37.8138 16.3828 37.8648 16.3671 37.9121L16.3513 37.9057ZM24.0469 37.7597C24.0741 37.8065 24.0975 37.8551 24.1167 37.9057L24.1009 37.9121C24.0852 37.8602 24.0673 37.8138 24.0477 37.7597H24.0469ZM17.4487 31.7206C18.1232 31.6921 18.79 31.8739 19.3568 32.2405C19.3411 32.3708 19.3262 32.4517 19.3215 32.4743C19.2244 32.9747 19.5484 33.4601 20.0479 33.5627C20.1092 33.5755 20.1714 33.5815 20.234 33.581C20.6756 33.5806 21.0563 33.2698 21.1444 32.8371C21.1857 32.6123 21.2151 32.3857 21.233 32.1579C21.7768 31.8458 22.3981 31.6942 23.0245 31.7206C23.7709 31.8398 24.3811 32.3802 24.5894 33.1067C24.6852 33.3762 24.7593 33.653 24.8108 33.9345C24.8108 33.946 24.8155 33.9549 24.8163 33.9664C24.9756 34.7214 24.893 35.5075 24.58 36.2126C24.4531 36.4686 24.2713 36.6934 24.0477 36.8714C23.9902 36.9076 23.8616 36.9774 23.7241 37.0519C23.1288 35.9503 21.9671 34.5115 20.234 34.5115C18.5009 34.5115 17.338 35.9512 16.7473 37.0498C16.6162 36.9821 16.5046 36.9208 16.4616 36.8948C16.2219 36.713 16.0269 36.4784 15.8927 36.2092C15.4805 35.2154 15.4775 34.0997 15.8842 33.1041C16.0929 32.3781 16.7031 31.8386 17.4487 31.7206ZM9.04415 27.3904C9.54066 27.7378 9.85237 28.2918 9.8924 28.8965L9.86259 28.9681C9.30561 28.9178 8.74437 28.9229 8.18824 28.9838C7.83182 28.5763 7.53545 28.1198 7.30933 27.6276C7.83566 27.3291 8.45694 27.2443 9.04415 27.3904ZM7.99406 30.8741C8.41904 30.8115 8.84912 30.7859 9.27878 30.797C9.14379 31.4059 9.07396 32.0272 9.07098 32.651C9.07098 33.1646 9.48744 33.581 10.0014 33.581C10.515 33.581 10.9314 33.1646 10.9314 32.651C10.9344 32.1422 10.994 31.635 11.1094 31.1393C12.1974 31.5005 13.1696 32.1451 13.9258 33.0062C11.7975 34.6652 10.5469 37.2082 10.5316 39.9067C10.5345 40.5965 10.6206 41.2838 10.7875 41.9532H4.52784C2.77045 40.2427 2.12447 37.6894 2.85689 35.3486C3.58889 33.0083 5.57494 31.2782 7.99406 30.8741ZM31.3919 53.9726C31.274 54.0216 31.1475 54.0463 31.0198 54.0463H11.3147C11.1835 54.0471 11.0532 54.022 10.9314 53.9717C6.92226 52.4677 3.90698 49.0901 2.86541 44.9366C2.79898 44.6708 2.86073 44.3898 3.03191 44.1764C3.21075 43.9469 3.48541 43.8128 3.77625 43.8136H38.5484C38.8392 43.8128 39.1139 43.9469 39.2923 44.1764C39.4639 44.3898 39.5257 44.6708 39.4592 44.9366C38.3934 49.0777 35.3866 52.446 31.3919 53.9726ZM54.6527 51.2554C54.6527 52.7969 53.4029 54.0463 51.8618 54.0463H36.9779C36.5104 54.042 36.0518 53.9194 35.6442 53.6898C38.4355 51.6672 40.4254 48.7264 41.2656 45.3828C41.47 44.5622 41.2822 43.6936 40.7576 43.0306C40.2274 42.3488 39.412 41.9511 38.5484 41.9532H37.727C38.0259 41.0326 37.9539 40.0315 37.5268 39.1623H51.8618C53.4029 39.1623 54.6527 40.4121 54.6527 41.9532V51.2554Z" fill="url(#paint0_linear)"/>
<defs>
<linearGradient id="paint0_linear" x1="0.699219" y1="0.0927734" x2="46.2051" y2="63.325" gradientUnits="userSpaceOnUse">
<stop stop-color="#FFA091"/>
<stop offset="1" stop-color="#F47965"/>
</linearGradient>
</defs>
</svg>
