<svg width="40" height="36" viewBox="0 0 40 36" fill="none" xmlns="http://www.w3.org/2000/svg">
<path d="M30.7137 18.0671C30.7137 12.0638 25.9144 7.2002 19.9994 7.2002C14.0805 7.2002 9.28516 12.0638 9.28516 18.0671C9.28516 23.4897 13.2019 27.9859 18.3253 28.8002V21.209H15.6046V18.0678H18.3253V15.6723C18.3253 12.9495 19.9224 11.4458 22.3706 11.4458C23.5432 11.4458 24.7706 11.6577 24.7706 11.6577V14.3316H23.4173C22.0887 14.3316 21.6735 15.1704 21.6735 16.0296V18.0671H24.6448L24.1673 21.2083H21.6735V28.7995C26.793 27.9852 30.7137 23.489 30.7137 18.0664V18.0671Z" fill="#101828"/>
</svg>
