<svg xmlns="http://www.w3.org/2000/svg" width="20" height="30" viewBox="0 0 20 30"><g><g><g><g/><g><path d="M19.236 26.976H2.976a.405.405 0 0 1-.406-.406V4.455a.405.405 0 0 1 .405-.405h3.479a.405.405 0 1 1 0 .81H3.38v21.305h15.45V9.5l-4.64-4.64h-3.075a.405.405 0 1 1 0-.81h3.243c.108 0 .21.043.287.119l4.877 4.877c.076.076.119.179.119.286V26.57a.405.405 0 0 1-.406.406z"/></g><g><path d="M17.026 29.194H.766a.405.405 0 0 1-.406-.406V6.675a.405.405 0 0 1 .405-.405h2.211a.405.405 0 1 1 0 .81H1.171v21.303h15.45v-1.806a.405.405 0 1 1 .81 0v2.211a.405.405 0 0 1-.405.406z"/></g><g><path d="M19.233 9.739h-4.878a.405.405 0 0 1-.405-.406V4.455a.405.405 0 1 1 .81 0v4.473h4.473a.405.405 0 1 1 0 .81z"/></g><g><path d="M16.679 19.78H5.535a.405.405 0 1 1 0-.81H16.68a.406.406 0 0 1 0 .81z"/></g><g><path d="M16.679 16.42H5.535a.405.405 0 1 1 0-.81H16.68a.406.406 0 0 1 0 .81z"/></g><g><path d="M16.679 23.14H5.535a.405.405 0 1 1 0-.81H16.68a.406.406 0 0 1 0 .81z"/></g><g><path d="M16.679 13.06H5.535a.405.405 0 1 1 0-.81H16.68a.406.406 0 0 1 0 .81z"/></g><g><path d="M9.561 9.324a1.96 1.96 0 0 1-1.958-1.959V4.094a1.182 1.182 0 1 1 2.364 0v2.803a.405.405 0 1 1-.811 0V4.094a.37.37 0 1 0-.742 0v3.27a1.148 1.148 0 1 0 2.295 0v-3.82a1.924 1.924 0 1 0-3.848 0V6.14a.405.405 0 1 1-.811 0V3.545a2.735 2.735 0 0 1 5.47 0v3.82A1.96 1.96 0 0 1 9.56 9.324z"/></g></g></g></g></svg>