<svg xmlns="http://www.w3.org/2000/svg" width="73" height="29" viewBox="0 0 73 29"><g><g><g><path fill="#101828" d="M34.563 22.665H31.87V1.67h7.142a6.45 6.45 0 0 1 4.625 1.818 5.842 5.842 0 0 1 1.932 4.43 5.823 5.823 0 0 1-1.932 4.456c-1.249 1.193-2.79 1.788-4.625 1.787h-4.449zm0-11.08h4.516a3.555 3.555 0 0 0 2.665-1.086 3.578 3.578 0 0 0 .8-3.958 3.578 3.578 0 0 0-.8-1.173 3.513 3.513 0 0 0-2.665-1.114h-4.516z"/></g><g><path fill="#101828" d="M51.775 7.84c1.99 0 3.562.533 4.713 1.598 1.152 1.065 1.728 2.526 1.727 4.382v8.853h-2.576v-1.994h-.117c-1.115 1.642-2.599 2.462-4.45 2.462-1.58 0-2.902-.469-3.966-1.407a4.492 4.492 0 0 1-1.595-3.517c0-1.486.56-2.668 1.682-3.546 1.122-.878 2.62-1.318 4.493-1.32 1.6 0 2.916.293 3.951.88v-.617a3.074 3.074 0 0 0-1.112-2.387 3.81 3.81 0 0 0-2.6-.983c-1.504 0-2.694.635-3.57 1.906l-2.373-1.496c1.305-1.876 3.236-2.814 5.793-2.814zM48.29 18.276a2.156 2.156 0 0 0 .893 1.758c.595.47 1.335.718 2.092.704a4.29 4.29 0 0 0 3.03-1.26c.892-.84 1.338-1.827 1.338-2.96-.84-.67-2.01-1.005-3.513-1.005-1.094 0-2.006.264-2.736.793-.738.536-1.104 1.187-1.104 1.97z"/></g><g><path fill="#101828" d="M72.998 8.31l-8.992 20.695h-2.78l3.337-7.241L58.65 8.31h2.927l4.274 10.318h.058L70.066 8.31z"/></g><g><path fill="#101828" d="M23.685 12.332a14.395 14.395 0 0 0-.208-2.452H12.12v4.645h6.505a5.587 5.587 0 0 1-2.405 3.665v3.015h3.882c2.273-2.099 3.583-5.203 3.583-8.873z"/></g><g><path fill="#101828" d="M12.12 24.122c3.25 0 5.987-1.069 7.982-2.911l-3.882-3.015c-1.08.733-2.472 1.152-4.1 1.152-3.141 0-5.807-2.12-6.76-4.978h-4v3.107a12.054 12.054 0 0 0 4.44 4.85 12.03 12.03 0 0 0 6.32 1.795z"/></g><g><path fill="#101828" d="M5.352 14.374a7.236 7.236 0 0 1 0-4.617V6.65h-4a12.074 12.074 0 0 0 0 10.83z"/></g><g><path fill="#101828" d="M12.12 4.775a6.533 6.533 0 0 1 4.62 1.809l3.437-3.443A11.562 11.562 0 0 0 12.12.001C9.888 0 7.7.622 5.8 1.796a12.054 12.054 0 0 0-4.44 4.85l4 3.107c.953-2.858 3.619-4.978 6.76-4.978z"/></g></g></g></svg>