<svg xmlns="http://www.w3.org/2000/svg" width="52" height="52" viewBox="0 0 52 52"><defs><clipPath id="avbaa"><path fill="#fff" d="M36.289 49.169c-.743.79-1.41 1.579-2.184 2.262-.333.303-.864.531-1.319.531-2.73.046-5.459.06-8.188-.015-3.806-.106-7.37-1.2-10.751-2.93-3.26-1.67-6.005-3.993-8.265-6.847-2.44-3.112-4.124-6.588-4.958-10.49a26.581 26.581 0 0 1 .06-11.719c1.183-5.222 3.837-9.61 7.764-13.222 2.578-2.383 5.55-4.19 8.886-5.329C18.957.85 20.61.302 22.37.242c1.774-.046 3.563-.304 5.337-.228 1.638.076 3.29.395 4.883.79 3.396.865 6.475 2.398 9.28 4.538 3.912 2.976 6.702 6.786 8.416 11.355.955 2.52 1.577 5.147 1.607 7.88.03 2.701.121 5.403.106 8.106 0 .44-.258.956-.56 1.305-.532.668-1.214 1.215-1.775 1.867-.152.182-.212.729-.106.805 1.38.926.622 2.019.212 2.975a19.244 19.244 0 0 1-6.187 7.849c-1.577 1.184-3.29 2.125-5.17 2.747-.546.183-.94.167-1.304-.318-.167-.228-.455-.41-.82-.744z"/></clipPath></defs><g><g><path fill="none" stroke="#fff" stroke-miterlimit="20" stroke-width="4" d="M36.289 49.169c-.743.79-1.41 1.579-2.184 2.262-.333.303-.864.531-1.319.531-2.73.046-5.459.06-8.188-.015-3.806-.106-7.37-1.2-10.751-2.93-3.26-1.67-6.005-3.993-8.265-6.847-2.44-3.112-4.124-6.588-4.958-10.49a26.581 26.581 0 0 1 .06-11.719c1.183-5.222 3.837-9.61 7.764-13.222 2.578-2.383 5.55-4.19 8.886-5.329C18.957.85 20.61.302 22.37.242c1.774-.046 3.563-.304 5.337-.228 1.638.076 3.29.395 4.883.79 3.396.865 6.475 2.398 9.28 4.538 3.912 2.976 6.702 6.786 8.416 11.355.955 2.52 1.577 5.147 1.607 7.88.03 2.701.121 5.403.106 8.106 0 .44-.258.956-.56 1.305-.532.668-1.214 1.215-1.775 1.867-.152.182-.212.729-.106.805 1.38.926.622 2.019.212 2.975a19.244 19.244 0 0 1-6.187 7.849c-1.577 1.184-3.29 2.125-5.17 2.747-.546.183-.94.167-1.304-.318-.167-.228-.455-.41-.82-.744z" clip-path="url(&quot;#avbaa&quot;)"/></g></g></svg>