<svg width="40" height="36" viewBox="0 0 40 36" fill="none" xmlns="http://www.w3.org/2000/svg">
<path d="M19.9965 14.3986C18.0292 14.3986 16.4236 16.017 16.4236 18.0002C16.4236 19.9833 18.0292 21.6017 19.9965 21.6017C21.9639 21.6017 23.5694 19.9833 23.5694 18.0002C23.5694 16.017 21.9639 14.3986 19.9965 14.3986ZM30.7124 18.0002C30.7124 16.5088 30.7258 15.0309 30.6427 13.5422C30.5596 11.813 30.1683 10.2784 28.9139 9.01392C27.6569 7.74677 26.1371 7.355 24.4217 7.27125C22.9422 7.18749 21.476 7.201 19.9992 7.201C18.5197 7.201 17.0535 7.18749 15.5767 7.27125C13.8613 7.355 12.3388 7.74947 11.0844 9.01392C9.82738 10.2811 9.43873 11.813 9.35564 13.5422C9.27255 15.0336 9.28595 16.5115 9.28595 18.0002C9.28595 19.4889 9.27255 20.9695 9.35564 22.4582C9.43873 24.1873 9.83006 25.722 11.0844 26.9864C12.3415 28.2536 13.8613 28.6453 15.5767 28.7291C17.0562 28.8129 18.5223 28.7994 19.9992 28.7994C21.4787 28.7994 22.9449 28.8129 24.4217 28.7291C26.1371 28.6453 27.6595 28.2509 28.9139 26.9864C30.171 25.7193 30.5596 24.1873 30.6427 22.4582C30.7285 20.9695 30.7124 19.4916 30.7124 18.0002ZM19.9965 23.5416C16.9543 23.5416 14.4992 21.0667 14.4992 18.0002C14.4992 14.9336 16.9543 12.4587 19.9965 12.4587C23.0387 12.4587 25.4938 14.9336 25.4938 18.0002C25.4938 21.0667 23.0387 23.5416 19.9965 23.5416ZM25.719 13.526C25.0087 13.526 24.4351 12.9478 24.4351 12.2318C24.4351 11.5158 25.0087 10.9376 25.719 10.9376C26.4293 10.9376 27.0029 11.5158 27.0029 12.2318C27.0031 12.4018 26.97 12.5702 26.9056 12.7273C26.8411 12.8844 26.7466 13.0272 26.6273 13.1474C26.508 13.2676 26.3664 13.3629 26.2106 13.4279C26.0547 13.4928 25.8877 13.5262 25.719 13.526Z" fill="#101828"/>
</svg>
