<svg width="27" height="21" viewBox="0 0 27 21" fill="none" xmlns="http://www.w3.org/2000/svg">
<path d="M25.65 -0.000488281H1.35C0.604441 -0.000488281 0 0.61266 0 1.36908V19.6299C0 20.3863 0.604389 20.9995 1.35 20.9995H25.65C26.3956 20.9995 27 20.3864 27 19.6299V1.36908C27 0.612714 26.3956 -0.000488281 25.65 -0.000488281ZM26.1 19.63C26.1 19.8821 25.8985 20.0865 25.65 20.0865H1.35C1.10146 20.0865 0.900018 19.8821 0.900018 19.63V1.36908C0.900018 1.11694 1.10146 0.912574 1.35 0.912574H25.65C25.8985 0.912574 26.1 1.11694 26.1 1.36908V19.63Z" fill="#101828"/>
<path d="M24.79 1.82745C24.6711 1.81691 24.5529 1.85473 24.4615 1.93262L14.0799 10.78C13.7451 11.0655 13.2564 11.0655 12.9216 10.78L2.54018 1.93257C2.41704 1.82771 2.24808 1.79743 2.097 1.85318C1.94591 1.90892 1.83559 2.04224 1.80764 2.2029C1.77969 2.36356 1.83833 2.5271 1.96147 2.63196L12.343 11.4789C13.0121 12.0504 13.9895 12.0504 14.6587 11.4789L25.0401 2.63201C25.1316 2.55417 25.1887 2.44268 25.1991 2.32204C25.2095 2.2014 25.1722 2.08151 25.0955 1.9888C25.0188 1.89598 24.9089 1.83799 24.79 1.82745Z" fill="#101828"/>
<path d="M8.65497 11.4162C8.49566 11.3802 8.32966 11.4344 8.22102 11.558L1.921 18.4058C1.80699 18.5243 1.76512 18.6961 1.81163 18.8548C1.85815 19.0135 1.98571 19.1342 2.14497 19.1703C2.30428 19.2063 2.47029 19.1521 2.57892 19.0285L8.87894 12.1807C8.99295 12.0622 9.03482 11.8904 8.98831 11.7317C8.9418 11.573 8.81428 11.4523 8.65497 11.4162Z" fill="#101828"/>
<path d="M18.7781 11.5575C18.6696 11.4339 18.5035 11.3797 18.3442 11.4158C18.1849 11.4518 18.0574 11.5726 18.0109 11.7312C17.9643 11.89 18.0062 12.0618 18.1202 12.1802L24.4202 19.028C24.5911 19.2055 24.8704 19.2122 25.0492 19.0429C25.228 18.8736 25.2409 18.5905 25.0782 18.4053L18.7781 11.5575Z" fill="#101828"/>
</svg>
