<svg width="29" height="29" viewBox="0 0 29 29" fill="none" xmlns="http://www.w3.org/2000/svg">
<path d="M14.5016 0C6.4927 0 0 6.49165 0 14.4993C0 22.507 6.4927 28.9986 14.5016 28.9986C14.9385 28.9986 15.3738 28.979 15.8069 28.9401C16.2096 28.904 16.6087 28.8488 17.0047 28.7796L17.157 28.7527C24.5204 27.3788 29.6259 20.624 28.9372 13.1662C28.2485 5.7084 21.9923 0.00235991 14.5016 0V0ZM13.3366 27.9808H13.3024C12.9264 27.9475 12.5532 27.8972 12.1834 27.8328C12.1621 27.829 12.1409 27.8267 12.1201 27.8227C11.7585 27.758 11.4007 27.6778 11.0464 27.5841L10.9607 27.5621C10.6152 27.4685 10.2734 27.3597 9.9366 27.2388C9.90167 27.2263 9.8665 27.2152 9.83157 27.2023C9.50136 27.081 9.17706 26.945 8.85771 26.798C8.81806 26.7803 8.7784 26.7633 8.73875 26.7444C8.42554 26.5995 8.11847 26.4362 7.81729 26.2644C7.77481 26.2404 7.73185 26.2163 7.68936 26.1924C7.39291 26.0195 7.1033 25.834 6.81912 25.6381C6.77617 25.6081 6.73274 25.5791 6.69002 25.5491C6.41079 25.3511 6.13865 25.1409 5.87359 24.9209L5.80066 24.8572V20.7823C5.8042 17.8476 8.18267 15.4695 11.1179 15.4659H17.8854C20.8206 15.4695 23.1991 17.8476 23.2026 20.7823V24.8577L23.1384 24.9112C22.8682 25.1369 22.5908 25.3502 22.306 25.5517C22.2682 25.5782 22.23 25.6034 22.1924 25.6294C21.9049 25.829 21.6104 26.0169 21.3087 26.1934C21.271 26.2153 21.2323 26.2361 21.1947 26.2578C20.8891 26.4317 20.5782 26.596 20.2612 26.744C20.2249 26.7609 20.1883 26.7768 20.1515 26.7923C19.8295 26.9408 19.5024 27.0774 19.1698 27.1997C19.1368 27.2119 19.1035 27.2225 19.0731 27.2341C18.7346 27.3554 18.3914 27.4651 18.044 27.5593L17.9607 27.5801C17.6059 27.6738 17.2478 27.7545 16.8858 27.8194C16.865 27.8231 16.8442 27.8257 16.8235 27.829C16.4531 27.8937 16.0795 27.944 15.7033 27.9775H15.669C15.2824 28.0108 14.8956 28.0287 14.504 28.0287C14.1124 28.0287 13.7225 28.0141 13.3366 27.9808ZM24.1694 23.9616V20.7823C24.1654 17.314 21.3543 14.5033 17.8854 14.4993H11.1179C7.649 14.5033 4.83789 17.314 4.83388 20.7823V23.9611C-0.372454 18.6483 -0.314391 10.1302 4.9637 4.88856C10.2418 -0.352807 18.7615 -0.352807 24.0396 4.88856C29.3177 10.1302 29.3757 18.6483 24.1694 23.9611V23.9616Z" fill="#101828"/>
<path d="M14.5023 3.86768C11.8326 3.86768 9.66846 6.03148 9.66846 8.70078C9.66846 11.3701 11.8326 13.5339 14.5023 13.5339C17.1721 13.5339 19.3362 11.3701 19.3362 8.70078C19.3334 6.03266 17.1709 3.87051 14.5023 3.86768ZM14.5023 12.5673C12.3665 12.5673 10.6352 10.8363 10.6352 8.70078C10.6352 6.56529 12.3665 4.8343 14.5023 4.8343C16.6382 4.8343 18.3694 6.56529 18.3694 8.70078C18.3671 10.8351 16.637 12.5649 14.5023 12.5673Z" fill="#101828"/>
</svg>
