<svg xmlns="http://www.w3.org/2000/svg" width="622" height="210" viewBox="0 0 622 210"><g><g><path fill="#18a4e1" d="M602.263 158.24c3.56-2.402 7.073-4.507 10.237-7.095 1.4-1.11 2.628-3.04 2.918-4.819 1.919-10.643 3.719-21.305 5.163-32.025 2.012-14.95.01-29.579-4.6-43.904-4.45-13.812-11.78-26.024-21.499-36.678-10.61-11.53-23.129-20.328-37.852-26.076-14.77-5.818-30.035-8.247-45.86-7.237-21.172 1.294-40.017 8.872-56.648 21.923-10.963 8.56-19.921 19.028-26.5 31.345-3.231 5.986-6.422 12.1-7.781 18.938-1.31 6.908-3.46 13.74-4.294 20.724-.748 6.452-.555 13.118-.028 19.595 1.218 13.832 5.25 26.845 11.83 39.179 9.138 17.193 22.257 30.532 39.03 40.145 9.243 5.343 19.115 9.449 29.78 11.31 10.545 1.841 21.053 3.92 31.627 5.584 1.72.28 3.904-.398 5.462-1.36 2.95-1.65 5.523-3.97 8.432-5.747.81-.476 2.985-.366 3.214.098 2.74 5.985 7.497 3.719 11.498 2.728 13.216-3.323 24.81-9.77 34.632-19.185 5.635-5.411 10.407-11.51 14.04-18.465 1.06-2.018 1.252-3.57-.415-5.302-.783-.798-1.312-2.04-2.386-3.676z"/></g><g><g><text dominant-baseline="text-before-edge" style="text-transform:uppercase;font-kerning:normal" fill="#fff" font-family="'Aktiv Grotesk Corp','AktivGroteskCorp-Bold'" font-size="36" transform="translate(567 167)"><tspan style="text-transform:uppercase;font-kerning:normal">®</tspan></text></g></g><g><path fill="#fff" d="M115.65 10.3c.305 2.891.761 5.935.761 8.826 0 54.173 0 108.346.152 162.519 0 6.848-1.521 9.283-8.826 9.131-19.782-.457-19.782-.153-19.782-19.478v-40.022c-2.891 0-2.587 2.131-3.043 3.5-4.87 16.587-9.74 33.174-14.304 49.76-1.218 4.566-3.348 6.24-8.218 6.24-14.913 0-15.065.152-19.325-14.305-4.11-14.152-8.218-28.304-12.326-42.455-.457-1.674-1.066-3.348-2.74-4.718 0 17.804-.304 35.761.153 53.565.152 6.086-1.674 7.913-7.761 7.913C0 190.623 0 190.928 0 170.689V20.039c0-3.196.152-6.391.304-9.587H25.26c.153 1.37.305 2.74.61 3.957 9.586 33.325 19.173 66.803 28.912 100.129.76 2.891.76 6.239 3.652 9.13 4.717-15.978 9.282-31.5 13.543-46.869C78.368 54.582 84.455 32.365 90.694 10.3h24.956z"/></g><g><path fill="#fff" d="M456.36 10.304c.304 2.435.913 5.022.913 7.457 0 41.238.152 82.477 0 123.715 0 11.413-1.674 22.522-8.37 32.261-10.347 15.369-25.564 18.26-42.15 15.978-15.675-2.131-25.718-11.718-30.74-26.478-1.826-5.478-3.043-11.109-3.043-16.891 0-45.347 0-90.695.152-136.194h27.848c0 43.065 0 86.13.152 129.194 0 3.652.152 7.456.76 10.956 1.674 9.587 4.87 12.174 13.696 12.174 8.217-.152 12.022-3.652 13.087-12.935.456-3.652.456-7.304.456-11.108V18.826c0-3.043-.304-5.935 1.065-8.826 8.522.304 17.348.304 26.174.304z"/></g><g><path fill="#fff" d="M360.345 10.302c0 2.74-.609 5.326-1.826 7.913-12.326 25.565-24.348 51.13-36.826 76.695-1.978 4.108-1.978 7.456 0 11.565 12.174 25.412 24.043 50.825 36.065 76.238 3.5 7.456 2.739 7.456-5.022 8.673-16.282 2.587-26.021-2.891-31.195-19.173-3.956-12.326-10.956-23.891-16.587-35.761-.152-.456-.608-.76-.913-1.217-3.043 1.826-3.5 5.174-4.87 7.913a2673.3 2673.3 0 0 0-20.086 42.456c-1.826 3.804-4.108 5.782-8.37 5.478-5.477-.304-11.108 0-16.738-.152-7.457-.152-8.217-1.218-5.022-8.217 11.717-24.957 23.435-50.065 35.608-74.869 2.587-5.174 2.74-9.282.152-14.76-12.021-25.109-23.738-50.522-35.608-75.63-1.065-2.435-1.521-4.717-1.521-7.304h2.739c7.913 2.283 15.826 2.283 23.586 0h2.74c8.825 18.565 17.651 37.13 27.086 57.064 9.587-20.086 18.26-38.5 27.086-57.064h2.74c7.456 2.283 14.76 2.283 22.217 0 1.826.152 3.195.152 4.565.152z"/></g><g><path fill="#fff" d="M561.054 34.653c5.022 12.326 5.326 25.108 5.022 38.043-.152 3.5-2.283 4.108-5.174 4.108-5.782 0-11.565-.152-17.348 0-4.565.152-6.086-1.978-6.086-6.239 0-7.304.456-14.76-1.37-22.065-1.674-6.086-4.87-9.739-11.26-10.347-6.696-.609-12.63.608-15.979 7.152-6.39 12.63-7.608 31.956 12.478 40.63 7.153 3.195 14.609 6.086 21.304 10.043 32.413 19.326 28.761 64.216 8.979 83.086-13.391 12.63-29.826 14.304-46.717 8.673-18.109-5.934-24.956-20.847-27.239-38.347-.76-6.543-.456-13.391-.608-20.087-.153-4.26 1.826-5.782 5.934-5.63a279.99 279.99 0 0 0 15.978 0c4.87-.152 6.544 1.978 6.391 6.696-.152 7.152-.608 14.304 1.522 21.304 1.978 6.543 5.783 10.195 12.935 10.5 8.521.304 13.543-2.283 16.282-8.979 6.543-15.217 1.37-29.064-13.695-36.216-10.044-4.718-20.391-8.674-29.065-15.978-27.543-23.283-19.782-80.651 16.282-89.63 2.891-1.065 34.087-6.239 51.434 23.283z"/></g><g><path fill="#fff" d="M199.04 10.3c13.392 57.064 26.63 114.281 40.022 171.345 2.13 9.131 1.978 9.435-7.304 9.283-24.957-.457-18.565 3.956-24.044-19.63-1.673-7.153-4.108-10.348-11.717-9.131-4.565.609-9.282.152-13.847.152-12.174 0-12.022 0-14.913 12.022-4.87 20.087-.152 16.282-21 16.739h-4.87c-4.869.152-6.543-1.37-5.325-6.696 11.108-47.477 22.064-95.107 33.02-142.584 2.436-10.5 5.175-21 7.762-31.5h2.739c5.63 2.283 11.108 2.283 16.739 0h2.739zM188.39 88.516c-1.066 1.674-1.522 1.978-1.522 2.435-2.13 8.978-4.109 17.956-6.24 26.934-4.26 17.804-4.26 17.804 14 16.587h.762c2.586 0 3.804-.609 3.043-3.652-3.5-13.848-6.543-27.391-10.043-42.304z"/></g></g></svg>