<svg xmlns="http://www.w3.org/2000/svg" width="38" height="29" viewBox="0 0 38 29"><g><g><g><path fill="#101828" d="M6.334 28.852v-1.703c0-.519-.217-.807-.671-.807a.718.718 0 0 0-.748.813v1.697h-.671v-1.703c0-.519-.224-.807-.665-.807a.715.715 0 0 0-.748.813v1.684H2.16v-3.06h.665v.378a1.01 1.01 0 0 1 .895-.455 1.12 1.12 0 0 1 1.01.544 1.183 1.183 0 0 1 1.073-.544 1.136 1.136 0 0 1 1.202 1.216v1.92zm10.608-2.465h-1.087v1.396c0 .307.121.512.44.512.208-.007.41-.067.589-.173l.192.57c-.25.155-.537.237-.831.236-.786 0-1.061-.422-1.061-1.133v-1.408h-.62v-.608h.607v-.928h.671v.928h1.093zm5.65-.698c.161.001.321.03.473.084l-.205.64a1.082 1.082 0 0 0-.415-.077c-.422 0-.64.282-.64.787v1.716h-.664v-3.06h.658v.371a.9.9 0 0 1 .806-.448zm-8.853.871a1.966 1.966 0 0 0-.959-.262c-.364 0-.581.153-.581.358s.23.262.517.3l.32.046c.665.096 1.067.332 1.067.915 0 .582-.51.999-1.393.999a2.203 2.203 0 0 1-1.323-.397l.32-.519c.293.218.65.33 1.016.32.454 0 .697-.134.697-.371 0-.173-.173-.269-.537-.32l-.32-.045c-.684-.096-1.055-.403-1.055-.902 0-.609.505-.98 1.279-.98.437-.015.87.096 1.246.32zm18.086-.87c.162 0 .321.028.473.083l-.204.64a1.082 1.082 0 0 0-.416-.077c-.422 0-.639.282-.639.787v1.716h-.665v-3.06h.659v.371a.902.902 0 0 1 .805-.448zm-8.552 1.6a1.547 1.547 0 0 1 1.63-1.6c.399-.02.791.11 1.1.364l-.32.538a1.341 1.341 0 0 0-.8-.275.98.98 0 0 0-.641 1.645.98.98 0 0 0 .642.313c.289-.003.569-.1.799-.275l.32.538c-.309.255-.701.385-1.1.365a1.541 1.541 0 0 1-1.63-1.6zm6.226 1.536h-.665v-.371a1.16 1.16 0 0 1-.959.448 1.597 1.597 0 0 1-1.598-1.6 1.601 1.601 0 0 1 1.598-1.6 1.16 1.16 0 0 1 .959.447v-.371h.665zm-2.422-1.151a.92.92 0 0 0 .875.607.923.923 0 0 0 .904-1.088.926.926 0 0 0-1.226-.706.924.924 0 0 0-.605.814.922.922 0 0 0 .052.373zm-8.065-1.966c.857 0 1.451.64 1.451 1.6v.256h-2.269a.848.848 0 0 0 .914.749c.324-.005.636-.118.889-.32l.32.493c-.357.291-.81.44-1.27.416a1.597 1.597 0 0 1-1.62-1.578 1.602 1.602 0 0 1 1.576-1.623zm-.022.588a.786.786 0 0 0-.812.743h1.598a.76.76 0 0 0-.773-.743zm16.667 2.529h-.639v-.371a1.16 1.16 0 0 1-.959.448 1.597 1.597 0 0 1-1.598-1.6 1.601 1.601 0 0 1 1.598-1.6 1.159 1.159 0 0 1 .96.447v-1.6h.638zm1.23-.41a.32.32 0 0 1 .1.064.298.298 0 0 1-.1.493.3.3 0 0 1-.12.026.32.32 0 0 1-.288-.186.301.301 0 0 1 .067-.333.32.32 0 0 1 .23-.086h-.002c.04 0 .078.008.114.022zm-.028.5a.24.24 0 0 0 .074-.052.237.237 0 0 0 0-.32.23.23 0 0 0-.259-.051.233.233 0 0 0-.077.051.237.237 0 0 0 0 .32.236.236 0 0 0 .179.07h-.007c.031 0 .062-.006.09-.018zm-.074-.362c.03-.002.06.008.084.026a.08.08 0 0 1 .028.067.077.077 0 0 1-.022.057.112.112 0 0 1-.067.03l.093.105h-.074l-.086-.106h-.029v.106h-.06v-.282zm-.07.054v.077h.07a.067.067 0 0 0 .039 0 .033.033 0 0 0 0-.029.033.033 0 0 0 0-.028.067.067 0 0 0-.038 0zm-3.463-.927a.918.918 0 0 0 .874.607.923.923 0 0 0 .905-1.088.926.926 0 0 0-1.226-.706.923.923 0 0 0-.605.815.92.92 0 0 0 .052.372zm-22.498 1.145h-.665v-.371a1.16 1.16 0 0 1-.959.448 1.597 1.597 0 0 1-1.598-1.6 1.601 1.601 0 0 1 1.598-1.6 1.159 1.159 0 0 1 .96.447v-.371h.664zm-2.48-1.517a.92.92 0 0 0 .933.98.923.923 0 0 0 .905-1.089.925.925 0 0 0-1.226-.706.924.924 0 0 0-.606.815z"/></g><g><g><path fill="#101828" d="M23.887 2.47H13.82v18.118h10.067z"/></g><g><path fill="#101828" d="M14.45 11.524a11.518 11.518 0 0 1 4.395-9.061A11.497 11.497 0 0 0 1.983 5.409a11.534 11.534 0 0 0 4.724 16.476 11.491 11.491 0 0 0 12.138-1.304 11.5 11.5 0 0 1-4.394-9.057z"/></g><g><path fill="#101828" d="M37.467 11.525c0 2.162-.608 4.28-1.753 6.113a11.512 11.512 0 0 1-4.725 4.25 11.491 11.491 0 0 1-12.139-1.305 11.519 11.519 0 0 0 4.396-9.06 11.536 11.536 0 0 0-4.396-9.059A11.497 11.497 0 0 1 35.714 5.41a11.534 11.534 0 0 1 1.753 6.113z"/></g><g><path fill="#101828" d="M36.37 18.658v-.371h.15v-.077h-.38v.077h.163v.371zm.738 0v-.448h-.115l-.134.32-.134-.32h-.102v.448h.083v-.336l.124.291h.087l.124-.291v.34z"/></g></g></g></g></svg>