<svg width="29" height="28" viewBox="0 0 29 28" fill="none" xmlns="http://www.w3.org/2000/svg">
<path d="M9.34137 19.2531C10.514 20.9064 11.6847 22.3851 12.4605 23.3375C12.5735 23.476 12.6793 23.6046 12.7818 23.7285H10.4404C10.1784 23.7285 9.96592 23.9409 9.96592 24.203C9.96592 24.4651 10.1784 24.6775 10.4404 24.6775H18.033C18.295 24.6775 18.5075 24.4651 18.5075 24.203C18.5075 23.9409 18.295 23.7285 18.033 23.7285H15.6916C15.7941 23.6046 15.8999 23.476 16.0134 23.3375C16.7887 22.3884 17.959 20.9064 19.132 19.2531C20.2959 17.6457 21.3435 15.9573 22.2668 14.2008C23.2358 12.2979 23.7275 10.7182 23.7275 9.50525C23.7307 6.98496 22.7306 4.56704 20.9481 2.7853C20.829 2.66185 20.6526 2.61225 20.4867 2.65557C20.3207 2.69889 20.1911 2.82835 20.1475 2.99423C20.104 3.16011 20.1533 3.33656 20.2766 3.45579C21.881 5.0598 22.7812 7.23642 22.7784 9.50519C22.7784 10.5672 22.3219 12.0022 21.4212 13.7699C20.5187 15.4857 19.4949 17.135 18.3576 18.7051C17.2007 20.337 16.0442 21.799 15.2779 22.7386C15.0231 23.0508 14.7939 23.327 14.5983 23.5605C14.5071 23.6647 14.3753 23.7245 14.2368 23.7245C14.0982 23.7245 13.9664 23.6647 13.8752 23.5605C13.6797 23.3271 13.4505 23.0508 13.1956 22.7386C12.4293 21.7995 11.2728 20.3374 10.1159 18.7051C8.97863 17.135 7.9548 15.4857 7.0523 13.7699C6.1507 12.0022 5.69515 10.5672 5.69515 9.50519C5.69487 6.06801 7.75043 2.96398 10.9151 1.62267C13.0415 0.731022 15.4369 0.731022 17.5633 1.62267C17.7195 1.68885 17.8991 1.66677 18.0345 1.56461C18.1699 1.46251 18.2405 1.29591 18.2198 1.12758C18.199 0.959245 18.0901 0.814771 17.9339 0.748595C13.1015 -1.28962 7.53177 0.974483 5.49206 5.8062C4.99741 6.97656 4.74372 8.23462 4.74611 9.50519C4.74611 10.7181 5.23776 12.2979 6.20676 14.2031C7.12999 15.9589 8.17762 17.6465 9.34137 19.2531Z" fill="#101828"/>
<path d="M14.2381 5.22199C14.5002 5.22199 14.7126 5.00956 14.7126 4.74747C14.7126 4.48538 14.5002 4.27295 14.2381 4.27295C11.9742 4.27289 10.0256 5.87212 9.58385 8.09251C9.14214 10.3129 10.3305 12.5361 12.422 13.4025C14.5136 14.2689 16.9258 13.5371 18.1836 11.6548C19.4414 9.77243 19.1943 7.2637 17.5936 5.66286C17.4744 5.53952 17.298 5.49003 17.1321 5.53346C16.9662 5.57689 16.8366 5.70646 16.7932 5.87234C16.7497 6.03828 16.7992 6.21468 16.9226 6.33385C18.2033 7.61449 18.401 9.62139 17.3948 11.1273C16.3887 12.6332 14.4588 13.2187 12.7856 12.5257C11.1123 11.8327 10.1616 10.0541 10.5149 8.2778C10.8681 6.50146 12.427 5.22204 14.2381 5.22199Z" fill="#101828"/>
<path d="M28.2935 25.8976L25.3751 20.6777C25.1112 20.2139 24.6174 19.9288 24.0839 19.9322H20.7018C20.4398 19.9322 20.2273 20.1446 20.2273 20.4067C20.2273 20.6688 20.4398 20.8812 20.7018 20.8812H24.0839C24.2738 20.8775 24.4511 20.9766 24.5475 21.1403L27.4649 26.3602C27.5444 26.496 27.5427 26.6645 27.4607 26.7987C27.3637 26.9588 27.1884 27.0548 27.0013 27.0502H1.47125C1.28429 27.0547 1.10923 26.9587 1.01236 26.7987C0.930277 26.6645 0.928665 26.496 1.00808 26.3602L3.92553 21.1403C4.02179 20.9766 4.19885 20.8776 4.38865 20.8812H7.77067C8.03276 20.8812 8.24519 20.6688 8.24519 20.4067C8.24519 20.1446 8.03276 19.9322 7.77067 19.9322H4.38871C3.85485 19.9287 3.3607 20.2137 3.09656 20.6777L0.1786 25.8976C-0.0646932 26.3273 -0.0590766 26.8545 0.193336 27.279C0.459262 27.731 0.946905 28.0059 1.47125 27.9994H27.0013C27.5255 28.0057 28.013 27.7309 28.2788 27.279C28.5312 26.8545 28.5368 26.3273 28.2935 25.8976Z" fill="#101828"/>
<path d="M23.2534 22.3049H21.3553C21.2616 22.3051 21.17 22.3328 21.0919 22.3847L19.6683 23.3338C19.4503 23.4792 19.3914 23.7739 19.5368 23.992C19.6823 24.21 19.977 24.2688 20.195 24.1234L21.4976 23.2541H23.2534C23.5155 23.2541 23.7279 23.0416 23.7279 22.7796C23.7279 22.5174 23.5155 22.3049 23.2534 22.3049Z" fill="#101828"/>
<path d="M20.4062 25.6264C20.4062 25.8885 20.6187 26.1009 20.8808 26.1009H24.6771C24.9392 26.1009 25.1516 25.8885 25.1516 25.6264C25.1516 25.3643 24.9392 25.1519 24.6771 25.1519H20.8808C20.6187 25.1519 20.4062 25.3643 20.4062 25.6264Z" fill="#101828"/>
<path d="M8.54235 24.2029C8.75156 24.2032 8.93624 24.0663 8.99702 23.8662C9.0578 23.666 8.98028 23.4496 8.80622 23.3335L7.38261 22.3844C7.30442 22.3325 7.21261 22.3047 7.11874 22.3047H5.22061C4.95852 22.3047 4.74609 22.5172 4.74609 22.7792C4.74609 23.0413 4.95858 23.2537 5.22061 23.2537H6.97638L8.28043 24.1231C8.35801 24.1749 8.44915 24.2026 8.54235 24.2029Z" fill="#101828"/>
<path d="M3.79483 25.1519C3.53274 25.1519 3.32031 25.3643 3.32031 25.6264C3.32031 25.8885 3.53274 26.1009 3.79483 26.1009H7.59115C7.85323 26.1009 8.06566 25.8885 8.06566 25.6264C8.06566 25.3643 7.85323 25.1519 7.59115 25.1519H3.79483Z" fill="#101828"/>
</svg>
