<svg xmlns="http://www.w3.org/2000/svg" width="103" height="29" viewBox="0 0 103 29"><g><g><g><path fill="#101828" d="M27.568 0v.013c-.013 0-3.996-.013-5.059 3.799a4143.955 4143.955 0 0 1-3.793 13.41h-.759S15.15 7.359 14.163 3.8C13.101-.013 9.105 0 9.105 0H0v29h9.105V11.777h.759L15.174 29h6.324l5.311-17.21h.759V29h9.105V0z"/></g><g><path fill="#101828" d="M60.823 0s-2.668.24-3.92 3.04l-6.45 14.183h-.758V0H40.59v29h8.6s2.794-.253 4.046-3.04l6.323-14.183h.758V29h9.105V0z"/></g><g><path fill="#101828" d="M73.47 13.17V29h9.105v-9.245h9.864c4.3 0 7.941-2.748 9.294-6.585z"/></g><g><path fill="#101828" d="M92.436 0H72.19c1.012 5.521 5.147 9.954 10.496 11.397 1.214.33 2.491.507 3.806.507h15.605c.14-.659.202-1.33.202-2.026C102.3 4.42 97.886 0 92.436 0z"/></g></g></g></svg>