<svg xmlns="http://www.w3.org/2000/svg" width="24" height="23" viewBox="0 0 24 23"><defs><linearGradient id="50mva" x1="-2.79" x2="27.21" y1="-4" y2="26" gradientUnits="userSpaceOnUse"><stop offset="0" stop-color="#ffa090"/><stop offset="1" stop-color="#f47965"/></linearGradient></defs><g><g transform="rotate(135 12.5 11.5)"><path fill="url(#50mva)" d="M12.21 26a1 1 0 0 0 1-1V12h13a1 1 0 1 0 0-2h-13V-3a1 1 0 1 0-2 0v13h-13a1 1 0 1 0 0 2h13v13a1 1 0 0 0 1 1z"/><path fill="none" stroke="#e58171" stroke-miterlimit="20" d="M12.21 26a1 1 0 0 0 1-1V12v0h13a1 1 0 1 0 0-2h-13v0-13a1 1 0 1 0-2 0v13h-13a1 1 0 1 0 0 2h13v13a1 1 0 0 0 1 1z"/></g></g></svg>