<svg width="56" height="50" viewBox="0 0 56 50" fill="none" xmlns="http://www.w3.org/2000/svg">
<path fill-rule="evenodd" clip-rule="evenodd" d="M28 40C36.2843 40 43 33.2843 43 25C43 16.7157 36.2843 10 28 10C19.7157 10 13 16.7157 13 25C13 33.2843 19.7157 40 28 40ZM33.3075 27.9567C32.3477 28.5652 31.2936 29.0065 30.1891 29.262L33.1906 32.2928C33.4734 32.5887 33.6316 32.984 33.6316 33.3954C33.6316 33.8068 33.4734 34.2021 33.1906 34.4979C32.5878 35.1299 31.5934 35.1437 30.9672 34.5393L28.0209 31.5578L25.0571 34.5353C24.7596 34.8458 24.3575 35 23.9548 35C23.5521 35 23.1494 34.8458 22.8512 34.5353L22.8246 34.5084C22.537 34.2108 22.3779 33.8101 22.3823 33.3941C22.3867 32.9781 22.5542 32.5809 22.848 32.2895L25.8489 29.2581C24.746 29.0045 23.6936 28.5641 22.7363 27.9554L22.7337 27.9521C22.559 27.8413 22.4078 27.6967 22.2885 27.5267C22.1693 27.3567 22.0844 27.1646 22.0388 26.9614C21.9932 26.7582 21.9877 26.5478 22.0227 26.3425C22.0577 26.1371 22.1324 25.9408 22.2426 25.7647V25.7614C22.4657 25.4067 22.8188 25.1559 23.2246 25.0638C23.6304 24.9716 24.0557 25.0457 24.4075 25.2698C25.4912 25.9534 26.7431 26.3158 28.0206 26.3158C29.2981 26.3158 30.5499 25.9534 31.6336 25.2698C31.9858 25.0614 32.4045 24.9995 32.8011 25.0974C33.1976 25.1952 33.5409 25.4451 33.7584 25.7942C33.9758 26.1432 34.0504 26.5641 33.9662 26.9677C33.8821 27.3713 33.6458 27.7259 33.3075 27.9567ZM31.8121 23.2515C30.8062 24.2674 29.4425 24.8384 28.0203 24.8393V24.8426C26.5977 24.8408 25.234 24.2691 24.2282 23.2527C23.2224 22.2363 22.6566 20.8583 22.6551 19.421C22.6551 16.4335 25.0636 14 28.0203 14C30.9769 14 33.3854 16.4335 33.3854 19.421C33.3839 20.858 32.818 22.2356 31.8121 23.2515ZM29.5888 17.8361C29.1728 17.4157 28.6086 17.1794 28.0203 17.1791V17.1758C27.4316 17.1779 26.8676 17.4151 26.4513 17.8357C26.035 18.2563 25.8002 18.8261 25.7982 19.421C25.7994 20.0162 26.0338 20.5867 26.4503 21.0077C26.8667 21.4287 27.4312 21.6659 28.0203 21.6674C28.6091 21.6661 29.1733 21.4288 29.5893 21.0077C30.0052 20.5865 30.2389 20.0159 30.2391 19.421C30.2387 18.8265 30.0048 18.2565 29.5888 17.8361Z" fill="#101828"/>
</svg>
