<svg xmlns="http://www.w3.org/2000/svg" width="48" height="44" viewBox="0 0 48 44"><g><g><g><g><g><path fill="#f9db2b" d="M42.966 0c2.802 0 5.09 2.288 5.069 5.09v24.012a5.083 5.083 0 0 1-5.08 5.08H30.687l1.48 7.388h4.785c.514 0 .924.41.924.923 0 .514-.41.924-.924.924h-25.87a.918.918 0 0 1-.923-.924c0-.514.41-.923.924-.923h4.785l1.48-7.389H5.079A5.084 5.084 0 0 1 0 29.102V5.079A5.084 5.084 0 0 1 5.08 0zM17.757 41.59h12.53l-1.479-7.388h-9.571zm28.44-14.786H1.848v2.309a3.234 3.234 0 0 0 3.232 3.232h37.887a3.234 3.234 0 0 0 3.232-3.232zm0-1.847V5.09a3.234 3.234 0 0 0-3.231-3.232H5.079A3.234 3.234 0 0 0 1.847 5.09v16.172h5.541c.515 0 .924.41.924.924s-.41.924-.924.924h-5.54v1.847z"/></g></g></g><g><g><g><path fill="#f9db2b" d="M24.02 28.3c-.703 0-1.27.567-1.27 1.27 0 .703.567 1.27 1.27 1.27.703 0 1.27-.567 1.27-1.27 0-.703-.567-1.27-1.27-1.27z"/></g></g></g><g><g><g><path fill="#f9db2b" d="M31.588 17.7a.906.906 0 0 1 0 1.302l-1.952 1.952a.932.932 0 0 1-.65.273.932.932 0 0 1-.65-.273l-1.963-1.963-1.638 1.637a.943.943 0 0 1-.913.231.931.931 0 0 1-.65-.682l-1.963-8.49a.954.954 0 0 1 .252-.86.9.9 0 0 1 .86-.253l8.49 1.963a.95.95 0 0 1 .683.65.919.919 0 0 1-.23.914l-1.638 1.637zm-1.962.662l-1.963-1.963a.938.938 0 0 1 0-1.312l1.113-1.112-5.426-1.25 1.249 5.427 1.112-1.113a.932.932 0 0 1 .651-.273c.231 0 .472.095.65.273l1.963 1.963z"/></g></g></g><g><g><g><path fill="#f9db2b" d="M20.227 8.291l-.924-.923a.938.938 0 0 0-1.311 0c-.368.356-.357.944 0 1.311l.923.924c.179.178.42.273.65.273.232 0 .473-.095.651-.273a.928.928 0 0 0 .01-1.312z"/></g></g></g><g><g><g><path fill="#f9db2b" d="M18.415 10.8h-1.311a.918.918 0 0 0-.924.924c0 .514.41.923.924.923h1.311c.515 0 .924-.41.924-.923a.918.918 0 0 0-.924-.924z"/></g></g></g><g><g><g><path fill="#f9db2b" d="M20.223 13.848a.938.938 0 0 0-1.312 0l-.923.923a.938.938 0 0 0 0 1.312c.178.178.42.273.65.273.231 0 .473-.095.651-.273l.924-.924a.928.928 0 0 0 .01-1.311z"/></g></g></g><g><g><g><path fill="#f9db2b" d="M26.693 7.368a.938.938 0 0 0-1.312 0l-.923.923a.938.938 0 0 0 0 1.312c.178.178.42.273.65.273a.914.914 0 0 0 .651-.273l.924-.924a.91.91 0 0 0 .01-1.311z"/></g></g></g><g><g><g><path fill="#f9db2b" d="M22.344 5.57a.918.918 0 0 0-.924.924v1.311c0 .515.41.924.924.924s.923-.41.923-.924V6.494a.925.925 0 0 0-.923-.924z"/></g></g></g></g></g></svg>