<svg width="29" height="28" viewBox="0 0 29 28" fill="none" xmlns="http://www.w3.org/2000/svg">
<path d="M27.2668 21.6008L21.5992 17.8211C20.88 17.3453 19.9159 17.5019 19.3841 18.1809L17.7332 20.3035C17.521 20.5833 17.1354 20.6644 16.8284 20.4939L16.5144 20.3208C15.4733 19.7534 14.178 19.0469 11.5682 16.4362C8.95835 13.8254 8.25048 12.5291 7.68304 11.49L7.51085 11.1759C7.338 10.869 7.41761 10.4817 7.69748 10.2679L9.81873 8.61742C10.4974 8.08564 10.6542 7.1218 10.179 6.40234L6.39932 0.734718C5.91226 0.00208118 4.93508 -0.217852 4.18106 0.235412L1.81107 1.65907C1.0664 2.09686 0.520068 2.80587 0.286628 3.63754C-0.566802 6.74712 0.0752252 12.1138 7.98079 20.0203C14.2695 26.3085 18.9511 27.9995 22.169 27.9995C22.9096 28.0027 23.6472 27.9064 24.3621 27.7131C25.194 27.4799 25.9031 26.9335 26.3406 26.1886L27.7657 23.82C28.2196 23.0659 27.9998 22.0881 27.2668 21.6008ZM26.9616 23.3412L25.5398 25.7112C25.2257 26.2489 24.7157 26.6442 24.1166 26.8144C21.246 27.6025 16.2307 26.9497 8.64103 19.36C1.05136 11.7704 0.398618 6.75554 1.18676 3.88443C1.35715 3.28467 1.75294 2.77399 2.29124 2.45935L4.66123 1.03755C4.9884 0.840693 5.41252 0.936114 5.62386 1.25404L7.67703 4.33655L9.40029 6.92117C9.60667 7.23325 9.53886 7.65151 9.24445 7.88244L7.12271 9.53287C6.47702 10.0266 6.29263 10.9199 6.69017 11.629L6.85865 11.9351C7.45502 13.0288 8.19646 14.3895 10.9034 17.096C13.6102 19.8024 14.9705 20.5439 16.0637 21.1402L16.3703 21.3091C17.0793 21.7066 17.9727 21.5222 18.4664 20.8765L20.1168 18.7548C20.3478 18.4606 20.7659 18.3928 21.0781 18.599L26.7452 22.3786C27.0634 22.5898 27.1588 23.0141 26.9616 23.3412Z" fill="#101828"/>
</svg>
