<svg xmlns="http://www.w3.org/2000/svg" width="59" height="56" viewBox="0 0 59 56"><defs><linearGradient id="svssa" x1="10.82" x2="13.77" y1="7.4" y2="9.25" gradientUnits="userSpaceOnUse"><stop offset="0" stop-color="#ffa090"/><stop offset="1" stop-color="#f47965"/></linearGradient><linearGradient id="svssb" x1="15.73" x2="30.48" y1="7.4" y2="9.25" gradientUnits="userSpaceOnUse"><stop offset="0" stop-color="#ffa090"/><stop offset="1" stop-color="#f47965"/></linearGradient><linearGradient id="svssc" x1="0" x2="59" y1="0" y2="55.53" gradientUnits="userSpaceOnUse"><stop offset="0" stop-color="#ffa090"/><stop offset="1" stop-color="#f47965"/></linearGradient><linearGradient id="svssd" x1="33.44" x2="38.36" y1="33.32" y2="39.8" gradientUnits="userSpaceOnUse"><stop offset="0" stop-color="#ffa090"/><stop offset="1" stop-color="#f47965"/></linearGradient><linearGradient id="svsse" x1="7.87" x2="14.75" y1="15.74" y2="22.22" gradientUnits="userSpaceOnUse"><stop offset="0" stop-color="#ffa090"/><stop offset="1" stop-color="#f47965"/></linearGradient><linearGradient id="svssf" x1="7.87" x2="14.75" y1="24.06" y2="30.54" gradientUnits="userSpaceOnUse"><stop offset="0" stop-color="#ffa090"/><stop offset="1" stop-color="#f47965"/></linearGradient><linearGradient id="svssg" x1="7.87" x2="14.75" y1="32.39" y2="38.87" gradientUnits="userSpaceOnUse"><stop offset="0" stop-color="#ffa090"/><stop offset="1" stop-color="#f47965"/></linearGradient><linearGradient id="svssh" x1="7.87" x2="14.75" y1="40.72" y2="47.2" gradientUnits="userSpaceOnUse"><stop offset="0" stop-color="#ffa090"/><stop offset="1" stop-color="#f47965"/></linearGradient><linearGradient id="svssi" x1="16.72" x2="32.45" y1="18.51" y2="20.36" gradientUnits="userSpaceOnUse"><stop offset="0" stop-color="#ffa090"/><stop offset="1" stop-color="#f47965"/></linearGradient><linearGradient id="svssj" x1="16.72" x2="29.5" y1="26.84" y2="28.69" gradientUnits="userSpaceOnUse"><stop offset="0" stop-color="#ffa090"/><stop offset="1" stop-color="#f47965"/></linearGradient><linearGradient id="svssk" x1="16.72" x2="27.54" y1="35.17" y2="37.02" gradientUnits="userSpaceOnUse"><stop offset="0" stop-color="#ffa090"/><stop offset="1" stop-color="#f47965"/></linearGradient><linearGradient id="svssl" x1="16.72" x2="27.54" y1="43.5" y2="45.35" gradientUnits="userSpaceOnUse"><stop offset="0" stop-color="#ffa090"/><stop offset="1" stop-color="#f47965"/></linearGradient></defs><g><g><path fill="url(#svssa)" d="M11.803 9.25h.984c.543 0 .983-.413.983-.924 0-.512-.44-.926-.983-.926h-.984c-.543 0-.983.414-.983.926 0 .51.44.925.983.925z"/></g><g><path fill="url(#svssb)" d="M16.714 9.25h12.783c.543 0 .983-.413.983-.924 0-.512-.44-.926-.983-.926H16.714c-.543 0-.984.414-.984.926 0 .51.44.925.984.925z"/></g><g><path fill="url(#svssc)" d="M50.074 29.616c4.922 0 8.926 4.017 8.926 8.95v4.006c0 7.146-5.793 12.957-12.912 12.957h-3.676a12.798 12.798 0 0 1-2.74-.3 3.025 3.025 0 0 1-1.322.3H2.95C1.32 55.53 0 54.286 0 52.753V8.33c0-1.533 1.32-2.776 2.95-2.776h4.114c.415-1.106 1.524-1.846 2.77-1.851H15.1C15.928 1.485 18.153 0 20.65 0c2.497 0 4.722 1.485 5.549 3.703h5.268c1.245.005 2.353.745 2.769 1.85h4.114c1.63 0 2.95 1.244 2.95 2.777v15.617a7.76 7.76 0 0 1 2.53 3.609c1.125-2.622 3.184-4.794 5.824-6.144.467-.244 1.054-.094 1.326.339.27.432.126.99-.326 1.255-4.25 2.362-5.37 5.453-5.584 7.582.423-.333.907-.59 1.428-.76a4.857 4.857 0 0 1 1.419-.212h2.157zm-8.253-1.856c-.796-2.193-2.976-3.673-5.437-3.694h-.021a16.972 16.972 0 0 0-1.89.099c-.123 1.279-.168 4.852 3.086 5.466.026.005.044.02.068.026.264-.024.53-.04.799-.04h2.151c.514 0 1.025.082 1.509.246.099.03.187.084.285.123a11.812 11.812 0 0 0-.55-2.23zm-9.99 22.217a12.898 12.898 0 0 1-2.331-7.404v-4.008c-.046-3.443 2.001-6.61 5.272-8.153-2.34-1.78-2.517-5.151-2.17-7.055.09-.38.258-1.046 2.798-1.131v-11.12h-1.164c-.416 1.106-1.524 1.847-2.77 1.851H9.834c-1.245-.004-2.354-.745-2.769-1.85H5.9v38.87zM39.332 8.33c0-.511-.44-.925-.983-.925h-3.933v1.85h.983c1.086 0 1.966.83 1.966 1.851v11.2a8.255 8.255 0 0 1 1.967.507zm-29.5-2.776c-.543 0-.983.414-.983.925v3.702c0 .511.44.925.983.925h21.634c.543 0 .983-.414.983-.925V6.48c0-.511-.44-.925-.983-.925h-5.999a.805.805 0 0 1-.47-.125.978.978 0 0 1-.19-.122.878.878 0 0 1-.093-.098.89.89 0 0 1-.12-.167 1.033 1.033 0 0 1-.055-.132.89.89 0 0 1-.041-.099c-.374-1.723-1.985-2.96-3.854-2.96-1.868 0-3.48 1.237-3.854 2.96a.75.75 0 0 1-.039.086.92.92 0 0 1-.461.532.962.962 0 0 1-.361.105.853.853 0 0 1-.098.02zm25.96 48.124a13.026 13.026 0 0 1-2.401-1.85H5.9c-1.086 0-1.967-.83-1.967-1.851v-38.87c0-1.023.88-1.852 1.967-1.852h.983v-1.85H2.95c-.543 0-.983.414-.983.925v44.423c0 .511.44.926.983.926zm21.24-15.113c0-3.912-3.122-7.098-6.96-7.1h-2.171a2.836 2.836 0 0 0-.786.121l-.048.013c-1.14.436-1.871 1.493-1.835 2.65v.92c0 .511-.44.926-.983.926-.543 0-.984-.415-.984-.926v-.917c.034-1.16-.704-2.215-1.847-2.646a2.657 2.657 0 0 0-.825-.139h-2.168c-3.837 0-6.96 3.186-6.96 7.098v4.007c0 6.126 4.912 11.106 10.946 11.106h3.676c6.034 0 10.945-4.982 10.945-11.105z"/></g><g><path fill="url(#svssd)" d="M37.063 33.37c-.149.044-3.623 1.185-3.623 5.505 0 .51.44.925.984.925.542 0 .983-.414.983-.925 0-2.938 2.175-3.715 2.286-3.752.514-.164.79-.69.617-1.174-.175-.484-.733-.744-1.247-.58z"/></g><g><path fill="url(#svsse)" d="M12.787 15.74c1.086 0 1.967.829 1.967 1.851v2.777c0 1.022-.88 1.85-1.967 1.85h-2.95c-1.087 0-1.967-.828-1.967-1.85V17.59c0-1.022.88-1.851 1.967-1.851zm0 4.628V17.59h-2.95v2.777z"/></g><g><path fill="url(#svssf)" d="M12.787 24.06c1.086 0 1.967.829 1.967 1.851v2.776c0 1.022-.88 1.852-1.967 1.852h-2.95c-1.087 0-1.967-.83-1.967-1.852v-2.776c0-1.022.88-1.851 1.967-1.851zm0 4.627v-2.776h-2.95v2.776z"/></g><g><path fill="url(#svssg)" d="M12.787 32.39c1.086 0 1.967.829 1.967 1.851v2.776c0 1.022-.88 1.851-1.967 1.851h-2.95c-1.087 0-1.967-.829-1.967-1.85V34.24c0-1.022.88-1.851 1.967-1.851zm0 4.627v-2.776h-2.95v2.776z"/></g><g><path fill="url(#svssh)" d="M12.787 40.72c1.086 0 1.967.829 1.967 1.851v2.777c0 1.022-.88 1.85-1.967 1.85h-2.95c-1.087 0-1.967-.828-1.967-1.85V42.57c0-1.022.88-1.851 1.967-1.851zm0 4.628V42.57h-2.95v2.777z"/></g><g><path fill="url(#svssi)" d="M17.704 20.36H31.47c.543 0 .984-.413.984-.925 0-.51-.44-.925-.984-.925H17.704c-.544 0-.984.414-.984.925 0 .512.44.926.984.926z"/></g><g><path fill="url(#svssj)" d="M28.52 26.84H17.704c-.544 0-.984.414-.984.926 0 .51.44.925.984.925H28.52c.543 0 .983-.414.983-.925 0-.512-.44-.926-.983-.926z"/></g><g><path fill="url(#svssk)" d="M26.553 35.17h-8.85c-.543 0-.983.414-.983.926 0 .51.44.925.984.925h8.85c.543 0 .983-.414.983-.925 0-.512-.44-.926-.984-.926z"/></g><g><path fill="url(#svssl)" d="M26.553 43.5h-8.85c-.543 0-.983.414-.983.926 0 .51.44.925.984.925h8.85c.543 0 .983-.414.983-.925 0-.512-.44-.926-.984-.926z"/></g></g>
</svg>