<svg xmlns="http://www.w3.org/2000/svg" width="37" height="37" viewBox="0 0 37 37"><g><g><g><g><g><path fill="#acacac" d="M12.134 34.48C3.304 31.058-1.08 21.123 2.345 12.293A17.15 17.15 0 0 1 13.118 2.155a.592.592 0 1 0-.36-1.127C3.114 4.11-2.207 14.425.875 24.07a18.332 18.332 0 0 0 10.907 11.54l-.348 1.124 6.632.263-5.612-3.547z"/></g><g><path fill="#acacac" d="M35.845 13.057A18.331 18.331 0 0 0 24.894 1.384l.348-1.12L18.61 0l5.611 3.544.32-1.03c8.832 3.422 13.216 13.355 9.794 22.187a17.15 17.15 0 0 1-10.898 10.178.591.591 0 1 0 .351 1.13C33.456 33 38.854 22.724 35.845 13.056z"/></g></g></g></g></g></svg>