<svg width="46" height="35" viewBox="0 0 46 35" fill="none" xmlns="http://www.w3.org/2000/svg">
<path d="M7.06923 8.12758V0.897682C7.06923 0.415689 6.7479 0.0943604 6.26591 0.0943604C5.78392 0.0943604 5.46259 0.415689 5.46259 0.897682V8.04725C5.46259 8.85057 4.9806 9.49323 4.33794 9.81456V0.897682C4.33794 0.415689 4.01661 0.0943604 3.53462 0.0943604C3.05262 0.0943604 2.73129 0.415689 2.73129 0.897682V9.89489C2.08864 9.57356 1.60664 8.9309 1.60664 8.12758V0.897682C1.60664 0.415689 1.28531 0.0943604 0.803322 0.0943604C0.321329 0.0943604 0 0.415689 0 0.897682V8.04725C0 9.73422 1.20498 11.1802 2.73129 11.5015V16.9641H2.40997C1.60664 16.9641 0.963986 17.6871 0.963986 18.5708V31.9059C0.963986 32.7896 1.60664 33.5125 2.40997 33.5125H4.57893C5.38226 33.5125 6.02491 32.7896 6.02491 31.9059V18.6511C6.02491 17.7674 5.38226 17.0445 4.57893 17.0445H4.33794V11.5819C5.94458 11.1802 7.06923 9.81455 7.06923 8.12758ZM4.4986 18.5708V31.9059H2.57063V18.5708H4.4986Z" fill="url(#paint0_linear)"/>
<path d="M41.6122 0.0927596C41.3712 -0.0679048 41.0499 0.0124274 40.8089 0.0927596C40.5679 0.253424 40.4072 0.494421 40.4072 0.815749V18.3282C40.4072 18.4085 40.4072 18.5692 40.4876 18.6495C40.4072 18.8102 40.4072 18.9708 40.4072 19.1315V32.4666C40.4072 33.3503 41.0499 34.0733 41.8532 34.0733H44.0222C44.8255 34.0733 45.4682 33.3503 45.4682 32.4666V18.9708C45.7092 18.8102 45.9501 18.5692 45.9501 18.2478C46.0305 16.7215 46.5125 2.66339 41.6122 0.0927596ZM43.9418 32.3863H42.0139V19.0512H43.9418V32.3863ZM44.4238 17.4445H42.0942V2.70335C44.1906 5.91092 44.5032 13.5574 44.4238 17.4445Z" fill="url(#paint1_linear)"/>
<path d="M23.4571 0.0943604C14.3796 0.0943604 7.06934 7.48492 7.06934 16.4821C7.06934 25.4793 14.4599 32.8699 23.4571 32.8699C32.4543 32.8699 39.8449 25.5597 39.8449 16.4821C39.8449 7.40459 32.4543 0.0943604 23.4571 0.0943604ZM23.4571 31.3436C15.2632 31.3436 8.67598 24.676 8.67598 16.5625C8.67598 8.44891 15.2632 1.701 23.4571 1.701C31.651 1.701 38.2382 8.36858 38.2382 16.4821C38.2382 24.5957 31.5707 31.3436 23.4571 31.3436Z" fill="url(#paint2_linear)"/>
<path d="M23.4568 6.43958C17.9139 6.43958 13.335 10.9382 13.335 16.5614C13.335 22.1847 17.9139 26.603 23.4568 26.603C28.9997 26.603 33.5787 22.1044 33.5787 16.4811C33.5787 10.8578 28.9997 6.43958 23.4568 6.43958ZM23.4568 24.9963C18.7975 24.9963 14.9416 21.2207 14.9416 16.4811C14.9416 11.7415 18.7172 7.96589 23.4568 7.96589C28.1964 7.96589 31.972 11.7415 31.972 16.4811C31.972 21.2207 28.1161 24.9963 23.4568 24.9963Z" fill="url(#paint3_linear)"/>
<defs>
<linearGradient id="paint0_linear" x1="0" y1="0" x2="24.3231" y2="45.6287" gradientUnits="userSpaceOnUse">
<stop stop-color="#FFA091"/>
<stop offset="1" stop-color="#F47965"/>
</linearGradient>
<linearGradient id="paint1_linear" x1="0" y1="0" x2="24.3231" y2="45.6287" gradientUnits="userSpaceOnUse">
<stop stop-color="#FFA091"/>
<stop offset="1" stop-color="#F47965"/>
</linearGradient>
<linearGradient id="paint2_linear" x1="0" y1="0" x2="24.3231" y2="45.6287" gradientUnits="userSpaceOnUse">
<stop stop-color="#FFA091"/>
<stop offset="1" stop-color="#F47965"/>
</linearGradient>
<linearGradient id="paint3_linear" x1="0" y1="0" x2="24.3231" y2="45.6287" gradientUnits="userSpaceOnUse">
<stop stop-color="#FFA091"/>
<stop offset="1" stop-color="#F47965"/>
</linearGradient>
</defs>
</svg>
