<svg width="40" height="40" viewBox="0 0 40 40" fill="none" xmlns="http://www.w3.org/2000/svg">
<path d="M39.3335 22.6665H37.8134C41.2973 15.5828 40.2039 7.10177 35.0376 1.13319C33.9945 -0.0600388 32.2517 -0.345986 30.882 0.452042L30.7728 0.51857C29.6851 1.15638 29.0531 2.35571 29.1416 3.61333C29.1734 4.13793 29.1801 4.67472 29.1609 5.20267L29.1407 5.63327C28.9897 8.48542 28.1645 11.2613 26.7335 13.7332C26.5263 13.5727 26.3148 13.4164 26.0936 13.2666C25.4341 12.8363 24.6827 12.5665 23.9003 12.4792C24.4246 12.2525 24.9867 12.1267 25.5574 12.1084C25.8726 12.1094 26.1451 11.8899 26.2114 11.582C26.2776 11.2741 26.1192 10.9616 25.8314 10.8331C25.6675 10.7599 22.0982 9.18854 20.0023 10.5853C17.9076 9.18519 14.3355 10.7599 14.1729 10.8331C13.8854 10.9616 13.727 11.2741 13.7932 11.582C13.8592 11.8899 14.132 12.1094 14.4469 12.1084C15.0185 12.1271 15.5813 12.2531 16.1062 12.4798C15.3212 12.5671 14.5678 12.8372 13.9062 13.2684C13.3205 13.6578 12.7752 14.1043 12.2784 14.6017V14.3719C12.3028 11.8777 10.3616 9.80499 7.87105 9.66644C9.04017 8.29561 9.60444 6.50973 9.43445 4.71592C9.26478 2.92211 8.3755 1.27357 6.96957 0.146564C6.77792 -0.0072438 6.51669 -0.0429491 6.29056 0.0534857C6.06443 0.150226 5.9097 0.363542 5.88834 0.608596L5.24839 7.92665L2.14356 1.26655C2.04011 1.04347 1.82221 0.895459 1.57655 0.881421C1.33119 0.867383 1.09773 0.990062 0.969863 1.20002C0.0308452 2.74328 -0.240454 4.60179 0.217916 6.34921C0.676287 8.09663 1.82496 9.58283 3.40026 10.4666C1.13679 11.4645 0.0467143 14.0567 0.917068 16.3726L3.28369 22.6665H0.667131C0.298787 22.6665 0.000327973 22.965 0.000327973 23.333C0.0107039 32.5334 7.46639 39.9894 16.6671 39.9998H23.3336C32.5339 39.9894 39.9899 32.5334 40 23.333C40 22.965 39.7015 22.6665 39.3335 22.6665ZM38.4668 15.166C38.2959 17.7926 37.5586 20.3512 36.3062 22.6665H30.6001C30.6174 22.5179 30.626 22.369 30.6361 22.2197C36.254 15.9967 35.2161 7.91933 35.1694 7.5754C35.1139 7.2156 34.78 6.96719 34.4196 7.01693C34.0592 7.06637 33.805 7.39596 33.8489 7.75728C33.8587 7.83052 34.7153 14.6151 30.5674 20.2044C30.2525 18.092 29.2649 16.1373 27.7516 14.6304C29.2307 12.1466 30.138 9.36432 30.4075 6.48593L36.348 5.39982C37.9508 8.39418 38.6847 11.7767 38.4668 15.166ZM31.4448 1.66663L31.5549 1.6001C32.3691 1.12342 33.4067 1.29096 34.0296 1.99988C34.6158 2.68438 35.1508 3.41161 35.6293 4.17516L30.4963 5.10868C30.5109 4.5786 30.5048 4.04729 30.4734 3.52788C30.4179 2.7735 30.7941 2.05268 31.4448 1.66663ZM19.5177 11.9031C19.5217 11.9079 19.5268 11.9086 19.5308 11.9125C19.5348 11.9165 19.5363 11.922 19.5403 11.9259C19.5711 11.9497 19.604 11.9705 19.6388 11.9879C19.6736 12.0154 19.7112 12.0389 19.7508 12.0584C19.7917 12.0718 19.8335 12.081 19.8763 12.0859C19.958 12.1148 20.0472 12.1148 20.1289 12.0859C20.1698 12.081 20.2104 12.0721 20.2495 12.0593C20.2898 12.0392 20.3279 12.0154 20.3636 11.9879C20.3975 11.9705 20.4298 11.9497 20.4604 11.9266C20.4643 11.9226 20.4656 11.9171 20.4695 11.9131C20.4735 11.9092 20.479 11.9086 20.4829 11.904C21.0503 11.3092 22.0583 11.2552 23.033 11.3998C22.6176 11.5887 22.2185 11.8115 21.8404 12.0666C21.6704 12.1853 21.5654 12.3764 21.5562 12.5833C21.5471 12.7905 21.635 12.9898 21.7937 13.1231C22.7635 13.9654 23.6085 14.9417 24.3028 16.0226C23.698 15.8309 23.0516 15.8111 22.4364 15.9652C21.3402 16.361 20.4576 17.1948 20.0002 18.2665C19.5433 17.1942 18.6617 16.3598 17.5655 15.9631C16.95 15.8096 16.3039 15.8294 15.6991 16.0205C16.3927 14.9392 17.2374 13.9627 18.207 13.1198C18.3657 12.9864 18.4532 12.7871 18.4441 12.5799C18.4349 12.373 18.33 12.182 18.1603 12.0633C17.7806 11.8081 17.3803 11.5851 16.9637 11.3965C17.939 11.2512 18.9476 11.3058 19.5177 11.9031ZM14.6389 14.3844C14.9148 14.2105 15.212 14.0735 15.5236 13.9773C14.7271 14.8858 14.1375 15.9567 13.7963 17.1157C13.7264 17.4062 13.8586 17.7078 14.1195 17.8533C14.3801 17.9992 14.706 17.9534 14.9169 17.7419C15.0109 17.6965 15.1836 17.6306 15.2501 17.6086C15.317 17.5866 15.3649 17.5646 15.3908 17.553C15.6044 17.4569 15.8245 17.3748 16.0488 17.308C16.422 17.1816 16.8227 17.1609 17.2069 17.2479C18.2488 17.5399 19.0355 19.0118 19.3523 20.3417C19.3672 20.3921 19.388 20.4403 19.4142 20.4858C19.4212 20.505 19.4292 20.5236 19.4383 20.5419C19.4811 20.6097 19.5357 20.6695 19.5995 20.7177C19.6141 20.7284 19.6321 20.7339 19.6477 20.7439C19.7008 20.7784 19.7588 20.8053 19.8195 20.8233C19.8296 20.8233 19.8363 20.833 19.8464 20.8352C19.8958 20.8474 19.9465 20.8535 19.9974 20.8532H20.0041C20.0551 20.8535 20.1061 20.8474 20.1555 20.8352C20.1656 20.8352 20.1723 20.8257 20.1824 20.8233C20.2428 20.8053 20.3008 20.7784 20.3536 20.7439C20.3694 20.7339 20.3874 20.7284 20.4021 20.7171C20.4662 20.6692 20.5211 20.6097 20.5635 20.5419C20.5727 20.5236 20.5806 20.505 20.5876 20.4858C20.6139 20.4403 20.6346 20.3921 20.6496 20.3417C20.9663 19.0084 21.7528 17.5417 22.7949 17.2479C23.1792 17.1609 23.5798 17.1816 23.9528 17.308C24.1774 17.3748 24.3971 17.4569 24.6107 17.553C24.637 17.5646 24.6876 17.5845 24.7514 17.6086C24.8155 17.6324 24.9901 17.6992 25.085 17.7419C25.2955 17.9534 25.6215 17.9992 25.8824 17.8533C26.1433 17.7078 26.2751 17.4062 26.2056 17.1157C25.8641 15.957 25.2745 14.8858 24.4783 13.9773C24.7886 14.0728 25.0853 14.2093 25.3602 14.3826C27.8086 15.9594 29.3012 18.6608 29.3336 21.5731C29.3305 21.939 29.3037 22.3043 29.2527 22.6665H10.7476C10.6967 22.3043 10.6698 21.939 10.667 21.5731C10.6988 18.6617 12.1911 15.9609 14.6389 14.3844ZM7.08889 2.17871C8.68373 4.34148 8.42036 7.35293 6.47427 9.20594L7.08889 2.17871ZM1.83442 6.91531C1.2845 5.73856 1.1841 4.40098 1.55244 3.15527L4.53368 9.54865C3.34259 9.02985 2.38251 8.09328 1.83442 6.91531ZM2.37763 16.4724L4.17785 16.1566C4.41222 16.1154 4.60722 15.9521 4.6887 15.7284C4.77019 15.5044 4.72624 15.2542 4.57335 15.0717C4.42046 14.8892 4.18151 14.8019 3.94713 14.8431L1.98426 15.1879C1.74226 13.4112 2.94678 11.7608 4.7122 11.4493L7.03305 11.0425C8.0096 10.8691 9.0127 11.1395 9.76954 11.7804C10.5267 12.4212 10.9588 13.3661 10.949 14.3579L10.9249 16.2713C10.49 16.9399 10.1376 17.6589 9.87574 18.4124L8.38557 18.6791C8.05171 18.7447 7.8207 19.0514 7.84999 19.3908C7.87929 19.7298 8.15944 19.9923 8.49971 19.9999C8.53908 19.9996 8.57814 19.9966 8.6169 19.9898L9.49579 19.8339C9.31757 20.7674 9.28522 21.7229 9.40028 22.6665H4.70824L2.37763 16.4724ZM4.24498 23.9998H38.6527C38.613 24.8973 38.494 25.7897 38.2974 26.6664H1.70319C1.50636 25.7897 1.38765 24.8973 1.34767 23.9998H4.24498ZM23.3336 38.6665H16.6671C10.0012 38.6564 4.10277 34.347 2.06696 27.9997H37.9334C35.8976 34.347 29.9995 38.6564 23.3336 38.6665Z" fill="url(#paint0_linear)"/>
<path d="M8.65732 14.6891C8.6268 14.5149 8.52823 14.3601 8.38357 14.2585C8.23892 14.1569 8.05948 14.1172 7.88553 14.1477L6.57205 14.3791C6.23147 14.4389 5.99313 14.7489 6.02304 15.0932C6.05295 15.4377 6.34103 15.7023 6.6868 15.7023C6.72586 15.7023 6.76492 15.6989 6.80337 15.6925L8.11624 15.4612C8.29019 15.4304 8.44522 15.3321 8.54654 15.1872C8.64816 15.0425 8.68814 14.8634 8.65732 14.6891Z" fill="url(#paint1_linear)"/>
<path d="M8.66547 29.998H5.99884C5.6308 29.998 5.33203 30.2965 5.33203 30.6646C5.33203 31.0329 5.6308 31.3314 5.99884 31.3314H8.66547C9.03382 31.3314 9.33228 31.0329 9.33228 30.6646C9.33228 30.2965 9.03382 29.998 8.66547 29.998Z" fill="url(#paint2_linear)"/>
<path d="M32.0001 29.9985H11.3335C10.9655 29.9985 10.667 30.297 10.667 30.665C10.667 31.0334 10.9655 31.3318 11.3335 31.3318H32.0001C32.3682 31.3318 32.6666 31.0334 32.6666 30.665C32.6666 30.297 32.3682 29.9985 32.0001 29.9985Z" fill="url(#paint3_linear)"/>
<defs>
<linearGradient id="paint0_linear" x1="0" y1="0" x2="32.6123" y2="45.3164" gradientUnits="userSpaceOnUse">
<stop stop-color="#FFA091"/>
<stop offset="1" stop-color="#F47965"/>
</linearGradient>
<linearGradient id="paint1_linear" x1="6.02051" y1="14.1377" x2="6.98968" y2="16.416" gradientUnits="userSpaceOnUse">
<stop stop-color="#FFA091"/>
<stop offset="1" stop-color="#F47965"/>
</linearGradient>
<linearGradient id="paint2_linear" x1="5.33203" y1="29.998" x2="5.85209" y2="32.1661" gradientUnits="userSpaceOnUse">
<stop stop-color="#FFA091"/>
<stop offset="1" stop-color="#F47965"/>
</linearGradient>
<linearGradient id="paint3_linear" x1="10.667" y1="29.9985" x2="10.7668" y2="32.287" gradientUnits="userSpaceOnUse">
<stop stop-color="#FFA091"/>
<stop offset="1" stop-color="#F47965"/>
</linearGradient>
</defs>
</svg>
