<svg width="34" height="34" viewBox="0 0 34 34" fill="none" xmlns="http://www.w3.org/2000/svg">
<path d="M18.5109 0.85575L0 19.3666L14.5495 33.9161L32.8349 15.6308L33.0584 15.4073L34 0L18.5109 0.85575ZM31.4319 14.6745L14.5495 31.5569L2.35937 19.3666L19.2397 2.48628L32.2205 1.76911L31.4319 14.6745Z" fill="url(#paint0_linear)"/>
<path d="M26.1893 11.0635C27.0806 11.0635 27.9185 10.7165 28.5488 10.0862C29.8496 8.78534 29.8496 6.66843 28.5487 5.36734C27.9185 4.73715 27.0806 4.39014 26.1893 4.39014C25.2981 4.39014 24.4602 4.73715 23.8299 5.36734C23.1997 5.99764 22.8525 6.83549 22.8525 7.72683C22.8525 8.61817 23.1997 9.45601 23.83 10.0863C24.4602 10.7165 25.2981 11.0635 26.1893 11.0635ZM25.0095 6.54709C25.3247 6.23199 25.7437 6.05837 26.1892 6.05837C26.6348 6.05837 27.0538 6.23199 27.3689 6.54697C28.0194 7.19752 28.0194 8.25603 27.369 8.90646C27.0538 9.22156 26.6348 9.39517 26.1892 9.39517C25.7437 9.39517 25.3247 9.22156 25.0096 8.90646C24.6944 8.59137 24.5208 8.17239 24.5208 7.72683C24.5208 7.28127 24.6944 6.86218 25.0095 6.54709Z" fill="url(#paint1_linear)"/>
<defs>
<linearGradient id="paint0_linear" x1="0" y1="0" x2="27.6305" y2="38.4887" gradientUnits="userSpaceOnUse">
<stop stop-color="#FFA091"/>
<stop offset="1" stop-color="#F47965"/>
</linearGradient>
<linearGradient id="paint1_linear" x1="22.8525" y1="4.39014" x2="28.2938" y2="11.9493" gradientUnits="userSpaceOnUse">
<stop stop-color="#FFA091"/>
<stop offset="1" stop-color="#F47965"/>
</linearGradient>
</defs>
</svg>
