<svg width="52" height="45" viewBox="0 0 52 45" fill="none" xmlns="http://www.w3.org/2000/svg">
<path d="M48.1101 3.89614C42.9239 -1.29025 34.4848 -1.29045 29.2982 3.89614L26.0002 7.19418L22.7022 3.89614C20.1897 1.38369 16.8492 0 13.2963 0C9.74309 0.000101562 6.4027 1.38379 3.89035 3.89624C-1.29614 9.08263 -1.29614 17.5216 3.88649 22.7041L25.9211 44.897L48.1101 22.7079C53.2966 17.5217 53.2966 9.08263 48.1101 3.89614ZM24.0504 38.6876L24.0543 29.3218H27.9509L27.9508 38.5575L25.9288 40.5795L24.0504 38.6876ZM45.9552 20.5531L30.9984 35.5099V28.8656L32.5665 28.3115C36.0817 27.0695 38.5465 23.9992 38.9993 20.2988L39.3695 17.273L36.3445 16.9027L35.9743 19.9285C35.663 22.4729 33.9682 24.584 31.5513 25.4379L29.1845 26.2742H22.7465L20.3967 25.4828C17.8225 24.616 16.0364 22.3048 15.8465 19.5954L15.6634 16.9813L12.6233 17.1943L12.8064 19.8083C13.0826 23.7492 15.6802 27.1103 19.4241 28.3712L21.0068 28.9042L21.004 35.6195L6.0452 20.5531C2.04699 16.555 2.04699 10.0494 6.0452 6.05109C8.04456 4.05183 10.6699 3.05256 13.2962 3.05256C15.9217 3.05256 18.5483 4.05234 20.5471 6.05109L26.0001 11.5043L31.4531 6.05109C33.39 4.11429 35.965 3.04769 38.7041 3.04769C41.4432 3.04779 44.0184 4.1144 45.9552 6.05119C47.892 7.98799 48.9586 10.5631 48.9586 13.302C48.9587 16.0411 47.892 18.6163 45.9552 20.5531Z" fill="#101828"/>
<path d="M25.9999 13.9124C23.2488 13.9124 21.0186 16.1425 21.0186 18.8937C21.0186 21.6447 23.2488 23.8749 25.9999 23.8749C28.7509 23.8749 30.9811 21.6447 30.9811 18.8937C30.9811 16.1426 28.7509 13.9124 25.9999 13.9124ZM25.9999 20.8439C24.9228 20.8439 24.0497 19.9707 24.0497 18.8937C24.0497 17.8166 24.9228 16.9435 25.9999 16.9435C27.0769 16.9435 27.9501 17.8166 27.9501 18.8937C27.9501 19.9707 27.0769 20.8439 25.9999 20.8439Z" fill="#101828"/>
</svg>
