<svg width="44" height="44" viewBox="0 0 44 44" fill="none" xmlns="http://www.w3.org/2000/svg">
<path d="M7.48178 31.5281C10.118 31.5281 12.5416 29.972 13.6599 27.6099H14.2613C14.6491 27.6099 14.9635 27.2955 14.9635 26.9078C14.9635 26.52 14.6491 26.2056 14.2613 26.2056H0.702128C0.314366 26.2056 0 26.52 0 26.9078C0 27.2955 0.314366 27.6099 0.702128 27.6099H1.30362C2.42197 29.972 4.84552 31.5281 7.48178 31.5281ZM12.0578 27.6099C11.0728 29.146 9.3442 30.1239 7.48178 30.1239C5.61936 30.1239 3.89082 29.146 2.90578 27.6099H12.0578Z" fill="#101828"/>
<path d="M43.2975 26.2056H29.7383C29.3505 26.2056 29.0361 26.52 29.0361 26.9078C29.0361 27.2955 29.3505 27.6099 29.7383 27.6099H30.3397C31.458 29.972 33.8816 31.5281 36.5178 31.5281C39.1541 31.5281 41.5776 29.972 42.696 27.6099H43.2975C43.6852 27.6099 43.9996 27.2955 43.9996 26.9078C43.9996 26.52 43.6852 26.2056 43.2975 26.2056ZM36.5178 30.1239C34.6554 30.1239 32.9269 29.146 31.9418 27.6099H41.0937C40.1088 29.146 38.3802 30.1239 36.5178 30.1239Z" fill="#101828"/>
<path d="M39.5543 42.1001H35.9616C35.6254 40.067 33.8557 38.5111 31.7288 38.5111H31.2817C30.9457 36.4776 29.1752 34.922 27.0479 34.922H22.7029V8.35719H35.5439L30.1363 24.5319C30.0134 24.8996 30.2118 25.2975 30.5796 25.4204C30.9475 25.5435 31.3452 25.3449 31.4681 24.9771L36.519 9.86948L41.57 24.9771C41.6682 25.2711 41.942 25.4568 42.2358 25.4568C42.3096 25.4568 42.3846 25.4451 42.4585 25.4204C42.8263 25.2975 43.0247 24.8996 42.9018 24.5319L37.494 8.35719H38.6447C39.0325 8.35719 39.3468 8.04283 39.3468 7.65506C39.3468 7.2673 39.0325 6.95294 38.6447 6.95294H22.7029V2.84165H26.134C27.2364 2.84165 28.1332 3.7385 28.1332 4.84084C28.1332 5.2286 28.4476 5.54297 28.8353 5.54297H30.9611C31.3489 5.54297 31.6632 5.2286 31.6632 4.84084C31.6632 4.45308 31.3489 4.13872 30.9611 4.13872H29.4647C29.1402 2.59778 27.7701 1.4374 26.134 1.4374H22.7029V0.702128C22.7029 0.314366 22.3885 0 22.0007 0C21.613 0 21.2986 0.314366 21.2986 0.702128V1.4374H17.8674C16.2314 1.4374 14.8613 2.59787 14.5367 4.13872H13.0404C12.6526 4.13872 12.3382 4.45308 12.3382 4.84084C12.3382 5.2286 12.6526 5.54297 13.0404 5.54297H15.1661C15.5539 5.54297 15.8683 5.2286 15.8683 4.84084C15.8683 3.7385 16.7651 2.84165 17.8674 2.84165H21.2986V6.95294H5.35675C4.96899 6.95294 4.65462 7.2673 4.65462 7.65506C4.65462 8.04283 4.96899 8.35719 5.35675 8.35719H6.50749L1.09989 24.5319C0.976969 24.8996 1.17534 25.2975 1.54316 25.4204C1.91099 25.5435 2.30876 25.3449 2.43168 24.9771L7.48251 9.86939L12.5334 24.977C12.6316 25.271 12.9055 25.4567 13.1992 25.4567C13.2731 25.4567 13.3481 25.445 13.4219 25.4203C13.7898 25.2974 13.9881 24.8995 13.8652 24.5318L8.45753 8.35719H21.2986V34.922H16.9536C14.8264 34.922 13.0558 36.4776 12.7197 38.5111H12.2727C10.1457 38.5111 8.37608 40.067 8.03991 42.1001H4.44716C4.0594 42.1001 3.74504 42.4145 3.74504 42.8023C3.74504 43.19 4.0594 43.5044 4.44716 43.5044H39.5544C39.9422 43.5044 40.2565 43.19 40.2565 42.8023C40.2565 42.4145 39.9421 42.1001 39.5543 42.1001ZM12.2727 39.9153H13.3645C13.7522 39.9153 14.0666 39.6009 14.0666 39.2132C14.0666 37.6213 15.3617 36.3262 16.9536 36.3262H27.0479C28.6398 36.3262 29.9349 37.6213 29.9349 39.2132C29.9349 39.6009 30.2492 39.9153 30.637 39.9153H31.7288C33.0785 39.9153 34.2145 40.8465 34.5289 42.1001H9.47253C9.78699 40.8465 10.9229 39.9153 12.2727 39.9153Z" fill="#101828"/>
<path d="M27.8274 38.5109H16.1719C15.7841 38.5109 15.4697 38.8253 15.4697 39.2131C15.4697 39.6008 15.7841 39.9152 16.1719 39.9152H27.8274C28.2151 39.9152 28.5295 39.6008 28.5295 39.2131C28.5295 38.8253 28.2151 38.5109 27.8274 38.5109Z" fill="#101828"/>
</svg>
