<svg width="46" height="36" viewBox="0 0 46 36" fill="none" xmlns="http://www.w3.org/2000/svg">
<path d="M36.0433 28.2002C35.0694 28.2002 34.2808 28.9888 34.2808 29.9627C34.2808 30.9365 35.0694 31.7252 36.0433 31.7252C37.0171 31.7252 37.8058 30.9365 37.8058 29.9627C37.8058 28.9888 37.0171 28.2002 36.0433 28.2002Z" fill="url(#paint0_linear)"/>
<path d="M10.575 28.2002C9.60115 28.2002 8.8125 28.9888 8.8125 29.9627C8.8125 30.9365 9.60115 31.7252 10.575 31.7252C11.5489 31.7252 12.3375 30.9365 12.3375 29.9627C12.3375 28.9888 11.5489 28.2002 10.575 28.2002Z" fill="url(#paint1_linear)"/>
<path d="M6.17031 21.1502C6.65672 21.1502 7.05156 20.7554 7.05156 20.2689C7.05156 19.7825 6.65672 19.3877 6.17031 19.3877C5.6839 19.3877 5.28906 19.7825 5.28906 20.2689C5.28906 20.7554 5.6839 21.1502 6.17031 21.1502Z" fill="url(#paint2_linear)"/>
<path d="M0 27.3187C0 28.7766 1.1859 29.9625 2.64375 29.9625H5.2875C5.2875 32.8782 7.6593 35.25 10.575 35.25C13.4907 35.25 15.8625 32.8782 15.8625 29.9625H30.7556C30.7556 32.8782 33.1274 35.25 36.0431 35.25C38.9588 35.25 41.3306 32.8782 41.3306 29.9625H42.4762C43.9341 29.9625 45.12 28.7766 45.12 27.3187V2.64375C45.12 1.1859 43.9341 0 42.4762 0H20.7975C19.3397 0 18.1537 1.1859 18.1537 2.64375V5.2875H10.9647C9.82422 5.2875 8.81594 6.01419 8.45587 7.09544C7.99734 8.47136 6.28441 13.6098 5.52399 15.8914C5.46237 16.0766 5.33845 16.2391 5.17666 16.3462L1.9625 18.489C0.733572 19.3073 0 20.678 0 22.1555V27.3187ZM10.575 33.4875C8.63143 33.4875 7.05 31.9061 7.05 29.9625C7.05 27.9924 8.66 26.4375 10.575 26.4375C12.4945 26.4375 14.1 27.9966 14.1 29.9625C14.1 31.9061 12.5186 33.4875 10.575 33.4875ZM36.0431 33.4875C34.0996 33.4875 32.5181 31.9061 32.5181 29.9625C32.5181 27.9924 34.1281 26.4375 36.0431 26.4375C37.9626 26.4375 39.5681 27.9966 39.5681 29.9625C39.5681 31.9061 37.9867 33.4875 36.0431 33.4875ZM19.9163 2.64375C19.9163 2.15769 20.3114 1.7625 20.7975 1.7625H42.4762C42.9623 1.7625 43.3575 2.15769 43.3575 2.64375V27.3187C43.3575 27.8048 42.9623 28.2 42.4762 28.2H41.028C40.2921 26.1205 38.2999 24.675 36.0431 24.675C33.7853 24.675 31.7925 26.1215 31.0579 28.2H19.9163V2.64375ZM8.86 11.4563H14.6287V15.8625H7.39148L8.86 11.4563ZM2.93945 19.9558L6.15223 17.814C6.23932 17.7565 6.32159 17.6925 6.40077 17.625H15.51C15.9968 17.625 16.3912 17.2305 16.3912 16.7437V10.575C16.3912 10.0882 15.9968 9.69375 15.51 9.69375H9.44762L10.1282 7.65276C10.248 7.292 10.5843 7.05 10.9647 7.05H18.1537V28.2H15.5599C14.8239 26.1205 12.8318 24.675 10.575 24.675C8.31714 24.675 6.32435 26.1215 5.58974 28.2H2.64375C2.15769 28.2 1.7625 27.8048 1.7625 27.3187V26.4375H4.40625C4.893 26.4375 5.2875 26.043 5.2875 25.5562C5.2875 25.0695 4.893 24.675 4.40625 24.675H1.7625V22.1555C1.7625 21.2691 2.20244 20.4467 2.93945 19.9558Z" fill="url(#paint3_linear)"/>
<path d="M23.7055 19.3873H39.568C40.0547 19.3873 40.4492 18.9928 40.4492 18.5061C40.4492 18.0193 40.0547 17.6248 39.568 17.6248H38.6867C38.6867 14.5229 36.6919 11.9142 33.9545 10.9641C34.1621 10.5869 34.2805 10.1538 34.2805 9.69355C34.2805 8.23571 33.0946 7.0498 31.6367 7.0498C30.1789 7.0498 28.993 8.23571 28.993 9.69355C28.993 10.1552 29.1121 10.5893 29.321 10.9672C26.5682 11.9277 24.5867 14.5487 24.5867 17.6248H23.7055C23.2187 17.6248 22.8242 18.0193 22.8242 18.5061C22.8242 18.9928 23.2187 19.3873 23.7055 19.3873ZM30.7555 9.69355C30.7555 9.20749 31.1507 8.8123 31.6367 8.8123C32.1228 8.8123 32.518 9.20749 32.518 9.69355C32.518 10.1796 32.1228 10.5748 31.6367 10.5748C31.1507 10.5748 30.7555 10.1796 30.7555 9.69355ZM31.6367 12.3373C34.5534 12.3373 36.9242 14.6971 36.9242 17.6248H26.3492C26.3492 14.7091 28.721 12.3373 31.6367 12.3373Z" fill="url(#paint4_linear)"/>
<path d="M9.69375 21.1502H15.51C15.9968 21.1502 16.3912 20.7557 16.3912 20.2689C16.3912 19.7822 15.9968 19.3877 15.51 19.3877H9.69375C9.207 19.3877 8.8125 19.7822 8.8125 20.2689C8.8125 20.7557 9.207 21.1502 9.69375 21.1502Z" fill="url(#paint5_linear)"/>
<defs>
<linearGradient id="paint0_linear" x1="34.2808" y1="28.2002" x2="37.1547" y2="32.1937" gradientUnits="userSpaceOnUse">
<stop stop-color="#FFA091"/>
<stop offset="1" stop-color="#F47965"/>
</linearGradient>
<linearGradient id="paint1_linear" x1="8.8125" y1="28.2002" x2="11.6865" y2="32.1937" gradientUnits="userSpaceOnUse">
<stop stop-color="#FFA091"/>
<stop offset="1" stop-color="#F47965"/>
</linearGradient>
<linearGradient id="paint2_linear" x1="5.28906" y1="19.3877" x2="6.72605" y2="21.3845" gradientUnits="userSpaceOnUse">
<stop stop-color="#FFA091"/>
<stop offset="1" stop-color="#F47965"/>
</linearGradient>
<linearGradient id="paint3_linear" x1="0" y1="0" x2="25.8958" y2="46.0586" gradientUnits="userSpaceOnUse">
<stop stop-color="#FFA091"/>
<stop offset="1" stop-color="#F47965"/>
</linearGradient>
<linearGradient id="paint4_linear" x1="22.8242" y1="7.0498" x2="31.3489" y2="23.9717" gradientUnits="userSpaceOnUse">
<stop stop-color="#FFA091"/>
<stop offset="1" stop-color="#F47965"/>
</linearGradient>
<linearGradient id="paint5_linear" x1="8.8125" y1="19.3877" x2="9.30594" y2="22.336" gradientUnits="userSpaceOnUse">
<stop stop-color="#FFA091"/>
<stop offset="1" stop-color="#F47965"/>
</linearGradient>
</defs>
</svg>
