<svg width="35" height="41" viewBox="0 0 35 41" fill="none" xmlns="http://www.w3.org/2000/svg">
<path d="M17.6813 38.0806C17.6813 38.4562 17.9857 38.7606 18.3613 38.7606H30.6015C32.4784 38.7584 33.9993 37.2374 34.0015 35.3606V3.40006C33.9993 1.52319 32.4784 0.0022482 30.6015 0H9.52115C7.64428 0.0022482 6.12334 1.52319 6.12109 3.40006V18.3603C6.12109 18.7359 6.42555 19.0403 6.8011 19.0403C7.17666 19.0403 7.48112 18.7359 7.48112 18.3603V3.40006C7.48112 2.27338 8.39447 1.36002 9.52115 1.36002H30.6015C31.7282 1.36002 32.6415 2.27338 32.6415 3.40006V35.3606C32.6415 36.4873 31.7282 37.4006 30.6015 37.4006H18.3613C17.9857 37.4006 17.6813 37.7051 17.6813 38.0806Z" fill="url(#paint0_linear)"/>
<path d="M30.5994 4.75992C30.5994 4.0088 29.9905 3.3999 29.2394 3.3999H10.8791C10.1279 3.3999 9.51904 4.0088 9.51904 4.75992V10.88C9.51904 11.6311 10.1279 12.24 10.8791 12.24H29.2394C29.9905 12.24 30.5994 11.6311 30.5994 10.88V4.75992ZM13.3842 10.88L16.7231 4.75992H19.2541L15.9152 10.88H13.3842ZM10.8791 4.75992H15.174L11.8352 10.88H10.8791V4.75992ZM29.2394 10.88H17.4643L20.8031 4.75992H29.2394V10.88Z" fill="url(#paint1_linear)"/>
<path d="M7.68272 40.7985C8.3146 40.7981 8.93897 40.6615 9.51331 40.398C9.75074 40.5076 9.99771 40.5953 10.2511 40.6598C13.5227 41.5037 17.2552 38.3716 18.5609 33.6734C19.3429 30.8643 19.1205 27.9919 17.9652 25.9893C17.3393 24.8156 16.2596 23.9499 14.9779 23.5943C13.5584 23.2697 12.0679 23.5644 10.8788 24.4048C10.6916 24.5237 10.4891 24.6166 10.277 24.6809C10.7095 21.8181 12.6842 21.0769 12.7855 21.0415C13.1289 20.9128 13.3084 20.5349 13.1911 20.1874C13.0739 19.8399 12.7022 19.648 12.351 19.7536C11.4128 20.1312 10.6071 20.7775 10.0349 21.6114C9.95698 21.5181 9.87389 21.4294 9.786 21.3455C9.11447 20.7415 8.29998 20.3188 7.41956 20.1174C6.17242 19.8093 4.11402 20.1051 2.60712 20.4098C2.18069 20.496 1.84097 20.8182 1.73239 21.2395C1.62381 21.6608 1.76546 22.107 2.09711 22.3886C2.5874 22.8055 3.16337 23.2645 3.75702 23.684C2.60112 24.0891 1.63813 24.9112 1.05669 25.9893C-0.0993251 27.9899 -0.321009 30.8622 0.461684 33.6734C1.63062 37.8534 4.70835 40.7985 7.68272 40.7985ZM7.09655 21.4393C7.74652 21.586 8.34956 21.8927 8.85098 22.3315C9.15903 22.6252 9.31135 22.9326 9.25899 23.1516C9.20663 23.3705 8.92782 23.5705 8.51777 23.6867C7.86925 23.8406 7.19257 23.8301 6.54914 23.6561C5.36583 23.1946 4.27913 22.5161 3.34493 21.6556C4.57133 21.3599 5.84072 21.286 7.09315 21.4373L7.09655 21.4393ZM2.23515 26.6693C2.68036 25.8149 3.45584 25.18 4.38127 24.9121C4.63381 24.847 4.89363 24.8143 5.15444 24.8149C5.95914 24.8379 6.74014 25.0924 7.40392 25.5479C7.83858 25.8246 8.32405 26.0119 8.83194 26.0987V27.1908C8.83194 27.5664 9.13639 27.8709 9.51195 27.8709C9.88751 27.8709 10.192 27.5664 10.192 27.1908V26.0987C10.7 26.0126 11.1856 25.8253 11.62 25.5479C12.492 24.9169 13.591 24.6858 14.6433 24.9121C15.5685 25.1801 16.3438 25.815 16.7887 26.6693C17.7652 28.3605 17.9386 30.8411 17.2518 33.3055C16.1414 37.2951 13.1541 40.0077 10.5877 39.3399C10.3284 39.2738 10.0791 39.1732 9.84652 39.0407C9.63925 38.9239 9.38601 38.9239 9.17875 39.0407C8.94523 39.1735 8.69505 39.2746 8.43481 39.3413C5.87389 40.0036 2.88592 37.2958 1.77479 33.3055C1.08661 30.8411 1.25866 28.3605 2.23515 26.6693Z" fill="url(#paint2_linear)"/>
<path d="M4.39412 32.5789C3.88716 31.0925 3.9578 29.4698 4.59201 28.0331C4.68569 27.8217 4.8512 27.6504 5.05918 27.5496C5.42309 27.4557 5.64199 27.0845 5.5481 26.7206C5.45421 26.3567 5.08309 26.1378 4.71917 26.2317C4.14862 26.4109 3.67649 26.8162 3.41287 27.353C2.79678 28.4186 2.38673 30.4471 3.08238 32.9441C3.18322 33.3059 3.5583 33.5175 3.92016 33.4167C4.28201 33.3159 4.4936 32.9408 4.39276 32.5789H4.39412Z" fill="url(#paint3_linear)"/>
<path d="M28.5566 29.2402H26.5166C25.3899 29.2402 24.4766 30.1536 24.4766 31.2803V33.3203C24.4766 34.447 25.3899 35.3603 26.5166 35.3603H28.5566C29.6833 35.3603 30.5967 34.447 30.5967 33.3203V31.2803C30.5967 30.1536 29.6833 29.2402 28.5566 29.2402ZM29.2366 33.3203C29.2366 33.6959 28.9322 34.0003 28.5566 34.0003H26.5166C26.141 34.0003 25.8366 33.6959 25.8366 33.3203V31.2803C25.8366 30.9047 26.141 30.6003 26.5166 30.6003H28.5566C28.9322 30.6003 29.2366 30.9047 29.2366 31.2803V33.3203Z" fill="url(#paint4_linear)"/>
<path d="M30.5967 23.8008C30.5967 22.6741 29.6833 21.7607 28.5566 21.7607H26.5166C25.3899 21.7607 24.4766 22.6741 24.4766 23.8008V25.8408C24.4766 26.9675 25.3899 27.8808 26.5166 27.8808H28.5566C29.6833 27.8808 30.5967 26.9675 30.5967 25.8408V23.8008ZM29.2366 25.8408C29.2366 26.2164 28.9322 26.5208 28.5566 26.5208H26.5166C26.141 26.5208 25.8366 26.2164 25.8366 25.8408V23.8008C25.8366 23.4252 26.141 23.1208 26.5166 23.1208H28.5566C28.9322 23.1208 29.2366 23.4252 29.2366 23.8008V25.8408Z" fill="url(#paint5_linear)"/>
<path d="M30.5967 16.3193C30.5967 15.1927 29.6833 14.2793 28.5566 14.2793H26.5166C25.3899 14.2793 24.4766 15.1927 24.4766 16.3193V18.3594C24.4766 19.486 25.3899 20.3994 26.5166 20.3994H28.5566C29.6833 20.3994 30.5967 19.486 30.5967 18.3594V16.3193ZM29.2366 18.3594C29.2366 18.7349 28.9322 19.0394 28.5566 19.0394H26.5166C26.141 19.0394 25.8366 18.7349 25.8366 18.3594V16.3193C25.8366 15.9438 26.141 15.6393 26.5166 15.6393H28.5566C28.9322 15.6393 29.2366 15.9438 29.2366 16.3193V18.3594Z" fill="url(#paint6_linear)"/>
<path d="M21.0807 34.0003H20.387C20.0115 34.0003 19.707 34.3048 19.707 34.6803C19.707 35.0559 20.0115 35.3603 20.387 35.3603H21.0807C22.2073 35.3603 23.1207 34.447 23.1207 33.3203V31.2803C23.1207 30.1536 22.2073 29.2402 21.0807 29.2402H21.0535C20.8745 29.2408 20.7032 29.313 20.578 29.4408C20.4527 29.5686 20.3839 29.7413 20.387 29.9202C20.3934 30.2985 20.7024 30.6014 21.0807 30.6003C21.4562 30.6003 21.7607 30.9047 21.7607 31.2803V33.3203C21.7607 33.5007 21.689 33.6736 21.5615 33.8011C21.434 33.9287 21.261 34.0003 21.0807 34.0003Z" fill="url(#paint7_linear)"/>
<path d="M18.5347 23.3533C18.6606 23.2056 18.8451 23.1206 19.0392 23.1208H21.0793C21.4548 23.1208 21.7593 23.4252 21.7593 23.8008V25.8408C21.7593 26.2164 21.4548 26.5208 21.0793 26.5208H20.6508C20.2753 26.5208 19.9708 26.8253 19.9708 27.2008C19.9708 27.5764 20.2753 27.8809 20.6508 27.8809H21.0793C22.2059 27.8809 23.1193 26.9675 23.1193 25.8408V23.8008C23.1193 22.6741 22.2059 21.7608 21.0793 21.7608H19.0392C18.4417 21.7587 17.8743 22.0226 17.4908 22.4809C17.2499 22.7691 17.2883 23.1981 17.5765 23.439C17.8648 23.6799 18.2937 23.6416 18.5347 23.3533Z" fill="url(#paint8_linear)"/>
<path d="M20.0592 19.0394H14.9591C14.5835 19.0394 14.2791 19.3438 14.2791 19.7194C14.2791 20.095 14.5835 20.3994 14.9591 20.3994H20.0592C21.7468 20.3938 23.1136 19.0271 23.1192 17.3394C23.1173 15.6501 21.7484 14.2812 20.0592 14.2793H12.579C11.5076 14.2767 10.5132 14.836 9.95904 15.7531C9.40488 16.6701 9.37207 17.8105 9.87259 18.7579C10.0512 19.0884 10.4639 19.2115 10.7943 19.0329C11.1248 18.8543 11.248 18.4417 11.0694 18.1112C10.943 17.8736 10.8776 17.6084 10.879 17.3394C10.8849 16.4029 11.6426 15.6453 12.579 15.6393H20.0592C20.9981 15.6393 21.7592 16.4005 21.7592 17.3394C21.7532 18.2758 20.9956 19.0334 20.0592 19.0394Z" fill="url(#paint9_linear)"/>
<defs>
<linearGradient id="paint0_linear" x1="6.12109" y1="0" x2="39.4487" y2="33.3107" gradientUnits="userSpaceOnUse">
<stop stop-color="#FFA091"/>
<stop offset="1" stop-color="#F47965"/>
</linearGradient>
<linearGradient id="paint1_linear" x1="9.51904" y1="3.3999" x2="13.7239" y2="17.3329" gradientUnits="userSpaceOnUse">
<stop stop-color="#FFA091"/>
<stop offset="1" stop-color="#F47965"/>
</linearGradient>
<linearGradient id="paint2_linear" x1="0" y1="19.7246" x2="17.6649" y2="41.8804" gradientUnits="userSpaceOnUse">
<stop stop-color="#FFA091"/>
<stop offset="1" stop-color="#F47965"/>
</linearGradient>
<linearGradient id="paint3_linear" x1="2.71875" y1="26.21" x2="7.95897" y2="29.0806" gradientUnits="userSpaceOnUse">
<stop stop-color="#FFA091"/>
<stop offset="1" stop-color="#F47965"/>
</linearGradient>
<linearGradient id="paint4_linear" x1="24.4766" y1="29.2402" x2="29.4664" y2="36.1738" gradientUnits="userSpaceOnUse">
<stop stop-color="#FFA091"/>
<stop offset="1" stop-color="#F47965"/>
</linearGradient>
<linearGradient id="paint5_linear" x1="24.4766" y1="21.7607" x2="29.4664" y2="28.6943" gradientUnits="userSpaceOnUse">
<stop stop-color="#FFA091"/>
<stop offset="1" stop-color="#F47965"/>
</linearGradient>
<linearGradient id="paint6_linear" x1="24.4766" y1="14.2793" x2="29.4664" y2="21.2128" gradientUnits="userSpaceOnUse">
<stop stop-color="#FFA091"/>
<stop offset="1" stop-color="#F47965"/>
</linearGradient>
<linearGradient id="paint7_linear" x1="19.707" y1="29.2402" x2="24.8029" y2="33.1898" gradientUnits="userSpaceOnUse">
<stop stop-color="#FFA091"/>
<stop offset="1" stop-color="#F47965"/>
</linearGradient>
<linearGradient id="paint8_linear" x1="17.3325" y1="21.7607" x2="22.4046" y2="28.4248" gradientUnits="userSpaceOnUse">
<stop stop-color="#FFA091"/>
<stop offset="1" stop-color="#F47965"/>
</linearGradient>
<linearGradient id="paint9_linear" x1="9.51904" y1="14.2793" x2="12.6039" y2="23.8048" gradientUnits="userSpaceOnUse">
<stop stop-color="#FFA091"/>
<stop offset="1" stop-color="#F47965"/>
</linearGradient>
</defs>
</svg>
