<svg width="58" height="36" viewBox="0 0 58 36" fill="none" xmlns="http://www.w3.org/2000/svg">
<path d="M55.025 15.0837H53.5882V12.1418C53.5882 9.92004 51.9156 8.07432 49.7406 7.75029C49.2835 6.13751 47.9206 4.8917 46.2245 4.57461V4.44187C46.2245 1.99277 44.1916 0 41.6933 0C39.1944 0 37.1616 1.99277 37.1616 4.44187V12.5787L35.5517 13.3113H22.4487L20.8384 12.5787V4.44187C20.8384 1.99277 18.8056 0 16.3072 0C13.8084 0 11.7755 1.99277 11.7755 4.44187V4.57461C10.0798 4.8917 8.71646 6.13751 8.25935 7.75029C6.08444 8.07432 4.41222 9.92004 4.41222 12.1418V15.0837H2.97496C1.33459 15.0837 0 16.392 0 18C0 19.608 1.33459 20.9163 2.97496 20.9163H4.41177V23.8586C4.41177 26.08 6.08444 27.9257 8.25935 28.2497C8.71646 29.8625 10.0794 31.1083 11.7755 31.4254V31.5581C11.7755 34.0072 13.8084 36 16.3067 36C18.8056 36 20.8384 34.0072 20.8384 31.5581V23.4213L22.4483 22.6883H35.5513L37.1616 23.4213V31.5581C37.1616 34.0072 39.1944 36 41.6928 36C44.1916 36 46.2245 34.0072 46.2245 31.5581V31.425C47.9202 31.1083 49.2835 29.8625 49.7406 28.2497C51.9156 27.9257 53.5878 26.08 53.5878 23.8582V20.9163H55.0246C56.6654 20.9163 58 19.608 58 18C58 16.392 56.6654 15.0837 55.025 15.0837ZM23.1107 14.9774H34.8893V21.0226H23.1107V14.9774ZM2.97496 19.2506C2.27182 19.2506 1.69922 18.6897 1.69922 18C1.69922 17.3103 2.27182 16.7494 2.97496 16.7494H4.41177V19.2506H2.97496ZM6.11099 23.8586V12.1418C6.11099 10.9008 6.946 9.8476 8.09386 9.4932V26.5068C6.946 26.1524 6.11099 25.0992 6.11099 23.8586ZM19.1392 31.5581C19.1392 33.0889 17.8688 34.3343 16.3072 34.3343C14.7456 34.3343 13.4747 33.0889 13.4747 31.5581V15.121C13.4747 14.6612 13.0946 14.2882 12.6251 14.2882C12.1561 14.2882 11.7755 14.6612 11.7755 15.121V29.7111C10.6276 29.3567 9.79308 28.3035 9.79308 27.0625V8.93754C9.79308 7.6965 10.6281 6.64372 11.7755 6.2889V12.0859C11.7755 12.5461 12.1561 12.9187 12.6251 12.9187C13.0946 12.9187 13.4747 12.5461 13.4747 12.0859V4.44231C13.4747 2.91108 14.7456 1.6657 16.3072 1.6657C17.8688 1.6657 19.1392 2.91151 19.1392 4.44231V31.5581ZM20.8384 14.4153L21.4115 14.676V21.324L20.8384 21.5852V14.4153ZM36.5885 21.324V14.676L37.1616 14.4153V21.5847L36.5885 21.324ZM44.5253 31.5581C44.5253 33.0889 43.2549 34.3343 41.6933 34.3343C40.1317 34.3343 38.8608 33.0889 38.8608 31.5581V4.44231C38.8608 2.91108 40.1317 1.6657 41.6933 1.6657C43.2549 1.6657 44.5253 2.91151 44.5253 4.44231V31.5581ZM51.889 23.8586C51.889 25.0992 51.054 26.1524 49.9061 26.5068V23.4101C49.9061 22.9503 49.526 22.5772 49.0565 22.5772C48.5875 22.5772 48.2069 22.9503 48.2069 23.4101V27.0625C48.2069 28.3035 47.3724 29.3563 46.2245 29.7111V6.2889C47.3724 6.64329 48.2069 7.6965 48.2069 8.93754V20.3008C48.2069 20.761 48.5875 21.1336 49.0565 21.1336C49.526 21.1336 49.9061 20.761 49.9061 20.3008V9.4932C51.054 9.8476 51.889 10.9008 51.889 12.1418V23.8586ZM55.025 19.2506H53.5882V16.7494H55.025C55.7282 16.7494 56.3008 17.3103 56.3008 18C56.3008 18.6897 55.7282 19.2506 55.025 19.2506Z" fill="#101828"/>
</svg>
