<svg width="24" height="25" viewBox="0 0 24 25" fill="none" xmlns="http://www.w3.org/2000/svg">
<path d="M22.6667 17.3884C21.0067 17.3884 19.4 17.1243 17.9067 16.6358C17.4467 16.4905 16.92 16.5962 16.5534 16.9593L13.6201 19.8708C9.84006 17.9694 6.75337 14.9127 4.83337 11.176L7.76669 8.25793C8.13337 7.89481 8.24 7.3733 8.09338 6.91776C7.60006 5.43895 7.33337 3.84786 7.33337 2.20397C7.33331 1.4711 6.74 0.883545 6 0.883545H1.33331C0.6 0.883545 0 1.4711 0 2.20391C0 14.6024 10.1467 24.6505 22.6667 24.6505C23.4067 24.6505 24 24.063 24 23.3302V18.7088C24 17.976 23.4067 17.3884 22.6667 17.3884Z" fill="black"/>
</svg>
