<svg width="112" height="130" viewBox="0 0 112 130" fill="none" xmlns="http://www.w3.org/2000/svg">
<path d="M56.0705 58.7891C40.9475 58.7891 28.6873 71.0494 28.6873 86.1723C28.6873 101.296 40.9475 113.556 56.0705 113.556C71.1935 113.556 83.4537 101.296 83.4537 86.1723C83.4372 71.056 71.1868 58.8068 56.0705 58.7891ZM56.0705 109.603C43.1298 109.603 32.6395 99.113 32.6395 86.1723C32.6395 73.2317 43.1298 62.7413 56.0705 62.7413C69.0111 62.7413 79.5015 73.2317 79.5015 86.1723C79.4871 99.1075 69.0056 109.589 56.0705 109.603Z" fill="url(#paint0_linear)"/>
<path d="M68.2333 77.4533L52.7475 92.2465L44.5365 84.0345C43.7646 83.2625 42.513 83.2625 41.7421 84.0345C40.9702 84.8064 40.9702 86.058 41.7421 86.8299L51.3183 96.4061C52.077 97.1648 53.3044 97.1791 54.0807 96.437L70.9625 80.3116C71.4797 79.8253 71.697 79.0986 71.5315 78.4083C71.365 77.718 70.8412 77.1699 70.1597 76.9725C69.4771 76.7751 68.7416 76.9582 68.2321 77.4533H68.2333Z" fill="url(#paint1_linear)"/>
<path d="M98.732 40.8929C98.0616 36.5646 94.3266 33.3788 89.9465 33.3965H80.9206V24.8502C80.9206 11.1255 69.7951 0 56.0704 0C42.3457 0 31.2201 11.1255 31.2201 24.8502V33.3965H22.1942C17.8141 33.3788 14.0792 36.5646 13.4087 40.8929L0.487908 113.838C0.466956 113.952 0.457031 114.067 0.457031 114.182C0.468059 122.914 7.54323 129.99 16.2747 130H95.866C104.598 129.99 111.674 122.914 111.684 114.182C111.684 114.066 111.674 113.952 111.654 113.837L98.732 40.8929ZM35.1724 24.8502C35.1724 13.309 44.5291 3.95222 56.0704 3.95222C67.6127 3.95222 76.9684 13.309 76.9684 24.8502V33.3965H35.1724V24.8502ZM95.8671 126.047H16.2747C9.78951 126.041 4.50849 120.834 4.40925 114.35L17.3014 41.5644C17.3047 41.5523 17.3058 41.5402 17.308 41.527C17.6763 39.1164 19.7539 37.3387 22.192 37.3487H31.2179V50.4691C31.2179 51.5608 32.1023 52.4452 33.194 52.4452C34.2858 52.4452 35.1702 51.5608 35.1702 50.4691V37.3487H76.9684V50.4691C76.9684 51.5608 77.8539 52.4452 78.9445 52.4452C80.0362 52.4452 80.9206 51.5608 80.9206 50.4691V37.3487H89.9465C92.3847 37.3399 94.4622 39.1164 94.8306 41.527C94.8328 41.5402 94.835 41.5523 94.8372 41.5644L107.731 114.35C107.632 120.834 102.351 126.041 95.866 126.047H95.8671Z" fill="url(#paint2_linear)"/>
<defs>
<linearGradient id="paint0_linear" x1="0.457031" y1="0" x2="110.583" y2="130.926" gradientUnits="userSpaceOnUse">
<stop stop-color="#FFA091"/>
<stop offset="1" stop-color="#F47965"/>
</linearGradient>
<linearGradient id="paint1_linear" x1="0.457031" y1="0" x2="110.583" y2="130.926" gradientUnits="userSpaceOnUse">
<stop stop-color="#FFA091"/>
<stop offset="1" stop-color="#F47965"/>
</linearGradient>
<linearGradient id="paint2_linear" x1="0.457031" y1="0" x2="110.583" y2="130.926" gradientUnits="userSpaceOnUse">
<stop stop-color="#FFA091"/>
<stop offset="1" stop-color="#F47965"/>
</linearGradient>
</defs>
</svg>
