<svg width="90" height="29" viewBox="0 0 90 29" fill="none" xmlns="http://www.w3.org/2000/svg">
<path d="M46.3787 9.27213C46.3276 13.3117 49.9737 15.5662 52.7204 16.9064C55.5425 18.2817 56.4904 19.1635 56.4796 20.3932C56.458 22.2755 54.2284 23.1061 52.1414 23.1384C48.5007 23.195 46.3841 22.1541 44.7011 21.3667L43.3897 27.5124C45.0781 28.2918 48.2045 28.9713 51.4467 29.001C59.0566 29.001 64.0357 25.2391 64.0626 19.4062C64.0922 12.0039 53.8379 11.594 53.9079 8.28515C53.9322 7.28199 54.8881 6.21141 56.9831 5.93904C58.0199 5.80151 60.8824 5.69634 64.1272 7.193L65.401 1.24684C63.656 0.610424 61.4129 0.000976562 58.6204 0.000976562C51.4574 0.000976562 46.4191 3.81407 46.3787 9.27213ZM77.6399 0.513342C76.2504 0.513342 75.079 1.32504 74.5566 2.5709L63.6856 28.5641H71.2902L72.8036 24.3762H82.0966L82.9744 28.5641H89.6769L83.828 0.513342H77.6399ZM78.7036 8.09099L80.8982 18.6242H74.8878L78.7036 8.09099ZM37.1585 0.513342L31.1642 28.5641H38.4106L44.4022 0.513342H37.1585ZM26.4383 0.513342L18.8956 19.6058L15.8447 3.37181C15.4865 1.55965 14.0728 0.513342 12.5028 0.513342H0.172342L0 1.32774C2.53127 1.87786 5.40722 2.76506 7.14949 3.71429C8.21585 4.29408 8.52014 4.80105 8.87021 6.17905L14.649 28.5641H22.3075L34.0482 0.513342H26.4383Z" fill="#101828"/>
</svg>
