<svg width="40" height="36" viewBox="0 0 40 36" fill="none" xmlns="http://www.w3.org/2000/svg">
    <path d="M19.9994 7.2002C14.0823 7.2002 9.28516 12.0355 9.28516 18.0002C9.28516 23.9649 14.0823 28.8002 19.9994 28.8002C25.9166 28.8002 30.7137 23.9649 30.7137 18.0002C30.7137 12.0355 25.9166 7.2002 19.9994 7.2002ZM25.4343 19.1683C25.9337 19.6599 26.462 20.1226 26.9103 20.6651C27.1089 20.9051 27.2961 21.1532 27.4386 21.4323C27.642 21.8303 27.4583 22.2667 27.105 22.2904L24.9099 22.2899C24.343 22.3372 23.8919 22.1067 23.5115 21.7161C23.2079 21.4047 22.9262 21.0721 22.6338 20.7502C22.5143 20.618 22.3885 20.4936 22.2385 20.3958C21.9393 20.1995 21.6793 20.2596 21.5079 20.5747C21.3332 20.8954 21.2933 21.2507 21.2766 21.6076C21.2527 22.1293 21.0966 22.2656 20.5773 22.2901C19.4676 22.3425 18.4147 22.1728 17.4361 21.6089C16.5728 21.1115 15.9047 20.4095 15.3224 19.6146C14.1886 18.0652 13.3203 16.3646 12.5401 14.6151C12.3645 14.2211 12.493 14.0103 12.9242 14.0022C13.6406 13.9882 14.357 13.99 15.0734 14.0015C15.365 14.0061 15.5579 14.1743 15.6699 14.4516C16.057 15.4117 16.5316 16.3252 17.1264 17.1724C17.2849 17.398 17.4466 17.623 17.677 17.7823C17.9313 17.9582 18.1251 17.9001 18.245 17.6139C18.3218 17.4321 18.3549 17.2376 18.3715 17.0427C18.4285 16.3752 18.4353 15.7078 18.3367 15.0429C18.2753 14.6268 18.0431 14.3581 17.6317 14.2795C17.4221 14.2395 17.4528 14.1613 17.5547 14.0406C17.7316 13.832 17.8974 13.703 18.2286 13.703L20.7086 13.7025C21.0995 13.7799 21.1872 13.9566 21.2402 14.3535L21.2424 17.1316C21.2378 17.2851 21.3189 17.7403 21.5925 17.8409C21.8117 17.9138 21.9564 17.7366 22.0875 17.5967C22.6822 16.9605 23.106 16.2097 23.4854 15.4325C23.6529 15.0898 23.7974 14.7351 23.9377 14.3798C24.042 14.1171 24.2043 13.9878 24.4985 13.9922L26.8866 13.9951C26.957 13.9951 27.0285 13.9957 27.0982 14.0079C27.5006 14.0773 27.6109 14.2518 27.4864 14.6476C27.2904 15.2694 26.9096 15.7874 26.5374 16.3067C26.1384 16.8626 25.7129 17.3992 25.3179 17.9575C24.9549 18.468 24.9836 18.725 25.4343 19.1683Z"
          fill="#101828"/>
</svg>
