<svg width="29" height="26" viewBox="0 0 29 26" fill="none" xmlns="http://www.w3.org/2000/svg">
<path fill-rule="evenodd" clip-rule="evenodd" d="M14.4441 20.8002C18.7178 20.8002 22.1822 17.308 22.1822 13.0002C22.1822 8.69237 18.7178 5.2002 14.4441 5.2002C10.1705 5.2002 6.70605 8.69237 6.70605 13.0002C6.70605 17.308 10.1705 20.8002 14.4441 20.8002ZM10.7589 14.7883L10.1111 17.152L12.5296 16.5173C13.1991 16.8819 13.9493 17.073 14.7116 17.0733H14.7138C17.2307 17.0733 19.2793 15.0269 19.2793 12.51C19.2814 11.2909 18.8065 10.1441 17.9442 9.28176C17.084 8.41944 15.9372 7.94453 14.716 7.94453C12.1991 7.94453 10.1505 9.9909 10.1505 12.5078C10.1483 13.311 10.3606 14.0968 10.7589 14.7883ZM12.7812 15.7732L12.6433 15.69L11.2054 16.0687L11.5885 14.6702L11.4987 14.5257C11.1179 13.9217 10.9187 13.2235 10.9187 12.5078C10.9187 10.4155 12.6215 8.71493 14.7138 8.71493C15.7271 8.71493 16.6814 9.10889 17.397 9.82675C18.1127 10.5446 18.5067 11.4967 18.5067 12.51C18.5067 14.6023 16.8039 16.3029 14.7138 16.3029H14.7116C14.0309 16.3007 13.3634 16.119 12.7812 15.7732ZM13.3177 10.4004C13.3987 10.4026 13.4884 10.407 13.5738 10.5974C13.6304 10.7242 13.7258 10.9575 13.8035 11.1476L13.8035 11.1477C13.864 11.2956 13.9137 11.4173 13.9262 11.4422C13.9546 11.4991 13.9721 11.5648 13.9349 11.6414L13.9224 11.6674C13.8925 11.7296 13.8713 11.7739 13.8211 11.8318C13.8005 11.8556 13.779 11.8817 13.7576 11.9077L13.7576 11.9077C13.7199 11.9534 13.6825 11.9989 13.6504 12.031C13.5935 12.0878 13.5344 12.1492 13.6 12.263C13.6657 12.3768 13.8955 12.751 14.2348 13.053C14.5995 13.3793 14.9166 13.5167 15.0769 13.5862C15.1081 13.5997 15.1333 13.6107 15.1518 13.6199C15.2656 13.6768 15.3334 13.6681 15.3991 13.5915C15.4648 13.5148 15.6836 13.2588 15.7602 13.145C15.8346 13.0312 15.9112 13.0487 16.0163 13.0881C16.1213 13.1275 16.6816 13.4032 16.7954 13.4601C16.8179 13.4714 16.839 13.4815 16.8585 13.4909C16.9376 13.5291 16.9915 13.555 17.0143 13.5936C17.0427 13.6418 17.0427 13.8694 16.9486 14.1364C16.8524 14.4034 16.3884 14.6595 16.1782 14.6792C16.1583 14.6811 16.1385 14.6835 16.1182 14.686C15.9256 14.7094 15.6812 14.7391 14.8103 14.3947C13.7373 13.9707 13.0289 12.9188 12.8857 12.7062L12.8857 12.7062C12.8744 12.6894 12.8666 12.6778 12.8625 12.6722L12.8601 12.669C12.7949 12.5814 12.3963 12.0455 12.3963 11.4926C12.3963 10.9636 12.6557 10.6882 12.774 10.5626L12.7946 10.5405C12.8997 10.4267 13.0223 10.3983 13.0989 10.3983C13.1755 10.3983 13.2521 10.3983 13.3177 10.4004Z" fill="#101828"/>
</svg>
