<svg width="374" height="35" viewBox="0 0 374 35" fill="none" xmlns="http://www.w3.org/2000/svg">
<path d="M23.4349 23.0889H22.2977V24.2261H23.4349V23.0889ZM26.2253 23.0889H27.3625V21.9517H26.2253V23.0889ZM26.2253 32.9855V34.1227H27.3625V32.9855H26.2253ZM21.091 32.9855H19.9538V34.1227H21.091V32.9855ZM21.091 28H22.2282V26.8628H21.091V28ZM6.69244 28V26.8628H5.55525V28H6.69244ZM6.69244 32.9855V34.1227H7.82964V32.9855H6.69244ZM1.55808 32.9855H0.420888V34.1227H1.55808V32.9855ZM1.55808 23.0889V21.9517H0.420888V23.0889H1.55808ZM4.08806 23.0889V24.2261H4.67244L5.01266 23.7509L4.08806 23.0889ZM6.24598 1.95614V0.818942H5.10878V1.95614H6.24598ZM23.4349 1.95614H24.5721V0.818942H23.4349V1.95614ZM9.59447 23.0889L8.61005 22.5196L7.62315 24.2261H9.59447V23.0889ZM18.3006 23.0889V24.2261H19.4378V23.0889H18.3006ZM18.3006 6.75565H19.4378V5.61845H18.3006V6.75565ZM11.3803 6.75565V5.61845H10.2431V6.75565H11.3803ZM23.4349 24.2261H26.2253V21.9517H23.4349V24.2261ZM25.0881 23.0889V32.9855H27.3625V23.0889H25.0881ZM26.2253 31.8483H21.091V34.1227H26.2253V31.8483ZM22.2282 32.9855V28H19.9538V32.9855H22.2282ZM21.091 26.8628H6.69244V29.1372H21.091V26.8628ZM5.55525 28V32.9855H7.82964V28H5.55525ZM6.69244 31.8483H1.55808V34.1227H6.69244V31.8483ZM2.69528 32.9855V23.0889H0.420888V32.9855H2.69528ZM1.55808 24.2261H4.08806V21.9517H1.55808V24.2261ZM5.01266 23.7509C6.64781 21.4674 7.38317 18.2531 7.38317 14.2712H5.10878C5.10878 18.028 4.40554 20.6922 3.16346 22.4268L5.01266 23.7509ZM7.38317 14.2712V1.95614H5.10878V14.2712H7.38317ZM6.24598 3.09333H23.4349V0.818942H6.24598V3.09333ZM22.2977 1.95614V23.0889H24.5721V1.95614H22.2977ZM9.59447 24.2261H18.3006V21.9517H9.59447V24.2261ZM19.4378 23.0889V6.75565H17.1634V23.0889H19.4378ZM18.3006 5.61845H11.3803V7.89284H18.3006V5.61845ZM10.2431 6.75565V14.3456H12.5175V6.75565H10.2431ZM10.2431 14.3456C10.2431 18.0218 9.65828 20.707 8.61005 22.5196L10.5789 23.6582C11.9118 21.3533 12.5175 18.2097 12.5175 14.3456H10.2431ZM34.7855 23.0889H33.6483V24.2261H34.7855V23.0889ZM45.7611 23.0889H46.8983V21.9517H45.7611V23.0889ZM45.7611 28V29.1372H46.8983V28H45.7611ZM29.6512 28H28.514V29.1372H29.6512V28ZM29.6512 1.95614V0.818942H28.514V1.95614H29.6512ZM45.5751 1.95614H46.7123V0.818942H45.5751V1.95614ZM45.5751 6.86727V8.00446H46.7123V6.86727H45.5751ZM34.7855 6.86727V5.73007H33.6483V6.86727H34.7855ZM34.7855 12.4109H33.6483V13.5481H34.7855V12.4109ZM44.645 12.4109H45.7822V11.2737H44.645V12.4109ZM44.645 17.2476V18.3848H45.7822V17.2476H44.645ZM34.7855 17.2476V16.1104H33.6483V17.2476H34.7855ZM34.7855 24.2261H45.7611V21.9517H34.7855V24.2261ZM44.624 23.0889V28H46.8983V23.0889H44.624ZM45.7611 26.8628H29.6512V29.1372H45.7611V26.8628ZM30.7883 28V1.95614H28.514V28H30.7883ZM29.6512 3.09333H45.5751V0.818942H29.6512V3.09333ZM44.4379 1.95614V6.86727H46.7123V1.95614H44.4379ZM45.5751 5.73007H34.7855V8.00446H45.5751V5.73007ZM33.6483 6.86727V12.4109H35.9227V6.86727H33.6483ZM34.7855 13.5481H44.645V11.2737H34.7855V13.5481ZM43.5078 12.4109V17.2476H45.7822V12.4109H43.5078ZM44.645 16.1104H34.7855V18.3848H44.645V16.1104ZM33.6483 17.2476V23.0889H35.9227V17.2476H33.6483ZM66.6064 1.95614H67.7436V0.818942H66.6064V1.95614ZM66.6064 6.86727V8.00446H67.7436V6.86727H66.6064ZM59.5746 6.86727V5.73007H58.4374V6.86727H59.5746ZM59.5746 28V29.1372H60.7118V28H59.5746ZM54.4402 28H53.303V29.1372H54.4402V28ZM54.4402 6.86727H55.5774V5.73007H54.4402V6.86727ZM47.4456 6.86727H46.3084V8.00446H47.4456V6.86727ZM47.4456 1.95614V0.818942H46.3084V1.95614H47.4456ZM65.4692 1.95614V6.86727H67.7436V1.95614H65.4692ZM66.6064 5.73007H59.5746V8.00446H66.6064V5.73007ZM58.4374 6.86727V28H60.7118V6.86727H58.4374ZM59.5746 26.8628H54.4402V29.1372H59.5746V26.8628ZM55.5774 28V6.86727H53.303V28H55.5774ZM54.4402 5.73007H47.4456V8.00446H54.4402V5.73007ZM48.5828 6.86727V1.95614H46.3084V6.86727H48.5828ZM47.4456 3.09333H66.6064V0.818942H47.4456V3.09333ZM89.8971 24.6143L90.6974 25.4222L90.7012 25.4184L89.8971 24.6143ZM70.699 24.6143L69.8911 25.4146L69.8987 25.4222L70.699 24.6143ZM70.699 5.37904L69.8949 4.57493L70.699 5.37904ZM89.8971 5.37904L89.0929 6.18317L89.0968 6.18696L89.8971 5.37904ZM74.3079 21.117L73.5038 21.9211L73.5101 21.9273L74.3079 21.117ZM86.2881 21.117L87.086 21.9273L87.0922 21.9211L86.2881 21.117ZM86.2881 8.83916L87.0922 8.03504L86.2881 8.83916ZM74.3079 8.83916L73.5038 8.03504L74.3079 8.83916ZM89.0968 23.8064C86.685 26.1954 83.7748 27.3837 80.298 27.3837V29.6581C84.3616 29.6581 87.8508 28.2419 90.6974 25.4222L89.0968 23.8064ZM80.298 27.3837C76.8213 27.3837 73.9111 26.1954 71.4993 23.8064L69.8987 25.4222C72.7453 28.2419 76.2344 29.6581 80.298 29.6581V27.3837ZM71.5069 23.814C69.1194 21.4037 67.9296 18.4818 67.9296 14.9781H65.6552C65.6552 19.0642 67.0698 22.5665 69.8911 25.4146L71.5069 23.814ZM67.9296 14.9781C67.9296 11.4745 69.1191 8.56715 71.5031 6.18316L69.8949 4.57493C67.0701 7.39971 65.6552 10.8917 65.6552 14.9781H67.9296ZM71.5031 6.18316C73.9157 3.77056 76.8248 2.57245 80.298 2.57245V0.298064C76.231 0.298064 72.7407 1.72915 69.8949 4.57493L71.5031 6.18316ZM80.298 2.57245C83.7713 2.57245 86.6803 3.77056 89.0929 6.18316L90.7012 4.57493C87.8554 1.72915 84.3651 0.298064 80.298 0.298064V2.57245ZM89.0968 6.18696C91.5043 8.57176 92.7037 11.4779 92.7037 14.9781H94.978C94.978 10.8883 93.5482 7.3951 90.6974 4.57112L89.0968 6.18696ZM92.7037 14.9781C92.7037 18.4784 91.504 21.3991 89.0929 23.8102L90.7012 25.4184C93.5485 22.5711 94.978 19.0677 94.978 14.9781H92.7037ZM73.5101 21.9273C75.3471 23.7361 77.6357 24.6353 80.298 24.6353V22.3609C78.1981 22.3609 76.4933 21.6728 75.1058 20.3067L73.5101 21.9273ZM80.298 24.6353C82.9604 24.6353 85.249 23.7361 87.086 21.9273L85.4903 20.3067C84.1028 21.6728 82.398 22.3609 80.298 22.3609V24.6353ZM87.0922 21.9211C88.9375 20.0758 89.8437 17.7308 89.8437 14.9781H87.5693C87.5693 17.186 86.8632 18.9337 85.484 20.3129L87.0922 21.9211ZM89.8437 14.9781C89.8437 12.2253 88.9375 9.88034 87.0922 8.03504L85.484 9.64327C86.8632 11.0225 87.5693 12.7701 87.5693 14.9781H89.8437ZM87.0922 8.03504C85.2564 6.19922 82.9659 5.2836 80.298 5.2836V7.55799C82.3925 7.55799 84.0953 8.25461 85.484 9.64328L87.0922 8.03504ZM80.298 5.2836C77.6302 5.2836 75.3396 6.19922 73.5038 8.03504L75.1121 9.64328C76.5007 8.25461 78.2036 7.55799 80.298 7.55799V5.2836ZM73.5038 8.03504C71.6585 9.88034 70.7524 12.2253 70.7524 14.9781H73.0268C73.0268 12.7701 73.7329 11.0225 75.1121 9.64328L73.5038 8.03504ZM70.7524 14.9781C70.7524 17.7308 71.6585 20.0758 73.5038 21.9211L75.1121 20.3129C73.7329 18.9337 73.0268 17.186 73.0268 14.9781H70.7524ZM117.801 28V29.1372H120.07L118.712 27.3193L117.801 28ZM111.885 28L110.981 28.6894L111.322 29.1372H111.885V28ZM102.584 15.7966L103.488 15.1072L101.447 12.4286V15.7966H102.584ZM102.584 28V29.1372H103.721V28H102.584ZM97.4495 28H96.3123V29.1372H97.4495V28ZM97.4495 1.95614V0.818942H96.3123V1.95614H97.4495ZM102.584 1.95614H103.721V0.818942H102.584V1.95614ZM102.584 13.4526H101.447V16.7707L103.482 14.1502L102.584 13.4526ZM111.513 1.95614V0.818942H110.957L110.615 1.25857L111.513 1.95614ZM117.429 1.95614L118.333 2.64525L119.725 0.818942H117.429V1.95614ZM107.793 14.606L106.888 13.9169L106.368 14.5994L106.882 15.2867L107.793 14.606ZM117.801 26.8628H111.885V29.1372H117.801V26.8628ZM112.79 27.3106L103.488 15.1072L101.679 16.4859L110.981 28.6894L112.79 27.3106ZM101.447 15.7966V28H103.721V15.7966H101.447ZM102.584 26.8628H97.4495V29.1372H102.584V26.8628ZM98.5867 28V1.95614H96.3123V28H98.5867ZM97.4495 3.09333H102.584V0.818942H97.4495V3.09333ZM101.447 1.95614V13.4526H103.721V1.95614H101.447ZM103.482 14.1502L112.411 2.6537L110.615 1.25857L101.686 12.7551L103.482 14.1502ZM111.513 3.09333H117.429V0.818942H111.513V3.09333ZM116.524 1.26703L106.888 13.9169L108.697 15.2951L118.333 2.64525L116.524 1.26703ZM106.882 15.2867L116.89 28.6807L118.712 27.3193L108.704 13.9253L106.882 15.2867ZM120.765 24.6143L121.577 23.8179L120.765 24.6143ZM120.765 5.34184L121.573 6.14207L121.577 6.13819L120.765 5.34184ZM136.986 3.10951L136.429 4.10066L136.436 4.10478L136.444 4.10879L136.986 3.10951ZM141.674 7.57417L142.245 8.55795L143.238 7.98229L142.653 6.99478L141.674 7.57417ZM137.247 10.1414L136.252 10.6918L136.813 11.7072L137.817 11.1251L137.247 10.1414ZM134.494 7.42535L133.936 8.4165L133.944 8.42095L133.952 8.42527L134.494 7.42535ZM124.337 8.80195L123.526 8.00416L123.52 8.0107L124.337 8.80195ZM124.337 21.117L123.52 21.9083L123.526 21.9147L124.337 21.117ZM134.494 22.5308L135.035 23.5307L135.042 23.5268L134.494 22.5308ZM137.247 19.8148L137.817 18.831L136.806 18.2446L136.248 19.2718L137.247 19.8148ZM141.674 22.382L142.653 22.9614L143.238 21.9738L142.245 21.3982L141.674 22.382ZM137.024 26.8838L137.572 27.8803L137.581 27.875L137.024 26.8838ZM130.475 27.3837C126.837 27.3837 123.901 26.187 121.577 23.8179L119.953 25.4106C122.739 28.2504 126.276 29.6581 130.475 29.6581V27.3837ZM121.577 23.8179C119.241 21.437 118.07 18.5156 118.07 14.9781H115.795C115.795 19.0801 117.179 22.5828 119.953 25.4106L121.577 23.8179ZM118.07 14.9781C118.07 11.4136 119.242 8.49518 121.573 6.14206L119.957 4.54162C117.178 7.34766 115.795 10.8534 115.795 14.9781H118.07ZM121.577 6.13819C123.901 3.76913 126.837 2.57245 130.475 2.57245V0.298064C126.276 0.298064 122.739 1.70577 119.953 4.54549L121.577 6.13819ZM130.475 2.57245C132.644 2.57245 134.621 3.08367 136.429 4.10066L137.544 2.11836C135.383 0.903012 133.02 0.298064 130.475 0.298064V2.57245ZM136.444 4.10879C138.28 5.10658 139.689 6.45312 140.696 8.15356L142.653 6.99478C141.427 4.92506 139.711 3.29516 137.529 2.11023L136.444 4.10879ZM141.104 6.59039L136.676 9.15757L137.817 11.1251L142.245 8.55795L141.104 6.59039ZM138.242 9.59088C137.49 8.2318 136.414 7.17197 135.035 6.42542L133.952 8.42527C134.955 8.96852 135.714 9.71936 136.252 10.6918L138.242 9.59088ZM135.051 6.4342C133.675 5.66032 132.141 5.2836 130.475 5.2836V7.55799C131.786 7.55799 132.931 7.85098 133.936 8.4165L135.051 6.4342ZM130.475 5.2836C127.686 5.2836 125.332 6.16941 123.526 8.00419L125.147 9.59971C126.466 8.25962 128.205 7.55799 130.475 7.55799V5.2836ZM123.52 8.0107C121.746 9.84127 120.893 12.1989 120.893 14.9781H123.167C123.167 12.6973 123.851 10.9375 125.153 9.59321L123.52 8.0107ZM120.893 14.9781C120.893 17.7359 121.749 20.0798 123.52 21.9082L125.153 20.3257C123.849 18.9792 123.167 17.2306 123.167 14.9781H120.893ZM123.526 21.9147C125.332 23.7495 127.686 24.6353 130.475 24.6353V22.3609C128.205 22.3609 126.466 21.6593 125.147 20.3192L123.526 21.9147ZM130.475 24.6353C132.134 24.6353 133.662 24.2744 135.035 23.5307L133.952 21.5309C132.944 22.077 131.794 22.3609 130.475 22.3609V24.6353ZM135.042 23.5268C136.435 22.7597 137.515 21.7029 138.246 20.3578L136.248 19.2718C135.739 20.2086 134.984 20.9624 133.945 21.5348L135.042 23.5268ZM136.676 20.7986L141.104 23.3657L142.245 21.3982L137.817 18.831L136.676 20.7986ZM140.696 21.8026C139.685 23.5089 138.283 24.8704 136.466 25.8927L137.581 27.875C139.732 26.6649 141.431 25.0252 142.653 22.9614L140.696 21.8026ZM136.476 25.8874C134.668 26.8816 132.675 27.3837 130.475 27.3837V29.6581C133.038 29.6581 135.411 29.0688 137.572 27.8803L136.476 25.8874ZM173.879 1.95614H175.016V0.818942H173.879V1.95614ZM173.879 28V29.1372H175.016V28H173.879ZM168.745 28H167.607V29.1372H168.745V28ZM168.745 6.86727H169.882V5.73007H168.745V6.86727ZM159.555 6.86727V5.73007H158.418V6.86727H159.555ZM159.555 28V29.1372H160.692V28H159.555ZM154.42 28H153.283V29.1372H154.42V28ZM154.42 1.95614V0.818942H153.283V1.95614H154.42ZM172.742 1.95614V28H175.016V1.95614H172.742ZM173.879 26.8628H168.745V29.1372H173.879V26.8628ZM169.882 28V6.86727H167.607V28H169.882ZM168.745 5.73007H159.555V8.00446H168.745V5.73007ZM158.418 6.86727V28H160.692V6.86727H158.418ZM159.555 26.8628H154.42V29.1372H159.555V26.8628ZM155.558 28V1.95614H153.283V28H155.558ZM154.42 3.09333H173.879V0.818942H154.42V3.09333ZM194.763 4.48611L195.561 3.67615L194.763 4.48611ZM194.763 16.9128L195.561 17.7227L194.763 16.9128ZM183.862 19.4427V18.3055H182.725V19.4427H183.862ZM183.862 28V29.1372H184.999V28H183.862ZM178.728 28H177.59V29.1372H178.728V28ZM178.728 1.95614V0.818942H177.59V1.95614H178.728ZM191.154 13.5271L191.972 14.3174L191.978 14.3107L191.985 14.3039L191.154 13.5271ZM191.154 7.87181L190.337 8.66219V8.66219L191.154 7.87181ZM183.862 6.75565V5.61845H182.725V6.75565H183.862ZM183.862 14.6432H182.725V15.7804H183.862V14.6432ZM188.438 3.09333C190.659 3.09333 192.476 3.82884 193.965 5.29608L195.561 3.67615C193.627 1.77009 191.228 0.818942 188.438 0.818942V3.09333ZM193.965 5.29608C195.454 6.7638 196.193 8.54085 196.193 10.6994H198.468C198.468 7.94689 197.495 5.58173 195.561 3.67615L193.965 5.29608ZM196.193 10.6994C196.193 12.858 195.454 14.6351 193.965 16.1028L195.561 17.7227C197.495 15.8171 198.468 13.452 198.468 10.6994H196.193ZM193.965 16.1028C192.476 17.57 190.659 18.3055 188.438 18.3055V20.5799C191.228 20.5799 193.627 19.6288 195.561 17.7227L193.965 16.1028ZM188.438 18.3055H183.862V20.5799H188.438V18.3055ZM182.725 19.4427V28H184.999V19.4427H182.725ZM183.862 26.8628H178.728V29.1372H183.862V26.8628ZM179.865 28V1.95614H177.59V28H179.865ZM178.728 3.09333H188.438V0.818942H178.728V3.09333ZM188.438 15.7804C189.819 15.7804 191.026 15.2963 191.972 14.3174L190.337 12.7367C189.844 13.246 189.24 13.506 188.438 13.506V15.7804ZM191.985 14.3039C192.914 13.3108 193.37 12.0851 193.37 10.6994H191.096C191.096 11.5461 190.833 12.2054 190.324 12.7502L191.985 14.3039ZM193.37 10.6994C193.37 9.29654 192.918 8.0602 191.972 7.08144L190.337 8.66219C190.829 9.17165 191.096 9.82039 191.096 10.6994H193.37ZM191.972 7.08144C191.026 6.10252 189.819 5.61845 188.438 5.61845V7.89284C189.24 7.89284 189.844 8.15289 190.337 8.66219L191.972 7.08144ZM188.438 5.61845H183.862V7.89284H188.438V5.61845ZM182.725 6.75565V14.6432H184.999V6.75565H182.725ZM183.862 15.7804H188.438V13.506H183.862V15.7804ZM222.405 24.6143L223.206 25.4222L223.209 25.4184L222.405 24.6143ZM203.207 24.6143L202.399 25.4146L202.407 25.4222L203.207 24.6143ZM203.207 5.37904L202.403 4.57493L203.207 5.37904ZM222.405 5.37904L221.601 6.18317L221.605 6.18696L222.405 5.37904ZM206.816 21.117L206.012 21.9211L206.018 21.9273L206.816 21.117ZM218.796 21.117L219.594 21.9273L219.601 21.9211L218.796 21.117ZM218.796 8.83916L219.601 8.03504L218.796 8.83916ZM206.816 8.83916L206.012 8.03504L206.816 8.83916ZM221.605 23.8064C219.193 26.1954 216.283 27.3837 212.806 27.3837V29.6581C216.87 29.6581 220.359 28.2419 223.206 25.4222L221.605 23.8064ZM212.806 27.3837C209.33 27.3837 206.419 26.1954 204.008 23.8064L202.407 25.4222C205.254 28.2419 208.743 29.6581 212.806 29.6581V27.3837ZM204.015 23.814C201.628 21.4037 200.438 18.4818 200.438 14.9781H198.164C198.164 19.0642 199.578 22.5665 202.399 25.4146L204.015 23.814ZM200.438 14.9781C200.438 11.4745 201.627 8.56715 204.011 6.18316L202.403 4.57493C199.578 7.39971 198.164 10.8917 198.164 14.9781H200.438ZM204.011 6.18316C206.424 3.77056 209.333 2.57245 212.806 2.57245V0.298064C208.739 0.298064 205.249 1.72915 202.403 4.57493L204.011 6.18316ZM212.806 2.57245C216.28 2.57245 219.189 3.77056 221.601 6.18316L223.209 4.57493C220.364 1.72915 216.873 0.298064 212.806 0.298064V2.57245ZM221.605 6.18696C224.013 8.57176 225.212 11.4779 225.212 14.9781H227.486C227.486 10.8883 226.057 7.3951 223.206 4.57112L221.605 6.18696ZM225.212 14.9781C225.212 18.4784 224.012 21.3991 221.601 23.8102L223.209 25.4184C226.057 22.5711 227.486 19.0677 227.486 14.9781H225.212ZM206.018 21.9273C207.855 23.7361 210.144 24.6353 212.806 24.6353V22.3609C210.706 22.3609 209.002 21.6728 207.614 20.3067L206.018 21.9273ZM212.806 24.6353C215.469 24.6353 217.757 23.7361 219.594 21.9273L217.999 20.3067C216.611 21.6728 214.906 22.3609 212.806 22.3609V24.6353ZM219.601 21.9211C221.446 20.0758 222.352 17.7308 222.352 14.9781H220.078C220.078 17.186 219.372 18.9337 217.992 20.3129L219.601 21.9211ZM222.352 14.9781C222.352 12.2253 221.446 9.88034 219.601 8.03504L217.992 9.64327C219.372 11.0225 220.078 12.7701 220.078 14.9781H222.352ZM219.601 8.03504C217.765 6.19922 215.474 5.2836 212.806 5.2836V7.55799C214.901 7.55799 216.604 8.25461 217.992 9.64328L219.601 8.03504ZM212.806 5.2836C210.139 5.2836 207.848 6.19922 206.012 8.03504L207.62 9.64328C209.009 8.25461 210.712 7.55799 212.806 7.55799V5.2836ZM206.012 8.03504C204.167 9.88034 203.261 12.2253 203.261 14.9781H205.535C205.535 12.7701 206.241 11.0225 207.62 9.64328L206.012 8.03504ZM203.261 14.9781C203.261 17.7308 204.167 20.0758 206.012 21.9211L207.62 20.3129C206.241 18.9337 205.535 17.186 205.535 14.9781H203.261ZM244.766 1.95614H245.903V0.818942H244.766V1.95614ZM244.766 6.86727V8.00446H245.903V6.86727H244.766ZM235.092 6.86727V5.73007H233.955V6.86727H235.092ZM235.092 28V29.1372H236.229V28H235.092ZM229.958 28H228.821V29.1372H229.958V28ZM229.958 1.95614V0.818942H228.821V1.95614H229.958ZM243.628 1.95614V6.86727H245.903V1.95614H243.628ZM244.766 5.73007H235.092V8.00446H244.766V5.73007ZM233.955 6.86727V28H236.229V6.86727H233.955ZM235.092 26.8628H229.958V29.1372H235.092V26.8628ZM231.095 28V1.95614H228.821V28H231.095ZM229.958 3.09333H244.766V0.818942H229.958V3.09333ZM263.651 4.48611L264.45 3.67615L263.651 4.48611ZM263.651 16.9128L264.45 17.7227L263.651 16.9128ZM252.75 19.4427V18.3055H251.613V19.4427H252.75ZM252.75 28V29.1372H253.887V28H252.75ZM247.616 28H246.479V29.1372H247.616V28ZM247.616 1.95614V0.818942H246.479V1.95614H247.616ZM260.043 13.5271L260.86 14.3174L260.867 14.3107L260.873 14.3039L260.043 13.5271ZM260.043 7.87181L259.225 8.66219V8.66219L260.043 7.87181ZM252.75 6.75565V5.61845H251.613V6.75565H252.75ZM252.75 14.6432H251.613V15.7804H252.75V14.6432ZM257.327 3.09333C259.547 3.09333 261.364 3.82884 262.853 5.29608L264.45 3.67615C262.516 1.77009 260.116 0.818942 257.327 0.818942V3.09333ZM262.853 5.29608C264.343 6.7638 265.081 8.54085 265.081 10.6994H267.356C267.356 7.94689 266.383 5.58173 264.45 3.67615L262.853 5.29608ZM265.081 10.6994C265.081 12.858 264.343 14.6351 262.853 16.1028L264.45 17.7227C266.383 15.8171 267.356 13.452 267.356 10.6994H265.081ZM262.853 16.1028C261.364 17.57 259.547 18.3055 257.327 18.3055V20.5799C260.116 20.5799 262.516 19.6288 264.45 17.7227L262.853 16.1028ZM257.327 18.3055H252.75V20.5799H257.327V18.3055ZM251.613 19.4427V28H253.887V19.4427H251.613ZM252.75 26.8628H247.616V29.1372H252.75V26.8628ZM248.753 28V1.95614H246.479V28H248.753ZM247.616 3.09333H257.327V0.818942H247.616V3.09333ZM257.327 15.7804C258.707 15.7804 259.914 15.2963 260.86 14.3174L259.225 12.7367C258.733 13.246 258.128 13.506 257.327 13.506V15.7804ZM260.873 14.3039C261.802 13.3108 262.259 12.0851 262.259 10.6994H259.984C259.984 11.5461 259.722 12.2054 259.212 12.7502L260.873 14.3039ZM262.259 10.6994C262.259 9.29654 261.806 8.0602 260.86 7.08144L259.225 8.66219C259.717 9.17165 259.984 9.82039 259.984 10.6994H262.259ZM260.86 7.08144C259.914 6.10252 258.707 5.61845 257.327 5.61845V7.89284C258.128 7.89284 258.733 8.15289 259.225 8.66219L260.86 7.08144ZM257.327 5.61845H252.75V7.89284H257.327V5.61845ZM251.613 6.75565V14.6432H253.887V6.75565H251.613ZM252.75 15.7804H257.327V13.506H252.75V15.7804ZM283.651 28L282.573 28.3596L282.832 29.1372H283.651V28ZM282.089 23.3121L283.168 22.9525L282.908 22.1749H282.089V23.3121ZM271.708 23.3121V22.1749H270.889L270.63 22.9525L271.708 23.3121ZM270.146 28V29.1372H270.966L271.225 28.3596L270.146 28ZM264.602 28L263.529 27.6243L262.999 29.1372H264.602V28ZM273.718 1.95614V0.818942H272.911L272.644 1.58046L273.718 1.95614ZM280.08 1.95614L281.153 1.5791L280.885 0.818942H280.08V1.95614ZM289.232 28V29.1372H290.837L290.305 27.623L289.232 28ZM273.346 18.5126L272.267 18.1507L271.764 19.6498H273.346V18.5126ZM280.489 18.5126V19.6498H282.07L281.567 18.1507L280.489 18.5126ZM276.917 7.87181L277.995 7.50994L276.917 4.29816L275.839 7.50994L276.917 7.87181ZM284.73 27.6404L283.168 22.9525L281.01 23.6717L282.573 28.3596L284.73 27.6404ZM282.089 22.1749H271.708V24.4493H282.089V22.1749ZM270.63 22.9525L269.067 27.6404L271.225 28.3596L272.787 23.6717L270.63 22.9525ZM270.146 26.8628H264.602V29.1372H270.146V26.8628ZM265.676 28.3757L274.791 2.33181L272.644 1.58046L263.529 27.6243L265.676 28.3757ZM273.718 3.09333H280.08V0.818942H273.718V3.09333ZM279.007 2.33317L288.159 28.377L290.305 27.623L281.153 1.5791L279.007 2.33317ZM289.232 26.8628H283.651V29.1372H289.232V26.8628ZM273.346 19.6498H280.489V17.3754H273.346V19.6498ZM281.567 18.1507L277.995 7.50994L275.839 8.23369L279.411 18.8745L281.567 18.1507ZM275.839 7.50994L272.267 18.1507L274.424 18.8745L277.995 8.23369L275.839 7.50994ZM317.247 1.95614H318.384V0.818942H317.247V1.95614ZM317.247 28V29.1372H318.384V28H317.247ZM312.15 28H311.013V29.1372H312.15V28ZM312.15 11.1087H313.287V7.03878L311.177 10.5192L312.15 11.1087ZM304.82 23.2005V24.3377H305.461L305.793 23.79L304.82 23.2005ZM304.225 23.2005L303.253 23.7913L303.585 24.3377H304.225V23.2005ZM296.895 11.1459L297.867 10.5551L295.758 7.08669V11.1459H296.895ZM296.895 28V29.1372H298.033V28H296.895ZM291.761 28H290.624V29.1372H291.761V28ZM291.761 1.95614V0.818942H290.624V1.95614H291.761ZM297.044 1.95614L298.016 1.36588L297.684 0.818942H297.044V1.95614ZM304.523 14.2712L303.551 14.8614L304.525 16.4661L305.496 14.8593L304.523 14.2712ZM311.964 1.95614V0.818942H311.322L310.99 1.36803L311.964 1.95614ZM316.11 1.95614V28H318.384V1.95614H316.11ZM317.247 26.8628H312.15V29.1372H317.247V26.8628ZM313.287 28V11.1087H311.013V28H313.287ZM311.177 10.5192L303.848 22.611L305.793 23.79L313.122 11.6982L311.177 10.5192ZM304.82 22.0633H304.225V24.3377H304.82V22.0633ZM305.197 22.6097L297.867 10.5551L295.924 11.7367L303.253 23.7913L305.197 22.6097ZM295.758 11.1459V28H298.033V11.1459H295.758ZM296.895 26.8628H291.761V29.1372H296.895V26.8628ZM292.898 28V1.95614H290.624V28H292.898ZM291.761 3.09333H297.044V0.818942H291.761V3.09333ZM296.072 2.54639L303.551 14.8614L305.495 13.6809L298.016 1.36588L296.072 2.54639ZM305.496 14.8593L312.937 2.54424L310.99 1.36803L303.549 13.6831L305.496 14.8593ZM311.964 3.09333H317.247V0.818942H311.964V3.09333ZM347.585 1.95614H348.723V0.818942H347.585V1.95614ZM347.585 28V29.1372H348.723V28H347.585ZM342.488 28H341.351V29.1372H342.488V28ZM342.488 11.1087H343.625V7.03878L341.516 10.5192L342.488 11.1087ZM335.159 23.2005V24.3377H335.799L336.131 23.79L335.159 23.2005ZM334.563 23.2005L333.592 23.7913L333.924 24.3377H334.563V23.2005ZM327.234 11.1459L328.206 10.5551L326.097 7.08669V11.1459H327.234ZM327.234 28V29.1372H328.371V28H327.234ZM322.1 28H320.962V29.1372H322.1V28ZM322.1 1.95614V0.818942H320.962V1.95614H322.1ZM327.383 1.95614L328.355 1.36588L328.023 0.818942H327.383V1.95614ZM334.861 14.2712L333.889 14.8614L334.864 16.4661L335.834 14.8593L334.861 14.2712ZM342.302 1.95614V0.818942H341.661L341.329 1.36803L342.302 1.95614ZM346.448 1.95614V28H348.723V1.95614H346.448ZM347.585 26.8628H342.488V29.1372H347.585V26.8628ZM343.625 28V11.1087H341.351V28H343.625ZM341.516 10.5192L334.186 22.611L336.131 23.79L343.461 11.6982L341.516 10.5192ZM335.159 22.0633H334.563V24.3377H335.159V22.0633ZM335.535 22.6097L328.206 10.5551L326.262 11.7367L333.592 23.7913L335.535 22.6097ZM326.097 11.1459V28H328.371V11.1459H326.097ZM327.234 26.8628H322.1V29.1372H327.234V26.8628ZM323.237 28V1.95614H320.962V28H323.237ZM322.1 3.09333H327.383V0.818942H322.1V3.09333ZM326.411 2.54639L333.889 14.8614L335.833 13.6809L328.355 1.36588L326.411 2.54639ZM335.834 14.8593L343.276 2.54424L341.329 1.36803L333.888 13.6831L335.834 14.8593ZM342.302 3.09333H347.585V0.818942H342.302V3.09333ZM366.837 1.95614V0.818942H366.073L365.784 1.52629L366.837 1.95614ZM371.971 1.95614L373.022 2.39131L373.673 0.818942H371.971V1.95614ZM364.158 20.8193L363.107 20.3842L363.106 20.3863L364.158 20.8193ZM353.889 28H352.752V29.0739L353.824 29.1353L353.889 28ZM353.889 23.2005L353.99 22.0678L352.752 21.9572V23.2005H353.889ZM357.238 22.6424L357.814 23.6226L357.823 23.6175L357.238 22.6424ZM359.396 20.1496L360.413 20.6582L360.659 20.1659L360.425 19.6673L359.396 20.1496ZM350.875 1.95614V0.818942H349.087L349.846 2.43842L350.875 1.95614ZM356.01 1.95614L357.046 1.48718L356.743 0.818942H356.01V1.95614ZM361.702 14.5316L360.666 15.0006L361.756 17.4082L362.755 14.9615L361.702 14.5316ZM366.837 3.09333H371.971V0.818942H366.837V3.09333ZM370.92 1.52096L363.107 20.3842L365.208 21.2545L373.022 2.39131L370.92 1.52096ZM363.106 20.3863C362.122 22.7765 360.862 24.4386 359.376 25.4775C357.903 26.5075 356.118 26.9887 353.954 26.8647L353.824 29.1353C356.422 29.2842 358.73 28.705 360.68 27.3414C362.617 25.9868 364.11 23.9222 365.209 21.2523L363.106 20.3863ZM355.026 28V23.2005H352.752V28H355.026ZM353.788 24.3332C355.316 24.4696 356.696 24.2803 357.814 23.6226L356.661 21.6622C356.092 21.9966 355.24 22.1794 353.99 22.0678L353.788 24.3332ZM357.823 23.6175C358.919 22.9597 359.77 21.9426 360.413 20.6582L358.378 19.6411C357.88 20.6386 357.292 21.2833 356.652 21.6673L357.823 23.6175ZM360.425 19.6673L351.905 1.47385L349.846 2.43842L358.366 20.6319L360.425 19.6673ZM350.875 3.09333H356.01V0.818942H350.875V3.09333ZM354.974 2.42509L360.666 15.0006L362.738 14.0626L357.046 1.48718L354.974 2.42509ZM362.755 14.9615L367.889 2.38599L365.784 1.52629L360.649 14.1018L362.755 14.9615Z" fill="white"/>
</svg>
