<svg width="26" height="46" viewBox="0 0 26 46" fill="none" xmlns="http://www.w3.org/2000/svg">
<path d="M25.2168 27.0127L25.8357 18.5593L6.3985 20.2266L6.17344 23.3006L25.2168 27.0127Z" fill="#2E4B87"/>
<path d="M14.8496 44.7354L18.1302 39.0483L4.01223 33.6604L2.81928 35.7284L14.8496 44.7354Z" fill="#2E4B87"/>
<path d="M17.5469 0L20.8275 5.68702L6.7095 11.075L5.51654 9.00699L17.5469 0Z" fill="#2E4B87"/>
<path d="M5.70449 23.8947L23.7593 27.4141L24.2942 20.1076L5.86603 21.6884L5.70449 23.8947Z" stroke="white"/>
<path d="M2.47404 36.594L13.6981 44.9973L16.4041 40.3064L3.23229 35.2795L2.47404 36.594Z" stroke="white"/>
<path d="M5.1713 10.1414L16.3954 1.73803L19.1014 6.42895L5.92956 11.4558L5.1713 10.1414Z" stroke="white"/>
</svg>
