<svg width="26" height="46" viewBox="0 0 26 46" fill="none" xmlns="http://www.w3.org/2000/svg">
<path d="M1.54492 27.0127L0.925986 18.5593L20.3632 20.2266L20.5883 23.3006L1.54492 27.0127Z" fill="#2E4B87"/>
<path d="M11.9121 44.7354L8.63148 39.0483L22.7495 33.6604L23.9424 35.7284L11.9121 44.7354Z" fill="#2E4B87"/>
<path d="M9.21484 0L5.93421 5.68702L20.0522 11.075L21.2452 9.00699L9.21484 0Z" fill="#2E4B87"/>
<path d="M21.0572 23.8947L3.00243 27.4141L2.46747 20.1076L20.8957 21.6884L21.0572 23.8947Z" stroke="white"/>
<path d="M24.2877 36.594L13.0636 44.9973L10.3576 40.3064L23.5294 35.2795L24.2877 36.594Z" stroke="white"/>
<path d="M21.5904 10.1414L10.3663 1.73803L7.66031 6.42895L20.8322 11.4558L21.5904 10.1414Z" stroke="white"/>
</svg>
